# Created by FreeCAD <https://www.freecad.org>
v 60.000000 -0.000000 0.000000
v 30.000000 51.961525 4.000000
v 60.000000 -0.000000 4.000000
v 30.000000 51.961525 0.000000
v 30.000000 -51.961525 0.000000
v 30.000000 -51.961525 4.000000
v -30.000000 51.961525 4.000000
v -30.000000 51.961525 0.000000
v -60.000000 0.000000 0.000000
v -30.000000 -51.961525 0.000000
v -30.005014 -28.684298 4.000000
v -60.000000 0.000000 4.000000
v -30.000000 -51.961525 4.000000
v -30.005014 31.315702 4.000000
v 29.994986 -28.684298 4.000000
v 29.994986 31.315702 4.000000
v 29.994986 -28.684298 44.000000
v 29.994986 31.315702 44.000000
v -30.005014 31.315702 44.000000
v -30.005014 -28.684298 44.000000
vn 0.866025 0.500000 -0.000000
vn 0.866025 0.500000 -0.000000
vn 0.866025 -0.500000 0.000000
vn 0.866025 -0.500000 0.000000
vn 0.000000 1.000000 -0.000000
vn 0.000000 1.000000 0.000000
vn 0.000000 0.000000 -1.000000
vn 0.000000 0.000000 -1.000000
vn 0.000000 0.000000 -1.000000
vn 0.000000 0.000000 -1.000000
vn 0.000000 0.000000 1.000000
vn 0.000000 0.000000 1.000000
vn 0.000000 0.000000 1.000000
vn 0.000000 0.000000 1.000000
vn 0.000000 0.000000 1.000000
vn 0.000000 0.000000 1.000000
vn 0.000000 0.000000 1.000000
vn 0.000000 0.000000 1.000000
vn 0.000000 0.000000 1.000000
vn 0.000000 0.000000 1.000000
vn 0.000000 -1.000000 0.000000
vn 0.000000 -1.000000 0.000000
vn -0.866025 0.500000 0.000000
vn -0.866025 0.500000 0.000000
vn -0.866025 -0.500000 0.000000
vn -0.866025 -0.500000 -0.000000
vn 1.000000 0.000000 0.000000
vn 1.000000 -0.000000 0.000000
vn 0.000000 1.000000 -0.000000
vn 0.000000 1.000000 0.000000
vn -1.000000 0.000000 0.000000
vn -1.000000 -0.000000 0.000000
vn 0.000000 -1.000000 0.000000
vn 0.000000 -1.000000 0.000000
vn 0.000000 0.000000 1.000000
vn 0.000000 0.000000 1.000000
f 1//1 2//1 3//1
f 1//2 4//2 2//2
f 5//3 1//3 6//3
f 6//4 1//4 3//4
f 4//5 7//5 2//5
f 4//6 8//6 7//6
f 9//7 8//7 10//7
f 10//8 4//8 5//8
f 5//9 4//9 1//9
f 8//10 4//10 10//10
f 11//11 12//11 13//11
f 14//12 12//12 11//12
f 15//13 13//13 6//13
f 15//14 11//14 13//14
f 7//15 12//15 14//15
f 3//16 15//16 6//16
f 16//17 7//17 14//17
f 16//18 15//18 3//18
f 2//19 7//19 16//19
f 2//20 16//20 3//20
f 10//21 6//21 13//21
f 10//22 5//22 6//22
f 8//23 9//23 7//23
f 7//24 9//24 12//24
f 9//25 10//25 12//25
f 12//26 10//26 13//26
f 15//27 16//27 17//27
f 17//28 16//28 18//28
f 16//29 14//29 18//29
f 18//30 14//30 19//30
f 14//31 11//31 19//31
f 19//32 11//32 20//32
f 11//33 15//33 20//33
f 20//34 15//34 17//34
f 18//35 19//35 20//35
f 18//36 20//36 17//36
