# Created by FreeCAD <https://www.freecad.org>
v 60.000000 -0.000000 54.000000
v 30.000000 51.961525 58.000000
v 60.000000 -0.000000 58.000000
v 30.000000 51.961525 54.000000
v -30.000000 51.961525 58.000000
v -30.000000 51.961525 54.000000
v -60.000000 0.000000 54.000000
v -60.000000 0.000000 58.000000
v -30.000000 -51.961525 54.000000
v -30.000000 -51.961525 58.000000
v 30.000000 -51.961525 58.000000
v 30.000000 -51.961525 54.000000
vn 0.866025 0.500000 -0.000000
vn 0.866025 0.500000 -0.000000
vn 0.000000 1.000000 -0.000000
vn 0.000000 1.000000 0.000000
vn -0.866025 0.500000 0.000000
vn -0.866025 0.500000 0.000000
vn -0.866025 -0.500000 0.000000
vn -0.866025 -0.500000 -0.000000
vn 0.000000 -1.000000 0.000000
vn 0.000000 -1.000000 0.000000
vn 0.866025 -0.500000 0.000000
vn 0.866025 -0.500000 0.000000
vn 0.000000 0.000000 -1.000000
vn 0.000000 0.000000 -1.000000
vn 0.000000 0.000000 -1.000000
vn 0.000000 0.000000 -1.000000
vn 0.000000 0.000000 1.000000
vn 0.000000 0.000000 1.000000
vn 0.000000 0.000000 1.000000
vn 0.000000 0.000000 1.000000
f 1//1 2//1 3//1
f 1//2 4//2 2//2
f 4//3 5//3 2//3
f 4//4 6//4 5//4
f 6//5 7//5 5//5
f 5//6 7//6 8//6
f 7//7 9//7 8//7
f 8//8 9//8 10//8
f 9//9 11//9 10//9
f 9//10 12//10 11//10
f 12//11 1//11 11//11
f 11//12 1//12 3//12
f 7//13 6//13 9//13
f 9//14 4//14 12//14
f 12//15 4//15 1//15
f 6//16 4//16 9//16
f 5//17 8//17 10//17
f 2//18 10//18 11//18
f 2//19 11//19 3//19
f 2//20 5//20 10//20
