# Created by FreeCAD <https://www.freecad.org>
v 15.011016 16.177706 68.275475
v -44.876366 12.923517 71.275475
v 15.011016 16.177706 71.275475
v -47.896183 12.759425 68.275475
v -47.871948 12.760742 71.275475
v -47.896183 12.759425 71.275475
v 16.526377 15.602198 68.275475
v 16.594433 15.531454 68.275475
v 16.454929 15.669516 68.275475
v 16.380266 15.733247 68.275475
v 16.222013 15.849344 68.275475
v 16.302565 15.793238 68.275475
v 16.138807 15.901430 68.275475
v 15.965234 15.993051 68.275475
v 16.053144 15.949371 68.275475
v 15.875285 16.032364 68.275475
v 16.658937 15.457458 68.275475
v 16.923042 15.045148 68.275475
v 16.719732 15.380384 68.275475
v 16.776674 15.300421 68.275475
v 16.829622 15.217760 68.275475
v 16.878450 15.132601 68.275475
v 15.595402 16.123215 68.275475
v 15.783515 16.067217 68.275475
v 15.690146 16.097525 68.275475
v 16.999092 14.864210 68.275475
v 17.030369 14.771161 68.275475
v 16.963287 14.955613 68.275475
v 15.402706 16.160503 68.275475
v 15.499512 16.144224 68.275475
v 17.096333 14.484392 68.275475
v 17.057043 14.676690 68.275475
v 17.079048 14.581023 68.275475
v 15.207283 16.178726 68.275475
v 15.109137 16.180626 68.275475
v 15.305219 16.172014 68.275475
v 17.116587 14.289169 68.275475
v 17.108856 14.387029 68.275475
v 7.310359 10.756905 68.275475
v 18.528326 -11.868800 68.275475
v 18.521612 -11.966734 68.275475
v 18.530224 -11.770652 68.275475
v 18.510103 -12.064221 68.275475
v 18.493824 -12.161027 68.275475
v 18.527306 -11.672531 68.275475
v 18.472815 -12.256918 68.275475
v 18.447124 -12.351662 68.275475
v 18.416817 -12.445031 68.275475
v 18.381964 -12.536800 68.275475
v 18.298971 -12.714661 68.275475
v 18.342649 -12.626748 68.275475
v 18.251030 -12.800323 68.275475
v 18.198944 -12.883530 68.275475
v 18.142838 -12.964082 68.275475
v 18.082846 -13.041782 68.275475
v 18.019115 -13.116445 68.275475
v 17.951796 -13.187892 68.275475
v 17.881054 -13.255948 68.275475
v 17.729984 -13.381248 68.275475
v 17.807056 -13.320453 68.275475
v 17.650021 -13.438190 68.275475
v 17.567360 -13.491138 68.275475
v 17.482201 -13.539967 68.275475
v 17.394747 -13.584558 68.275475
v 17.305212 -13.624804 68.275475
v 17.213810 -13.660609 68.275475
v 17.120760 -13.691886 68.275475
v 17.026289 -13.718558 68.275475
v 16.930622 -13.740564 68.275475
v 16.833992 -13.757849 68.275475
v 16.638769 -13.778101 68.275475
v 16.736628 -13.770371 68.275475
v 8.395528 -9.213634 68.275475
v -32.630718 8.586567 68.275475
v -31.545549 -11.383971 68.275475
v -46.268429 -17.196383 68.275475
v 15.109137 16.180626 71.275475
v 15.207283 16.178726 71.275475
v 15.305219 16.172014 71.275475
v 15.402706 16.160503 71.275475
v 15.499512 16.144224 71.275475
v 15.595402 16.123215 71.275475
v 15.690146 16.097525 71.275475
v 15.783515 16.067217 71.275475
v 15.875285 16.032364 71.275475
v 15.965234 15.993051 71.275475
v 16.053144 15.949371 71.275475
v 16.138807 15.901430 71.275475
v 16.222013 15.849344 71.275475
v 16.302565 15.793238 71.275475
v 16.380266 15.733247 71.275475
v 16.454929 15.669516 71.275475
v 16.526377 15.602198 71.275475
v 16.594433 15.531454 71.275475
v 16.658937 15.457458 71.275475
v 16.719732 15.380384 71.275475
v 16.776674 15.300421 71.275475
v 16.829622 15.217760 71.275475
v 16.878450 15.132601 71.275475
v 16.923042 15.045148 71.275475
v 16.963287 14.955613 71.275475
v 16.999092 14.864210 71.275475
v 17.030369 14.771161 71.275475
v 17.057043 14.676690 71.275475
v 17.079048 14.581023 71.275475
v 17.096333 14.484392 71.275475
v 17.108856 14.387029 71.275475
v 17.116587 14.289169 71.275475
v -46.268429 -17.196383 71.275475
v 7.310359 10.756905 71.275475
v 18.521612 -11.966734 71.275475
v 18.528326 -11.868800 71.275475
v 18.530224 -11.770652 71.275475
v 18.510103 -12.064221 71.275475
v 18.493824 -12.161027 71.275475
v 18.527306 -11.672531 71.275475
v 18.447124 -12.351662 71.275475
v 18.472815 -12.256918 71.275475
v 18.416817 -12.445031 71.275475
v 18.298971 -12.714661 71.275475
v 18.381964 -12.536800 71.275475
v 18.342649 -12.626748 71.275475
v 18.251030 -12.800323 71.275475
v 18.198944 -12.883530 71.275475
v 18.142838 -12.964082 71.275475
v 18.082846 -13.041782 71.275475
v 18.019115 -13.116445 71.275475
v 17.951796 -13.187892 71.275475
v 17.729984 -13.381248 71.275475
v 17.881054 -13.255948 71.275475
v 17.807056 -13.320453 71.275475
v 17.567360 -13.491138 71.275475
v 17.650021 -13.438190 71.275475
v 17.482201 -13.539967 71.275475
v 17.305212 -13.624804 71.275475
v 17.394747 -13.584558 71.275475
v 17.120760 -13.691886 71.275475
v 17.213810 -13.660609 71.275475
v 16.930622 -13.740564 71.275475
v 17.026289 -13.718558 71.275475
v 16.833992 -13.757849 71.275475
v 16.638769 -13.778101 71.275475
v 16.736628 -13.770371 71.275475
v 8.395528 -9.213634 71.275475
v -32.630718 8.586567 71.275475
v -31.545549 -11.383971 71.275475
v -43.248886 -17.027288 71.275475
v -46.244469 -17.190063 71.275475
v -44.876640 12.928518 71.275475
v -47.872219 12.765743 71.275475
v -43.253609 -16.940348 131.108505
v -43.416386 -13.944766 131.108505
v -43.248886 -17.027288 131.275482
v -43.881371 -5.387596 122.266449
v -43.888706 -5.252553 122.408493
v -43.896416 -5.110714 122.543739
v -43.874420 -5.515517 122.117935
v -43.904472 -4.962418 122.671844
v -43.912861 -4.808024 122.792511
v -43.867870 -5.636007 121.963310
v -43.921562 -4.647906 122.905449
v -43.861744 -5.748775 121.802956
v -43.856049 -5.853551 121.637253
v -43.930553 -4.482445 123.010384
v -43.939812 -4.312044 123.107056
v -43.850803 -5.950083 121.466599
v -43.949318 -4.137110 123.195236
v -43.846020 -6.038137 121.291405
v -43.841709 -6.117501 121.112099
v -43.959049 -3.958066 123.274719
v -43.837879 -6.187984 120.929108
v -43.968975 -3.775345 123.345306
v -43.834538 -6.249417 120.742874
v -43.979080 -3.589386 123.406830
v -43.831699 -6.301651 120.553848
v -43.989338 -3.400635 123.459145
v -43.829369 -6.344563 120.362480
v -43.999722 -3.209550 123.502113
v -44.010208 -3.016588 123.535645
v -44.020767 -2.822217 123.559654
v -44.031380 -2.626902 123.574081
v -44.042019 -2.431117 123.578896
v -44.042454 -2.423129 123.578896
v -44.053093 -2.227343 123.574081
v -44.768124 10.931465 131.275482
v -44.228424 0.999306 121.637253
v -44.222729 0.894529 121.802956
v -44.216602 0.781761 121.963310
v -44.210056 0.661271 122.117935
v -44.203106 0.533351 122.266449
v -44.195766 0.398307 122.408493
v -44.188061 0.256468 122.543739
v -44.180000 0.108173 122.671844
v -44.171612 -0.046221 122.792511
v -44.162910 -0.206341 122.905449
v -44.153919 -0.371801 123.010384
v -44.144661 -0.542203 123.107056
v -44.135155 -0.717135 123.195236
v -44.125427 -0.896178 123.274719
v -44.115498 -1.078900 123.345306
v -44.105392 -1.264860 123.406830
v -44.095135 -1.453610 123.459145
v -44.084751 -1.644696 123.502113
v -44.074268 -1.837658 123.535645
v -44.063705 -2.032029 123.559654
v -44.773445 11.029456 131.273071
v -44.784046 11.224494 131.253830
v -44.778759 11.127211 131.265839
v -44.789291 11.321071 131.237045
v -44.799622 11.511179 131.189362
v -44.794491 11.416709 131.215546
v -44.804680 11.604252 131.158569
v -44.819275 11.872869 131.039322
v -44.809650 11.695704 131.123230
v -44.814518 11.785316 131.083450
v -44.823910 11.958156 130.990936
v -44.828411 12.040969 130.938416
v -44.832764 12.121108 130.881897
v -44.836964 12.198382 130.821503
v -44.844856 12.343596 130.689697
v -44.840996 12.272604 130.757385
v -43.253609 -16.940348 101.108505
v -44.852005 12.475208 130.544266
v -44.858349 12.591954 130.386612
v -44.855282 12.535514 130.466873
v -44.848526 12.411184 130.618591
v -44.861198 12.644395 130.303680
v -44.866219 12.736780 130.130585
v -44.863827 12.692709 130.218277
v -44.868378 12.776502 130.040848
v -44.871967 12.842526 129.856049
v -44.870296 12.811779 129.949249
v -44.873386 12.868670 129.761444
v -44.874554 12.890146 129.665665
v -44.876118 12.918902 129.471512
v -44.875465 12.906903 129.568939
v -44.876640 12.928518 129.275482
v -44.876507 12.926113 129.373611
v -44.259270 1.566985 119.582901
v -44.259010 1.562179 119.778969
v -44.258228 1.547771 119.974571
v -44.256924 1.523798 120.169235
v -44.255104 1.490316 120.362480
v -44.252773 1.447407 120.553848
v -44.249935 1.395172 120.742874
v -44.246597 1.333739 120.929108
v -44.242767 1.263256 121.112099
v -44.238453 1.183892 121.291405
v -44.233669 1.095837 121.466599
v -43.825203 -6.421231 82.574898
v -43.416386 -13.944766 101.108505
v -43.825466 -6.416424 82.378822
v -43.826248 -6.402017 82.183220
v -43.827549 -6.378044 81.988564
v -43.829369 -6.344563 81.795319
v -43.831699 -6.301651 81.603951
v -43.834538 -6.249417 81.414925
v -43.837879 -6.187984 81.228683
v -43.841709 -6.117501 81.045692
v -43.846020 -6.038137 80.866386
v -43.850803 -5.950083 80.691200
v -43.856049 -5.853551 80.520546
v -43.861744 -5.748775 80.354843
v -43.867870 -5.636007 80.194481
v -43.874420 -5.515517 80.039864
v -43.881371 -5.387596 79.891350
v -43.888706 -5.252553 79.749298
v -43.896416 -5.110714 79.614059
v -43.904472 -4.962418 79.485947
v -43.912861 -4.808024 79.365280
v -43.921562 -4.647906 79.252350
v -43.930553 -4.482445 79.147415
v -43.939812 -4.312044 79.050743
v -43.949318 -4.137110 78.962555
v -43.959049 -3.958066 78.883080
v -43.968975 -3.775345 78.812492
v -43.979080 -3.589386 78.750969
v -43.989338 -3.400635 78.698654
v -43.999722 -3.209550 78.655678
v -44.010208 -3.016588 78.622147
v -44.020767 -2.822217 78.598145
v -44.031380 -2.626902 78.583710
v -44.042019 -2.431117 78.578896
v -44.259270 1.566985 82.574898
v -44.042454 -2.423129 78.578896
v -44.053093 -2.227343 78.583710
v -44.063705 -2.032029 78.598145
v -44.074268 -1.837658 78.622147
v -44.084751 -1.644696 78.655678
v -44.095135 -1.453610 78.698654
v -44.105392 -1.264860 78.750969
v -44.115498 -1.078900 78.812492
v -44.125427 -0.896178 78.883080
v -44.135155 -0.717135 78.962555
v -44.144661 -0.542203 79.050743
v -44.153919 -0.371801 79.147415
v -44.162910 -0.206341 79.252350
v -44.171612 -0.046221 79.365280
v -44.180000 0.108173 79.485947
v -44.188061 0.256468 79.614059
v -44.195766 0.398307 79.749298
v -44.203106 0.533351 79.891350
v -44.210056 0.661271 80.039864
v -44.216602 0.781761 80.194481
v -44.222729 0.894529 80.354843
v -44.228424 0.999306 80.520546
v -44.233669 1.095837 80.691200
v -44.238453 1.183892 80.866386
v -44.242767 1.263256 81.045692
v -44.246597 1.333739 81.228683
v -44.249935 1.395172 81.414925
v -44.252773 1.447407 81.603951
v -44.255104 1.490316 81.795319
v -44.256924 1.523798 81.988564
v -44.258228 1.547771 82.183220
v -44.259010 1.562179 82.378822
v -43.825203 -6.421231 119.582901
v -43.825466 -6.416424 119.778969
v -43.826248 -6.402017 119.974571
v -43.827549 -6.378044 120.169235
v -46.244469 -17.190063 131.275482
v -47.840435 12.180820 130.689697
v -47.844109 12.248409 130.618591
v -47.836578 12.109829 130.757385
v -47.832546 12.035607 130.821503
v -47.847588 12.312433 130.544266
v -47.850864 12.372738 130.466873
v -47.828346 11.958333 130.881897
v -47.819492 11.795381 130.990936
v -47.823990 11.878193 130.938416
v -47.853931 12.429179 130.386612
v -47.856781 12.481620 130.303680
v -47.859406 12.529934 130.218277
v -47.810101 11.622540 131.083450
v -47.814857 11.710094 131.039322
v -47.861801 12.574005 130.130585
v -47.863960 12.613727 130.040848
v -47.795204 11.348404 131.189362
v -47.805229 11.532929 131.123230
v -47.800262 11.441477 131.158569
v -47.867546 12.679751 129.856049
v -47.868969 12.705894 129.761444
v -47.865875 12.649004 129.949249
v -47.779625 11.061718 131.253830
v -47.790070 11.253934 131.215546
v -47.784874 11.158296 131.237045
v -47.870136 12.727370 129.665665
v -47.871044 12.744128 129.568939
v -47.763702 10.768689 131.275482
v -47.774338 10.964436 131.265839
v -47.769028 10.866680 131.273071
v -47.872089 12.763338 129.373611
v -47.872219 12.765743 129.275482
v -47.871696 12.756127 129.471512
v -47.191349 0.235532 122.408493
v -47.183640 0.093693 122.543739
v -47.198685 0.370575 122.266449
v -47.205635 0.498496 122.117935
v -47.175583 -0.054602 122.671844
v -47.212185 0.618985 121.963310
v -47.167191 -0.208996 122.792511
v -47.218311 0.731754 121.802956
v -47.158493 -0.369116 122.905449
v -47.149502 -0.534576 123.010384
v -47.224003 0.836530 121.637253
v -47.140240 -0.704978 123.107056
v -47.229248 0.933062 121.466599
v -47.130737 -0.879911 123.195236
v -47.234035 1.021116 121.291405
v -47.238346 1.100480 121.112099
v -47.121006 -1.058954 123.274719
v -47.242176 1.170964 120.929108
v -47.111076 -1.241675 123.345306
v -47.245514 1.232396 120.742874
v -47.100975 -1.427635 123.406830
v -47.248352 1.284631 120.553848
v -47.090717 -1.616385 123.459145
v -47.250687 1.327541 120.362480
v -47.080334 -1.807472 123.502113
v -47.252506 1.361022 120.169235
v -47.069847 -2.000433 123.535645
v -47.253807 1.384996 119.974571
v -47.059288 -2.194804 123.559654
v -47.254589 1.399403 119.778969
v -47.048672 -2.390119 123.574081
v -47.254852 1.404210 119.582901
v -47.038036 -2.585904 123.578896
v -47.037601 -2.593892 123.578896
v -47.026962 -2.789678 123.574081
v -47.016350 -2.984992 123.559654
v -47.005787 -3.179363 123.535645
v -46.995300 -3.372326 123.502113
v -46.984917 -3.563410 123.459145
v -46.974663 -3.752161 123.406830
v -46.964558 -3.938120 123.345306
v -46.954628 -4.120842 123.274719
v -46.944901 -4.299886 123.195236
v -46.935394 -4.474819 123.107056
v -46.926136 -4.645220 123.010384
v -46.917145 -4.810681 122.905449
v -46.908443 -4.970799 122.792511
v -46.900055 -5.125193 122.671844
v -46.891994 -5.273489 122.543739
v -46.884289 -5.415329 122.408493
v -46.876949 -5.550372 122.266449
v -46.869999 -5.678292 122.117935
v -46.863453 -5.798782 121.963310
v -46.857323 -5.911550 121.802956
v -46.851631 -6.016326 121.637253
v -46.846386 -6.112858 121.466599
v -46.841602 -6.200912 121.291405
v -46.837288 -6.280277 121.112099
v -46.833458 -6.350760 120.929108
v -46.830120 -6.412193 120.742874
v -46.827282 -6.464427 120.553848
v -46.824951 -6.507338 120.362480
v -46.823132 -6.540820 120.169235
v -46.821827 -6.564792 119.974571
v -46.821045 -6.579200 119.778969
v -46.820786 -6.584007 119.582901
v -47.254852 1.404210 82.574898
v -47.254589 1.399403 82.378822
v -47.253807 1.384996 82.183220
v -47.252506 1.361022 81.988564
v -47.250687 1.327541 81.795319
v -47.248352 1.284631 81.603951
v -47.245514 1.232396 81.414925
v -47.242176 1.170964 81.228683
v -47.238346 1.100480 81.045692
v -47.234035 1.021116 80.866386
v -47.229248 0.933062 80.691200
v -47.224003 0.836530 80.520546
v -47.218311 0.731754 80.354843
v -47.212185 0.618985 80.194481
v -47.205635 0.498496 80.039864
v -47.198685 0.370575 79.891350
v -47.191349 0.235532 79.749298
v -47.183640 0.093693 79.614059
v -47.175583 -0.054602 79.485947
v -47.167191 -0.208996 79.365280
v -47.158493 -0.369116 79.252350
v -47.149502 -0.534576 79.147415
v -47.140240 -0.704978 79.050743
v -47.130737 -0.879911 78.962555
v -47.121006 -1.058954 78.883080
v -47.111076 -1.241675 78.812492
v -47.100975 -1.427635 78.750969
v -47.090717 -1.616385 78.698654
v -47.080334 -1.807472 78.655678
v -47.069847 -2.000433 78.622147
v -47.059288 -2.194804 78.598145
v -47.048672 -2.390119 78.583710
v -47.038036 -2.585904 78.578896
v -47.037601 -2.593892 78.578896
v -46.821045 -6.579200 82.378822
v -46.820786 -6.584007 82.574898
v -46.821827 -6.564792 82.183220
v -46.823132 -6.540820 81.988564
v -46.824951 -6.507338 81.795319
v -46.827282 -6.464427 81.603951
v -46.830120 -6.412193 81.414925
v -46.833458 -6.350760 81.228683
v -46.837288 -6.280277 81.045692
v -46.841602 -6.200912 80.866386
v -46.846386 -6.112858 80.691200
v -46.851631 -6.016326 80.520546
v -46.857323 -5.911550 80.354843
v -46.863453 -5.798782 80.194481
v -46.869999 -5.678292 80.039864
v -46.876949 -5.550372 79.891350
v -46.884289 -5.415329 79.749298
v -46.891994 -5.273489 79.614059
v -46.900055 -5.125193 79.485947
v -46.908443 -4.970799 79.365280
v -46.917145 -4.810681 79.252350
v -46.926136 -4.645220 79.147415
v -46.935394 -4.474819 79.050743
v -46.944901 -4.299886 78.962555
v -46.954628 -4.120842 78.883080
v -46.964558 -3.938120 78.812492
v -46.974663 -3.752161 78.750969
v -46.984917 -3.563410 78.698654
v -46.995300 -3.372326 78.655678
v -47.005787 -3.179363 78.622147
v -47.016350 -2.984992 78.598145
v -47.026962 -2.789678 78.583710
v 17.907360 -10.612527 101.694290
v 18.038973 -10.605375 101.839722
v 17.974949 -10.608854 101.765388
v 18.155720 -10.599031 101.997368
v 18.099279 -10.602098 101.917107
v 17.684874 -10.624617 101.502090
v 17.604734 -10.628972 101.445572
v 17.762148 -10.620418 101.562485
v 17.836370 -10.616385 101.626602
v 17.521921 -10.633471 101.393051
v 17.436634 -10.638105 101.344666
v 17.349081 -10.642863 101.300529
v 18.340267 -10.589004 102.343140
v 18.208160 -10.596182 102.080299
v 18.256474 -10.593557 102.165710
v 18.300545 -10.591163 102.253395
v 17.259470 -10.647733 101.260750
v 17.168016 -10.652702 101.225418
v 16.884836 -10.668090 101.146935
v 16.788260 -10.673338 101.130157
v 16.980474 -10.662893 101.168442
v 17.074944 -10.657760 101.194626
v 18.482668 -10.581266 102.912476
v 18.375544 -10.587087 102.434731
v 18.406292 -10.585416 102.527939
v 18.432434 -10.583996 102.622543
v 18.453911 -10.582829 102.718330
v 18.470669 -10.581918 102.815048
v 16.593222 -10.683936 101.110916
v 16.495230 -10.689260 101.108505
v 16.690975 -10.678624 101.118141
v 18.489878 -10.580874 103.010368
v 8.499320 -11.123746 106.275475
v 18.489878 -10.580874 129.206650
v 18.470669 -10.581918 129.401962
v 18.482668 -10.581266 129.304535
v 18.453911 -10.582829 129.498688
v 18.406292 -10.585416 129.689072
v 18.432434 -10.583996 129.594467
v 18.375544 -10.587087 129.782288
v 18.340267 -10.589004 129.873871
v 18.256474 -10.593557 130.051300
v 18.300545 -10.591163 129.963623
v 18.155720 -10.599031 130.219650
v 18.208160 -10.596182 130.136719
v 18.099279 -10.602098 130.299911
v 18.038973 -10.605375 130.377289
v 17.907360 -10.612527 130.522720
v 17.974949 -10.608854 130.451630
v 17.836370 -10.616385 130.590408
v 17.762148 -10.620418 130.654526
v 17.604734 -10.628972 130.771454
v 17.684874 -10.624617 130.714920
v 17.521921 -10.633471 130.823959
v 17.168016 -10.652702 130.991592
v 16.980474 -10.662893 131.048569
v 17.074944 -10.657760 131.022385
v 17.259470 -10.647733 130.956268
v 17.349081 -10.642863 130.916489
v 17.436634 -10.638105 130.872345
v 16.788260 -10.673338 131.086853
v 16.884836 -10.668090 131.070084
v 16.593222 -10.683936 131.106094
v 16.690975 -10.678624 131.098877
v 16.495230 -10.689260 131.108505
v 8.499320 -11.123746 126.275475
v -31.441757 -13.294083 106.275475
v -31.441757 -13.294083 126.275475
v 16.658005 -13.684841 101.108505
v 18.070135 -13.608109 130.522720
v 18.201750 -13.600957 130.377289
v 18.137724 -13.604435 130.451630
v 18.318495 -13.594613 130.219650
v 18.262054 -13.597679 130.299911
v 17.847649 -13.620197 130.714920
v 17.767509 -13.624553 130.771454
v 17.924923 -13.615999 130.654526
v 17.999146 -13.611965 130.590408
v 17.684696 -13.629052 130.823959
v 17.599409 -13.633687 130.872345
v 17.511856 -13.638444 130.916489
v 18.503042 -13.584584 129.873871
v 18.370935 -13.591763 130.136719
v 18.419250 -13.589138 130.051300
v 18.463322 -13.586743 129.963623
v 17.422245 -13.643313 130.956268
v 17.330793 -13.648283 130.991592
v 17.047611 -13.663671 131.070084
v 16.951035 -13.668919 131.086853
v 17.143250 -13.658474 131.048569
v 17.237719 -13.653340 131.022385
v 18.645443 -13.576847 129.304535
v 18.538321 -13.582667 129.782288
v 18.569067 -13.580997 129.689072
v 18.595211 -13.579576 129.594467
v 18.616686 -13.578409 129.498688
v 18.633444 -13.577498 129.401962
v 16.755997 -13.679517 131.106094
v 16.658005 -13.684841 131.108505
v 16.853750 -13.674205 131.098877
v 18.652655 -13.576455 129.206650
v 8.662095 -14.119327 126.275475
v 18.652655 -13.576455 103.010368
v 18.633444 -13.577498 102.815048
v 18.645443 -13.576847 102.912476
v 18.616686 -13.578409 102.718330
v 18.569067 -13.580997 102.527939
v 18.595211 -13.579576 102.622543
v 18.538321 -13.582667 102.434731
v 18.503042 -13.584584 102.343140
v 18.419250 -13.589138 102.165710
v 18.463322 -13.586743 102.253395
v 18.318495 -13.594613 101.997368
v 18.370935 -13.591763 102.080299
v 18.262054 -13.597679 101.917107
v 18.201750 -13.600957 101.839722
v 18.070135 -13.608109 101.694290
v 18.137724 -13.604435 101.765388
v 17.999146 -13.611965 101.626602
v 17.924923 -13.615999 101.562485
v 17.767509 -13.624553 101.445572
v 17.847649 -13.620197 101.502090
v 17.684696 -13.629052 101.393051
v 17.330793 -13.648283 101.225418
v 17.143250 -13.658474 101.168442
v 17.237719 -13.653340 101.194626
v 17.422245 -13.643313 101.260750
v 17.511856 -13.638444 101.300529
v 17.599409 -13.633687 101.344666
v 16.951035 -13.668919 101.130157
v 17.047611 -13.663671 101.146935
v 16.755997 -13.679517 101.110916
v 16.853750 -13.674205 101.118141
v 8.662095 -14.119327 106.275475
v -31.278982 -16.289663 126.275475
v -31.278982 -16.289663 106.275475
v 18.655060 -13.576324 103.108505
v 18.492285 -10.580744 129.108505
v 18.655060 -13.576324 129.108505
v 18.492285 -10.580744 103.108505
vn -0.054258 0.998527 0.000000
vn -0.054258 0.998527 -0.000000
vn -0.054264 0.998527 0.000000
vn -0.054258 0.998527 0.000000
vn -0.000000 -0.000000 -1.000000
vn 0.000000 0.000000 -1.000000
vn 0.000000 0.000000 -1.000000
vn 0.000000 0.000000 -1.000000
vn 0.000000 0.000000 -1.000000
vn 0.000000 0.000000 -1.000000
vn 0.000000 0.000000 -1.000000
vn -0.000000 -0.000000 -1.000000
vn -0.000000 -0.000000 -1.000000
vn -0.000000 -0.000000 -1.000000
vn -0.000000 -0.000000 -1.000000
vn -0.000000 -0.000000 -1.000000
vn -0.000000 -0.000000 -1.000000
vn 0.000000 0.000000 -1.000000
vn 0.000000 0.000000 -1.000000
vn 0.000000 0.000000 -1.000000
vn -0.000000 -0.000000 -1.000000
vn 0.000000 0.000000 -1.000000
vn -0.000000 -0.000000 -1.000000
vn -0.000000 -0.000000 -1.000000
vn -0.000000 -0.000000 -1.000000
vn -0.000000 -0.000000 -1.000000
vn 0.000000 0.000000 -1.000000
vn 0.000000 0.000000 -1.000000
vn -0.000000 0.000000 -1.000000
vn 0.000000 0.000000 -1.000000
vn 0.000000 0.000000 -1.000000
vn 0.000000 0.000000 -1.000000
vn 0.000000 0.000000 -1.000000
vn -0.000000 -0.000000 -1.000000
vn -0.000000 -0.000000 -1.000000
vn -0.000000 0.000000 -1.000000
vn -0.000000 0.000000 -1.000000
vn -0.000000 0.000000 -1.000000
vn -0.000000 0.000000 -1.000000
vn -0.000000 0.000000 -1.000000
vn -0.000000 0.000000 -1.000000
vn -0.000000 0.000000 -1.000000
vn -0.000000 0.000000 -1.000000
vn -0.000000 0.000000 -1.000000
vn -0.000000 0.000000 -1.000000
vn -0.000000 0.000000 -1.000000
vn -0.000000 0.000000 -1.000000
vn -0.000000 0.000000 -1.000000
vn -0.000000 0.000000 -1.000000
vn -0.000000 0.000000 -1.000000
vn -0.000000 0.000000 -1.000000
vn -0.000000 0.000000 -1.000000
vn -0.000000 0.000000 -1.000000
vn -0.000000 0.000000 -1.000000
vn -0.000000 0.000000 -1.000000
vn -0.000000 0.000000 -1.000000
vn -0.000000 0.000000 -1.000000
vn -0.000000 0.000000 -1.000000
vn -0.000000 0.000000 -1.000000
vn -0.000000 0.000000 -1.000000
vn -0.000000 0.000000 -1.000000
vn -0.000000 0.000000 -1.000000
vn -0.000000 0.000000 -1.000000
vn -0.000000 0.000000 -1.000000
vn -0.000000 0.000000 -1.000000
vn -0.000000 0.000000 -1.000000
vn -0.000000 0.000000 -1.000000
vn 0.000000 0.000000 -1.000000
vn 0.000000 0.000000 -1.000000
vn 0.000000 0.000000 -1.000000
vn -0.000000 0.000000 -1.000000
vn 0.000000 0.000000 -1.000000
vn -0.000000 -0.000000 -1.000000
vn -0.000000 0.000000 -1.000000
vn -0.000000 0.000000 -1.000000
vn 0.000000 0.000000 -1.000000
vn -0.029748 0.999557 -0.000000
vn -0.029748 0.999557 0.000000
vn 0.019352 0.999813 0.000000
vn 0.019352 0.999813 0.000000
vn 0.068374 0.997660 0.000000
vn 0.068374 0.997660 0.000000
vn 0.117261 0.993101 -0.000000
vn 0.117261 0.993101 0.000000
vn 0.165836 0.986153 -0.000000
vn 0.165836 0.986153 0.000000
vn 0.214023 0.976829 0.000000
vn 0.214023 0.976829 0.000000
vn 0.261701 0.965149 -0.000000
vn 0.308745 0.951145 -0.000000
vn 0.261701 0.965149 0.000000
vn 0.308745 0.951145 0.000000
vn 0.355043 0.934850 0.000000
vn 0.355043 0.934850 0.000000
vn 0.400483 0.916304 -0.000000
vn 0.400483 0.916304 0.000000
vn 0.444962 0.895549 -0.000000
vn 0.444962 0.895549 0.000000
vn 0.488371 0.872636 -0.000000
vn 0.488371 0.872636 0.000000
vn 0.530600 0.847623 0.000000
vn 0.530600 0.847623 0.000000
vn 0.571552 0.820566 0.000000
vn 0.571552 0.820566 0.000000
vn 0.611121 0.791538 0.000000
vn 0.611121 0.791538 0.000000
vn 0.649229 0.760593 -0.000000
vn 0.685761 0.727827 -0.000000
vn 0.649229 0.760593 0.000000
vn 0.720663 0.693286 -0.000000
vn 0.685761 0.727827 0.000000
vn 0.720663 0.693286 -0.000000
vn 0.753799 0.657105 -0.000000
vn 0.753799 0.657105 0.000000
vn 0.785142 0.619316 0.000000
vn 0.785142 0.619316 0.000000
vn 0.814575 0.580058 0.000000
vn 0.814575 0.580058 0.000000
vn 0.842062 0.539380 0.000000
vn 0.867515 0.497411 -0.000000
vn 0.842062 0.539380 0.000000
vn 0.867515 0.497411 0.000000
vn 0.890873 0.454253 -0.000000
vn 0.912095 0.409978 -0.000000
vn 0.890873 0.454253 0.000000
vn 0.912095 0.409978 0.000000
vn 0.931110 0.364738 0.000000
vn 0.931110 0.364738 0.000000
vn 0.947885 0.318614 0.000000
vn 0.962373 0.271730 -0.000000
vn 0.947885 0.318614 0.000000
vn 0.962373 0.271730 0.000000
vn 0.974551 0.224164 0.000000
vn 0.974551 0.224164 0.000000
vn 0.984377 0.176075 0.000000
vn 0.984377 0.176075 0.000000
vn 0.991829 0.127577 0.000000
vn 0.991829 0.127577 0.000000
vn 0.996894 0.078750 0.000000
vn 0.996894 0.078750 0.000000
vn -0.998527 -0.054258 0.000000
vn -0.998527 -0.054258 -0.000000
vn 0.000000 0.000000 1.000000
vn 0.000000 0.000000 1.000000
vn 0.000000 0.000000 1.000000
vn 0.000000 0.000000 1.000000
vn 0.000000 0.000000 1.000000
vn 0.000000 0.000000 1.000000
vn 0.000000 0.000000 1.000000
vn 0.000000 0.000000 1.000000
vn 0.000000 0.000000 1.000000
vn 0.000000 0.000000 1.000000
vn 0.000000 0.000000 1.000000
vn 0.000000 0.000000 1.000000
vn 0.000000 0.000000 1.000000
vn 0.000000 0.000000 1.000000
vn 0.000000 0.000000 1.000000
vn 0.000000 0.000000 1.000000
vn 0.000000 0.000000 1.000000
vn 0.000000 0.000000 1.000000
vn 0.000000 0.000000 1.000000
vn 0.000000 0.000000 1.000000
vn 0.000000 0.000000 1.000000
vn 0.000000 0.000000 1.000000
vn 0.000000 0.000000 1.000000
vn 0.000000 0.000000 1.000000
vn -0.000000 0.000000 1.000000
vn 0.000000 0.000000 1.000000
vn 0.000000 0.000000 1.000000
vn 0.000000 0.000000 1.000000
vn 0.000000 0.000000 1.000000
vn 0.000000 0.000000 1.000000
vn 0.000000 0.000000 1.000000
vn 0.000000 0.000000 1.000000
vn 0.000000 0.000000 1.000000
vn 0.000000 0.000000 1.000000
vn 0.000000 0.000000 1.000000
vn 0.000000 0.000000 1.000000
vn 0.000000 0.000000 1.000000
vn 0.000000 0.000000 1.000000
vn 0.000000 0.000000 1.000000
vn 0.000000 0.000000 1.000000
vn 0.000000 0.000000 1.000000
vn 0.000000 0.000000 1.000000
vn 0.000000 0.000000 1.000000
vn 0.000000 0.000000 1.000000
vn 0.000000 0.000000 1.000000
vn 0.000000 0.000000 1.000000
vn 0.000000 0.000000 1.000000
vn 0.000000 0.000000 1.000000
vn 0.000000 0.000000 1.000000
vn 0.000000 0.000000 1.000000
vn 0.000000 0.000000 1.000000
vn 0.000000 0.000000 1.000000
vn 0.000000 0.000000 1.000000
vn 0.000000 0.000000 1.000000
vn 0.000000 0.000000 1.000000
vn 0.000000 0.000000 1.000000
vn 0.000000 0.000000 1.000000
vn 0.000000 0.000000 1.000000
vn 0.000000 0.000000 1.000000
vn 0.000000 0.000000 1.000000
vn 0.000000 0.000000 1.000000
vn 0.000000 0.000000 1.000000
vn 0.000000 0.000000 1.000000
vn -0.000000 0.000000 1.000000
vn 0.000000 0.000000 1.000000
vn 0.000000 -0.000000 1.000000
vn 0.000000 0.000000 1.000000
vn -0.000000 0.000000 1.000000
vn 0.000000 0.000000 1.000000
vn 0.000000 -0.000000 1.000000
vn 0.000000 0.000000 1.000000
vn 0.000000 -0.000000 1.000000
vn 0.000000 0.000000 1.000000
vn 0.000000 0.000000 1.000000
vn 0.000000 0.000000 1.000000
vn -0.000000 0.000000 1.000000
vn 0.000000 0.000000 -1.000000
vn -0.000000 0.000000 -1.000000
vn 0.998527 0.054258 -0.000000
vn 0.998527 0.054258 -0.000000
vn 0.054258 -0.998527 0.000000
vn 0.054258 -0.998527 -0.000000
vn 0.999558 0.029728 -0.000000
vn 0.999558 0.029728 0.000000
vn 0.999813 -0.019333 -0.000000
vn 0.999813 -0.019333 0.000000
vn 0.997658 -0.068395 0.000000
vn 0.997658 -0.068395 0.000000
vn 0.993103 -0.117241 0.000000
vn 0.993103 -0.117241 0.000000
vn 0.986153 -0.165836 0.000000
vn 0.986153 -0.165836 0.000000
vn 0.976829 -0.214020 -0.000000
vn 0.976829 -0.214020 0.000000
vn 0.965148 -0.261703 0.000000
vn 0.965148 -0.261703 0.000000
vn 0.951146 -0.308742 -0.000000
vn 0.934849 -0.355046 0.000000
vn 0.951146 -0.308742 0.000000
vn 0.934849 -0.355046 0.000000
vn 0.916299 -0.400495 0.000000
vn 0.916299 -0.400495 0.000000
vn 0.895557 -0.444947 0.000000
vn 0.895557 -0.444947 -0.000000
vn 0.872636 -0.488371 0.000000
vn 0.847623 -0.530600 0.000000
vn 0.872636 -0.488371 0.000000
vn 0.847623 -0.530600 -0.000000
vn 0.820569 -0.571547 0.000000
vn 0.820569 -0.571547 0.000000
vn 0.791529 -0.611131 -0.000000
vn 0.791529 -0.611131 0.000000
vn 0.760594 -0.649228 -0.000000
vn 0.760594 -0.649228 0.000000
vn 0.727817 -0.685771 -0.000000
vn 0.727817 -0.685771 0.000000
vn 0.693295 -0.720653 -0.000000
vn 0.693295 -0.720653 0.000000
vn 0.657100 -0.753803 -0.000000
vn 0.657100 -0.753803 0.000000
vn 0.619326 -0.785134 0.000000
vn 0.619326 -0.785134 0.000000
vn 0.580051 -0.814580 0.000000
vn 0.580051 -0.814580 0.000000
vn 0.539387 -0.842058 0.000000
vn 0.539387 -0.842058 0.000000
vn 0.497411 -0.867515 0.000000
vn 0.497411 -0.867515 0.000000
vn 0.454241 -0.890879 -0.000000
vn 0.454241 -0.890879 0.000000
vn 0.409995 -0.912088 0.000000
vn 0.409995 -0.912088 0.000000
vn 0.364741 -0.931109 0.000000
vn 0.318611 -0.947886 0.000000
vn 0.364741 -0.931109 0.000000
vn 0.318611 -0.947886 -0.000000
vn 0.271712 -0.962379 0.000000
vn 0.224173 -0.974549 0.000000
vn 0.271712 -0.962379 0.000000
vn 0.224173 -0.974549 -0.000000
vn 0.176077 -0.984376 0.000000
vn 0.176077 -0.984376 0.000000
vn 0.127566 -0.991830 -0.000000
vn 0.127566 -0.991830 0.000000
vn 0.078742 -0.996895 -0.000000
vn 0.078742 -0.996895 0.000000
vn -0.998527 -0.054258 -0.000000
vn -0.998527 -0.054258 -0.000000
vn 0.054258 -0.998527 0.000000
vn 0.054258 -0.998527 0.000000
vn 0.998527 0.054258 0.000000
vn 0.998527 0.054258 -0.000000
vn -0.054258 0.998527 0.000000
vn -0.054258 0.998527 0.000000
vn 0.998527 0.054259 0.000010
vn 0.998527 0.054250 -0.000009
vn 0.998527 0.054266 0.000008
vn 0.998527 0.054256 -0.000002
vn 0.998527 0.054253 -0.000006
vn 0.998527 0.054255 -0.000004
vn 0.998526 0.054268 0.000009
vn 0.998527 0.054261 0.000003
vn 0.998527 0.054254 -0.000004
vn 0.998526 0.054266 0.000007
vn 0.998527 0.054260 0.000002
vn 0.998527 0.054255 -0.000004
vn 0.998527 0.054258 -0.000001
vn 0.998527 0.054260 0.000003
vn 0.998527 0.054253 -0.000004
vn 0.998527 0.054250 -0.000007
vn 0.998526 0.054267 0.000010
vn 0.998527 0.054258 -0.000000
vn 0.998527 0.054248 -0.000014
vn 0.998526 0.054276 0.000013
vn 0.998527 0.054260 0.000002
vn 0.998527 0.054257 -0.000001
vn 0.998527 0.054263 0.000007
vn 0.998527 0.054253 -0.000004
vn 0.998527 0.054260 0.000002
vn 0.998527 0.054264 0.000008
vn 0.998528 0.054246 -0.000018
vn 0.998527 0.054256 -0.000004
vn 0.998527 0.054261 0.000004
vn 0.998521 0.054364 0.000162
vn 0.998527 0.054261 0.000004
vn 0.998527 0.054258 0.000000
vn 0.998527 0.054266 -0.000007
vn 0.998527 0.054254 0.000005
vn 0.998527 0.054254 0.000005
vn 0.998527 0.054256 0.000002
vn 0.998527 0.054263 -0.000006
vn 0.998527 0.054253 0.000007
vn 0.998527 0.054266 -0.000009
vn 0.998527 0.054255 0.000004
vn 0.998527 0.054261 -0.000003
vn 0.998527 0.054260 -0.000002
vn 0.998527 0.054255 0.000005
vn 0.998527 0.054261 -0.000003
vn 0.998527 0.054254 0.000007
vn 0.998527 0.054261 -0.000004
vn 0.998527 0.054260 -0.000002
vn 0.998527 0.054263 -0.000007
vn 0.998527 0.054260 -0.000001
vn 0.998527 0.054249 0.000016
vn 0.998527 0.054263 -0.000007
vn 0.998527 0.054256 0.000005
vn 0.998525 0.054296 0.000227
vn 0.998523 0.054329 0.000564
vn 0.998529 0.054218 -0.000340
vn 0.998512 0.054519 0.001040
vn 0.998529 0.054230 -0.000114
vn 0.998528 0.054246 -0.000057
vn 0.998527 0.054257 0.000006
vn 0.998533 0.054145 -0.000211
vn 0.998520 0.054386 0.000300
vn 0.998528 0.054247 -0.000031
vn 0.998528 0.054241 -0.000054
vn 0.998526 0.054276 0.000061
vn 0.998528 0.054244 -0.000035
vn 0.998555 0.053730 -0.000599
vn 0.998528 0.054247 -0.000028
vn 0.998528 0.054240 0.000000
vn 0.998529 0.054222 -0.000028
vn 0.998527 0.054260 0.000001
vn 0.998540 0.054016 -0.000189
vn 0.998527 0.054262 0.000010
vn 0.998530 0.054206 -0.000034
vn 0.998467 0.055344 0.000581
vn 0.998527 0.054253 -0.000005
vn 0.998531 0.054176 -0.000045
vn 0.998508 0.054614 0.000117
vn 0.998509 0.054584 0.000106
vn 0.998528 0.054245 -0.000006
vn 0.998517 0.054436 0.000019
vn 0.998527 0.054254 -0.000005
vn 0.998529 0.054222 -0.000013
vn 0.998589 0.053113 -0.000057
vn 0.998527 0.054251 0.000009
vn 0.998527 0.054255 0.000004
vn 0.998527 0.054266 -0.000009
vn 0.998527 0.054260 -0.000001
vn 0.998527 0.054256 0.000004
vn 0.998527 0.054258 0.000001
vn 0.998527 0.054258 0.000001
vn 0.998527 0.054258 -0.000000
vn 0.998527 0.054264 -0.000008
vn 0.998527 0.054255 0.000005
vn 0.998527 0.054258 0.000001
vn 0.998527 0.054258 -0.000001
vn 0.998527 0.054258 0.000000
vn 0.998527 0.054259 0.000000
vn 0.998526 0.054269 -0.000010
vn 0.998527 0.054254 0.000004
vn 0.998527 0.054250 0.000008
vn 0.998527 0.054258 -0.000000
vn 0.998527 0.054260 -0.000001
vn 0.998527 0.054254 0.000004
vn 0.998527 0.054258 0.000001
vn 0.998526 0.054272 -0.000014
vn 0.998527 0.054258 -0.000000
vn 0.998527 0.054252 0.000008
vn 0.998527 0.054255 0.000004
vn 0.998527 0.054258 0.000001
vn 0.998527 0.054265 -0.000008
vn 0.998527 0.054255 0.000005
vn 0.998527 0.054266 -0.000010
vn 0.998527 0.054257 0.000003
vn 0.998527 0.054251 0.000010
vn 0.998527 0.054265 -0.000009
vn 0.998527 0.054254 0.000007
vn 0.998527 0.054255 0.000005
vn 0.998527 0.054261 -0.000004
vn 0.998527 0.054260 -0.000002
vn 0.998527 0.054255 0.000005
vn 0.998527 0.054260 -0.000003
vn 0.998527 0.054266 -0.000013
vn 0.998527 0.054249 0.000017
vn 0.998527 0.054260 -0.000003
vn 0.998527 0.054263 -0.000008
vn 0.998527 0.054260 -0.000003
vn 0.998527 0.054264 -0.000010
vn 0.998528 0.054247 0.000022
vn 0.998527 0.054256 0.000005
vn 0.998527 0.054261 -0.000004
vn 0.998527 0.054259 0.000000
vn 0.998521 0.054366 -0.000221
vn 0.998527 0.054261 0.000005
vn 0.998527 0.054256 -0.000005
vn 0.998527 0.054263 0.000009
vn 0.998527 0.054249 -0.000018
vn 0.998527 0.054259 0.000002
vn 0.998527 0.054263 0.000009
vn 0.998527 0.054260 0.000002
vn 0.998527 0.054261 0.000005
vn 0.998527 0.054254 -0.000008
vn 0.998527 0.054260 0.000004
vn 0.998527 0.054255 -0.000006
vn 0.998527 0.054260 0.000002
vn 0.998527 0.054260 0.000003
vn 0.998527 0.054256 -0.000004
vn 0.998527 0.054258 0.000000
vn 0.998527 0.054265 0.000010
vn 0.998527 0.054254 -0.000007
vn 0.998527 0.054262 0.000006
vn 0.998527 0.054256 -0.000002
vn 0.998527 0.054255 -0.000005
vn 0.998527 0.054255 -0.000005
vn 0.998527 0.054264 0.000008
vn 0.998527 0.054258 -0.000001
vn 0.998527 0.054255 -0.000004
vn 0.998527 0.054265 0.000008
vn 0.998527 0.054258 0.000000
vn 0.998527 0.054257 -0.000001
vn 0.998527 0.054257 -0.000001
vn 0.998527 0.054255 -0.000004
vn 0.998527 0.054259 0.000001
vn 0.998527 0.054267 0.000009
vn 0.998527 0.054254 -0.000004
vn 0.998527 0.054250 -0.000009
vn 0.998527 0.054259 -0.000000
vn 0.998495 0.054837 0.000584
vn 0.998527 0.054258 0.000001
vn 0.998528 0.054240 0.000000
vn 0.998527 0.054258 0.000000
vn 0.998526 0.054274 0.000010
vn 0.998527 0.054252 -0.000004
vn 0.998528 0.054247 -0.000008
vn 0.998527 0.054260 0.000001
vn 0.998527 0.054258 -0.000000
vn 0.054258 -0.998527 0.000000
vn 0.054258 -0.998527 -0.000000
vn -0.998540 -0.054012 0.000247
vn -0.998532 -0.054167 0.000092
vn -0.998526 -0.054271 -0.000010
vn -0.998552 -0.053788 0.000699
vn -0.998526 -0.054267 -0.000005
vn -0.998525 -0.054301 -0.000038
vn -0.998527 -0.054249 0.000005
vn -0.998526 -0.054273 -0.000012
vn -0.998522 -0.054358 -0.000066
vn -0.998533 -0.054145 0.000212
vn -0.998525 -0.054291 -0.000006
vn -0.998535 -0.054113 0.000380
vn -0.998514 -0.054494 -0.000686
vn -0.998526 -0.054268 -0.000020
vn -0.998527 -0.054263 -0.000009
vn -0.998551 -0.053819 0.000146
vn -0.998526 -0.054266 -0.000017
vn -0.998529 -0.054224 0.000171
vn -0.998522 -0.054354 -0.000481
vn -0.998493 -0.054873 -0.000135
vn -0.998535 -0.054102 0.000039
vn -0.998514 -0.054497 -0.000060
vn -0.998528 -0.054242 0.000219
vn -0.998526 -0.054277 -0.000508
vn -0.998503 -0.054690 -0.000021
vn -0.998525 -0.054293 -0.000001
vn -0.998528 -0.054232 0.000003
vn -0.998527 -0.054259 -0.000001
vn -0.998527 -0.054258 0.000001
vn -0.998527 -0.054257 0.000000
vn -0.998525 -0.054298 -0.000010
vn -0.998527 -0.054265 0.000009
vn -0.998527 -0.054251 -0.000009
vn -0.998527 -0.054256 -0.000003
vn -0.998527 -0.054254 -0.000006
vn -0.998526 -0.054268 0.000010
vn -0.998526 -0.054268 0.000012
vn -0.998527 -0.054254 -0.000005
vn -0.998527 -0.054248 -0.000014
vn -0.998527 -0.054260 0.000002
vn -0.998527 -0.054258 -0.000000
vn -0.998527 -0.054252 -0.000007
vn -0.998526 -0.054267 0.000012
vn -0.998527 -0.054258 -0.000001
vn -0.998528 -0.054248 -0.000015
vn -0.998526 -0.054266 0.000011
vn -0.998527 -0.054253 -0.000008
vn -0.998527 -0.054266 0.000012
vn -0.998527 -0.054258 0.000000
vn -0.998527 -0.054261 0.000004
vn -0.998527 -0.054257 -0.000001
vn -0.998528 -0.054246 -0.000019
vn -0.998527 -0.054258 -0.000001
vn -0.998527 -0.054263 0.000008
vn -0.998526 -0.054269 0.000013
vn -0.998527 -0.054259 0.000002
vn -0.998527 -0.054259 0.000001
vn -0.998527 -0.054264 0.000009
vn -0.998527 -0.054251 -0.000009
vn -0.998528 -0.054247 -0.000020
vn -0.998527 -0.054255 -0.000004
vn -0.998526 -0.054273 0.000025
vn -0.998527 -0.054267 0.000010
vn -0.998528 -0.054242 -0.000028
vn -0.998521 -0.054364 0.000184
vn -0.998527 -0.054261 0.000005
vn -0.998527 -0.054258 -0.000000
vn -0.998527 -0.054256 0.000005
vn -0.998527 -0.054263 -0.000008
vn -0.998527 -0.054264 -0.000010
vn -0.998527 -0.054260 -0.000003
vn -0.998527 -0.054249 0.000016
vn -0.998527 -0.054260 -0.000002
vn -0.998527 -0.054261 -0.000005
vn -0.998527 -0.054254 0.000008
vn -0.998527 -0.054260 -0.000003
vn -0.998527 -0.054255 0.000005
vn -0.998527 -0.054260 -0.000002
vn -0.998527 -0.054261 -0.000003
vn -0.998527 -0.054255 0.000004
vn -0.998527 -0.054265 -0.000010
vn -0.998527 -0.054253 0.000007
vn -0.998527 -0.054263 -0.000006
vn -0.998527 -0.054256 0.000002
vn -0.998527 -0.054254 0.000005
vn -0.998526 -0.054267 -0.000010
vn -0.998527 -0.054252 0.000007
vn -0.998527 -0.054258 0.000001
vn -0.998527 -0.054255 0.000004
vn -0.998527 -0.054265 -0.000007
vn -0.998527 -0.054258 -0.000000
vn -0.998527 -0.054257 0.000001
vn -0.998527 -0.054258 0.000001
vn -0.998527 -0.054254 0.000004
vn -0.998527 -0.054259 -0.000001
vn -0.998526 -0.054268 -0.000009
vn -0.998527 -0.054254 0.000004
vn -0.998527 -0.054249 0.000009
vn -0.998527 -0.054258 0.000000
vn -0.998537 -0.054078 0.000182
vn -0.998527 -0.054258 0.000000
vn -0.998526 -0.054269 -0.000010
vn -0.998527 -0.054254 0.000004
vn -0.998527 -0.054250 0.000009
vn -0.998527 -0.054259 -0.000001
vn -0.998526 -0.054270 -0.000013
vn -0.998527 -0.054258 0.000001
vn -0.998527 -0.054257 0.000001
vn -0.998527 -0.054259 0.000000
vn -0.998527 -0.054252 0.000008
vn -0.998526 -0.054267 -0.000011
vn -0.998527 -0.054258 0.000001
vn -0.998527 -0.054253 0.000008
vn -0.998527 -0.054254 0.000005
vn -0.998527 -0.054266 -0.000011
vn -0.998527 -0.054257 0.000003
vn -0.998527 -0.054251 0.000010
vn -0.998527 -0.054265 -0.000010
vn -0.998527 -0.054254 0.000007
vn -0.998527 -0.054267 -0.000013
vn -0.998527 -0.054249 0.000015
vn -0.998527 -0.054260 -0.000002
vn -0.998526 -0.054266 -0.000013
vn -0.998527 -0.054249 0.000017
vn -0.998527 -0.054266 -0.000013
vn -0.998527 -0.054261 -0.000005
vn -0.998528 -0.054247 0.000022
vn -0.998527 -0.054263 -0.000009
vn -0.998527 -0.054260 -0.000002
vn -0.998527 -0.054264 -0.000010
vn -0.998528 -0.054247 0.000023
vn -0.998526 -0.054273 -0.000029
vn -0.998528 -0.054242 0.000034
vn -0.998521 -0.054364 0.000212
vn -0.998527 -0.054258 -0.000000
vn -0.998527 -0.054249 -0.000009
vn -0.998527 -0.054254 -0.000004
vn -0.998526 -0.054268 0.000009
vn -0.998527 -0.054259 0.000001
vn -0.998527 -0.054254 -0.000004
vn -0.998527 -0.054258 -0.000001
vn -0.998527 -0.054257 -0.000001
vn -0.998527 -0.054258 0.000000
vn -0.998527 -0.054265 0.000008
vn -0.998527 -0.054255 -0.000004
vn -0.998527 -0.054258 -0.000001
vn -0.998527 -0.054252 -0.000007
vn -0.998526 -0.054267 0.000010
vn -0.998527 -0.054254 -0.000005
vn -0.998527 -0.054256 -0.000002
vn -0.998527 -0.054263 0.000006
vn -0.998527 -0.054253 -0.000007
vn -0.998527 -0.054265 0.000010
vn -0.998527 -0.054255 -0.000004
vn -0.998527 -0.054261 0.000003
vn -0.998527 -0.054260 0.000002
vn -0.998527 -0.054255 -0.000005
vn -0.998527 -0.054260 0.000003
vn -0.998527 -0.054254 -0.000008
vn -0.998527 -0.054261 0.000005
vn -0.998527 -0.054260 0.000002
vn -0.998527 -0.054249 -0.000016
vn -0.998527 -0.054260 0.000003
vn -0.998527 -0.054264 0.000010
vn -0.998527 -0.054263 0.000008
vn -0.998527 -0.054256 -0.000005
vn -0.998527 -0.054258 -0.000000
vn -0.998527 -0.054261 0.000005
vn -0.998527 -0.054258 0.000000
vn -0.054258 0.998527 0.000000
vn -0.054258 0.998527 -0.000000
vn 0.000000 0.000000 1.000000
vn 0.000000 -0.000000 1.000000
vn -0.054242 0.998226 0.024541
vn -0.054242 0.998226 0.024538
vn -0.054111 0.995822 0.073561
vn -0.054111 0.995821 0.073563
vn -0.053850 0.991017 0.122414
vn -0.053850 0.991017 0.122414
vn -0.053460 0.983829 0.170945
vn -0.053460 0.983828 0.170953
vn -0.052940 0.974264 0.219106
vn -0.052940 0.974266 0.219096
vn -0.052293 0.962354 0.266722
vn -0.052293 0.962353 0.266724
vn -0.051519 0.948119 0.313713
vn -0.051519 0.948119 0.313713
vn -0.050623 0.931632 0.359860
vn -0.050623 0.931633 0.359858
vn -0.049603 0.912854 0.405262
vn -0.049603 0.912854 0.405262
vn -0.048466 0.891927 0.449575
vn -0.048466 0.891926 0.449576
vn -0.047208 0.868783 0.492937
vn -0.047208 0.868784 0.492936
vn -0.045840 0.843599 0.535014
vn -0.045840 0.843599 0.535014
vn -0.044362 0.816393 0.575790
vn -0.044361 0.816389 0.575796
vn -0.042775 0.787201 0.615211
vn -0.041084 0.756069 0.653201
vn -0.042776 0.787206 0.615205
vn -0.041084 0.756069 0.653201
vn -0.039300 0.723232 0.689486
vn -0.039299 0.723226 0.689493
vn -0.037413 0.688517 0.724254
vn -0.037413 0.688523 0.724249
vn -0.035440 0.652205 0.757214
vn -0.033381 0.614324 0.788347
vn -0.035440 0.652205 0.757214
vn -0.033381 0.614324 0.788347
vn -0.031241 0.574926 0.817609
vn -0.031240 0.574920 0.817613
vn -0.029029 0.534227 0.844842
vn -0.026744 0.492175 0.870086
vn -0.029030 0.534232 0.844839
vn -0.026744 0.492175 0.870086
vn -0.024392 0.448888 0.893255
vn -0.024392 0.448888 0.893255
vn -0.021987 0.404638 0.914213
vn -0.021987 0.404637 0.914213
vn -0.019532 0.359455 0.932958
vn -0.019532 0.359455 0.932958
vn -0.017020 0.313217 0.949529
vn -0.017020 0.313217 0.949529
vn -0.014473 0.266340 0.963770
vn -0.014472 0.266340 0.963771
vn -0.011884 0.218697 0.975720
vn -0.009277 0.170733 0.985274
vn -0.011884 0.218698 0.975720
vn -0.009277 0.170731 0.985274
vn -0.006638 0.122152 0.992489
vn -0.006638 0.122153 0.992489
vn -0.003998 0.073570 0.997282
vn -0.003998 0.073569 0.997282
vn -0.001333 0.024523 0.999698
vn -0.001333 0.024523 0.999698
vn -0.054241 0.998528 -0.000015
vn -0.054213 0.998529 -0.000034
vn -0.054257 0.998527 -0.000001
vn -0.054352 0.998522 0.000119
vn -0.054301 0.998525 0.000050
vn -0.054268 0.998526 0.000008
vn -0.054221 0.998529 -0.000049
vn -0.054341 0.998522 0.000156
vn -0.054267 0.998527 0.000005
vn -0.054130 0.998534 -0.000064
vn -0.054120 0.998534 -0.000069
vn -0.054259 0.998527 0.000001
vn -0.054261 0.998527 0.000003
vn -0.054267 0.998526 0.000017
vn -0.054279 0.998526 0.000103
vn -0.054249 0.998527 -0.000046
vn -0.054264 0.998527 0.000020
vn -0.054261 0.998527 0.000002
vn -0.054269 0.998526 0.000004
vn -0.054274 0.998526 0.000005
vn -0.054214 0.998529 -0.000007
vn -0.054331 0.998523 0.000013
vn -0.054424 0.998518 0.000027
vn -0.054252 0.998527 -0.000115
vn -0.054257 0.998527 -0.000003
vn -0.054259 0.998527 0.000001
vn -0.054258 0.998527 -0.000002
vn -0.054257 0.998527 -0.000008
vn -0.054256 0.998527 -0.000002
vn -0.054260 0.998527 0.000001
vn -0.054258 0.998527 -0.000002
vn -0.054258 0.998527 0.000000
vn -0.054258 0.998527 -0.000000
vn -0.054084 0.998536 0.000015
vn -0.054246 0.998528 -0.000001
vn -0.054295 0.998525 -0.000005
vn -0.054258 0.998527 -0.000001
vn -0.054100 0.998536 0.000038
vn -0.054266 0.998527 -0.000002
vn -0.054120 0.998534 0.000069
vn -0.054293 0.998525 -0.000013
vn -0.054261 0.998527 -0.000001
vn -0.054396 0.998519 -0.000087
vn -0.054217 0.998529 0.000021
vn -0.054264 0.998527 -0.000002
vn -0.054241 0.998528 0.000015
vn -0.054271 0.998526 -0.000012
vn -0.054274 0.998526 -0.000014
vn -0.054259 0.998527 -0.000001
vn -0.054256 0.998527 0.000002
vn -0.054352 0.998522 -0.000119
vn -0.054267 0.998526 -0.000005
vn -0.054249 0.998527 0.000005
vn -0.054285 0.998526 -0.000085
vn -0.054258 0.998527 0.000006
vn -0.054259 0.998527 0.000001
vn -0.054252 0.998527 0.000021
vn -0.054276 0.998526 -0.000041
vn -0.054260 0.998527 -0.000001
vn -0.054279 0.998526 -0.000103
vn -0.054258 0.998527 0.000000
vn -0.054264 0.998527 -0.000052
vn -0.054258 0.998527 0.000001
vn -0.054253 0.998527 0.000059
vn -0.054258 0.998527 -0.000000
vn -0.054258 0.998527 0.000000
vn -0.054258 0.998527 0.000000
vn -0.054258 0.998527 -0.000000
vn -0.054258 0.998527 0.000000
vn -0.054258 0.998527 0.000000
vn -0.054258 0.998527 0.000000
vn -0.054258 0.998527 0.000000
vn 0.000000 0.000000 -1.000000
vn -0.000000 0.000000 -1.000000
vn 0.054549 -0.998511 0.000264
vn 0.054547 -0.998511 0.000214
vn 0.054249 -0.998527 -0.000008
vn 0.054466 -0.998516 0.000281
vn 0.054180 -0.998531 -0.000106
vn 0.054329 -0.998523 0.000086
vn 0.054232 -0.998528 -0.000033
vn 0.054155 -0.998533 -0.000193
vn 0.054239 -0.998528 -0.000013
vn 0.054230 -0.998528 -0.000017
vn 0.054101 -0.998535 -0.000078
vn 0.054250 -0.998527 -0.000007
vn 0.054270 -0.998526 0.000022
vn 0.054270 -0.998526 0.000022
vn 0.054279 -0.998526 0.000103
vn 0.054249 -0.998527 -0.000046
vn 0.054266 -0.998527 0.000031
vn 0.054264 -0.998527 0.000003
vn 0.054260 -0.998527 0.000002
vn 0.054282 -0.998526 0.000007
vn 0.054200 -0.998530 -0.000010
vn 0.054345 -0.998522 0.000015
vn 0.054424 -0.998518 0.000027
vn 0.054252 -0.998527 -0.000115
vn 0.054257 -0.998527 -0.000003
vn 0.054258 -0.998527 -0.000000
vn 0.054258 -0.998527 -0.000004
vn 0.054257 -0.998527 -0.000006
vn 0.054257 -0.998527 -0.000001
vn 0.054259 -0.998527 0.000000
vn 0.054259 -0.998527 0.000003
vn 0.054258 -0.998527 0.000000
vn 0.054105 -0.998535 0.000012
vn 0.054225 -0.998529 0.000000
vn 0.054295 -0.998525 -0.000005
vn 0.054258 -0.998527 -0.000001
vn 0.054059 -0.998538 0.000049
vn 0.054272 -0.998526 -0.000003
vn 0.054101 -0.998535 0.000078
vn 0.054313 -0.998524 -0.000022
vn 0.054266 -0.998527 -0.000002
vn 0.054247 -0.998528 0.000008
vn 0.054249 -0.998527 0.000006
vn 0.054233 -0.998528 0.000008
vn 0.054549 -0.998511 -0.000265
vn 0.054157 -0.998532 0.000091
vn 0.054176 -0.998531 0.000074
vn 0.054263 -0.998527 -0.000002
vn 0.054314 -0.998524 -0.000051
vn 0.054466 -0.998516 -0.000281
vn 0.054257 -0.998527 0.000001
vn 0.054249 -0.998527 0.000005
vn 0.054291 -0.998525 -0.000105
vn 0.054251 -0.998527 0.000026
vn 0.054259 -0.998527 0.000001
vn 0.054279 -0.998526 -0.000054
vn 0.054246 -0.998528 0.000032
vn 0.054260 -0.998527 -0.000001
vn 0.054279 -0.998526 -0.000103
vn 0.054258 -0.998527 0.000000
vn 0.054264 -0.998527 -0.000052
vn 0.054258 -0.998527 0.000001
vn 0.054253 -0.998527 0.000059
vn 0.054258 -0.998527 -0.000000
vn 0.054258 -0.998527 0.000000
vn 0.054258 -0.998527 0.000000
vn 0.054258 -0.998527 0.000000
vn 0.054258 -0.998527 -0.000000
vn 0.054258 -0.998527 0.000000
vn 0.054259 -0.998527 -0.000000
vn 0.054258 -0.998527 0.000000
vn 0.054259 -0.998527 0.000000
vn -0.000000 0.000000 1.000000
vn 0.000000 0.000000 1.000000
vn 0.054242 -0.998226 -0.024541
vn 0.054242 -0.998226 -0.024542
vn 0.054111 -0.995821 -0.073567
vn 0.054111 -0.995821 -0.073567
vn 0.053850 -0.991018 -0.122407
vn 0.053850 -0.991018 -0.122408
vn 0.053460 -0.983826 -0.170962
vn 0.053460 -0.983826 -0.170962
vn 0.052940 -0.974265 -0.219099
vn 0.052940 -0.974266 -0.219098
vn 0.052293 -0.962354 -0.266720
vn 0.052293 -0.962354 -0.266720
vn 0.051520 -0.948129 -0.313683
vn 0.050623 -0.931619 -0.359893
vn 0.051520 -0.948129 -0.313683
vn 0.050623 -0.931619 -0.359893
vn 0.049604 -0.912862 -0.405243
vn 0.049604 -0.912863 -0.405242
vn 0.048465 -0.891910 -0.449608
vn 0.048465 -0.891910 -0.449609
vn 0.047210 -0.868806 -0.492896
vn 0.047210 -0.868806 -0.492896
vn 0.045840 -0.843607 -0.535001
vn 0.045840 -0.843608 -0.535000
vn 0.044361 -0.816379 -0.575810
vn 0.044361 -0.816379 -0.575810
vn 0.042775 -0.787193 -0.615222
vn 0.042775 -0.787192 -0.615223
vn 0.041085 -0.756093 -0.653173
vn 0.041085 -0.756093 -0.653173
vn 0.039296 -0.723167 -0.689555
vn 0.039296 -0.723167 -0.689554
vn 0.037414 -0.688537 -0.724236
vn 0.037414 -0.688537 -0.724235
vn 0.035440 -0.652200 -0.757218
vn 0.035440 -0.652200 -0.757218
vn 0.033381 -0.614322 -0.788349
vn 0.033381 -0.614322 -0.788349
vn 0.031243 -0.574967 -0.817580
vn 0.031243 -0.574968 -0.817579
vn 0.029029 -0.534224 -0.844845
vn 0.029029 -0.534224 -0.844845
vn 0.026743 -0.492165 -0.870091
vn 0.026743 -0.492165 -0.870091
vn 0.024395 -0.448937 -0.893231
vn 0.024394 -0.448936 -0.893231
vn 0.021988 -0.404651 -0.914207
vn 0.019527 -0.359364 -0.932993
vn 0.021988 -0.404652 -0.914207
vn 0.019527 -0.359364 -0.932993
vn 0.017020 -0.313220 -0.949528
vn 0.017020 -0.313219 -0.949528
vn 0.014472 -0.266336 -0.963772
vn 0.011887 -0.218757 -0.975707
vn 0.014472 -0.266336 -0.963772
vn 0.011887 -0.218757 -0.975707
vn 0.009276 -0.170709 -0.985278
vn 0.009276 -0.170709 -0.985278
vn 0.006642 -0.122235 -0.992479
vn 0.006642 -0.122235 -0.992479
vn 0.003991 -0.073450 -0.997291
vn 0.003991 -0.073450 -0.997291
vn 0.001332 -0.024509 -0.999699
vn 0.001332 -0.024509 -0.999699
vn 0.054258 -0.998527 0.000000
vn 0.054258 -0.998527 0.000000
vn 0.000000 -0.000000 -1.000000
vn 0.000000 0.000000 -1.000000
vn 0.001332 -0.024509 0.999699
vn 0.001332 -0.024509 0.999699
vn 0.003993 -0.073488 0.997288
vn 0.003993 -0.073488 0.997288
vn 0.006640 -0.122197 0.992484
vn 0.006640 -0.122197 0.992484
vn 0.009276 -0.170709 0.985278
vn 0.009276 -0.170709 0.985278
vn 0.011889 -0.218794 0.975699
vn 0.011889 -0.218794 0.975699
vn 0.014472 -0.266336 0.963772
vn 0.014472 -0.266336 0.963772
vn 0.017020 -0.313220 0.949528
vn 0.017020 -0.313219 0.949528
vn 0.019527 -0.359364 0.932993
vn 0.019527 -0.359364 0.932993
vn 0.021986 -0.404619 0.914221
vn 0.021986 -0.404619 0.914221
vn 0.024396 -0.448967 0.893215
vn 0.024396 -0.448968 0.893215
vn 0.026744 -0.492165 0.870091
vn 0.026743 -0.492165 0.870091
vn 0.029029 -0.534224 0.844845
vn 0.029029 -0.534224 0.844845
vn 0.031241 -0.574941 0.817598
vn 0.031241 -0.574942 0.817598
vn 0.033381 -0.614322 0.788349
vn 0.033381 -0.614322 0.788349
vn 0.035441 -0.652222 0.757199
vn 0.035441 -0.652222 0.757199
vn 0.037413 -0.688517 0.724255
vn 0.037413 -0.688516 0.724255
vn 0.039297 -0.723185 0.689535
vn 0.039297 -0.723186 0.689535
vn 0.041085 -0.756093 0.653173
vn 0.041085 -0.756093 0.653173
vn 0.042774 -0.787177 0.615241
vn 0.042774 -0.787178 0.615241
vn 0.044361 -0.816392 0.575792
vn 0.044361 -0.816392 0.575791
vn 0.045840 -0.843608 0.535000
vn 0.047210 -0.868806 0.492896
vn 0.045840 -0.843607 0.535001
vn 0.047210 -0.868806 0.492896
vn 0.048465 -0.891902 0.449624
vn 0.048465 -0.891902 0.449623
vn 0.049604 -0.912863 0.405242
vn 0.049604 -0.912862 0.405243
vn 0.050623 -0.931619 0.359893
vn 0.050623 -0.931619 0.359893
vn 0.051520 -0.948133 0.313671
vn 0.051520 -0.948133 0.313671
vn 0.052293 -0.962354 0.266720
vn 0.052293 -0.962354 0.266720
vn 0.052940 -0.974265 0.219099
vn 0.053460 -0.983826 0.170962
vn 0.052940 -0.974265 0.219098
vn 0.053460 -0.983826 0.170962
vn 0.053850 -0.991017 0.122411
vn 0.053850 -0.991017 0.122413
vn 0.054111 -0.995821 0.073567
vn 0.054111 -0.995821 0.073567
vn 0.054242 -0.998226 0.024541
vn 0.054242 -0.998226 0.024540
vn -0.001332 0.024509 -0.999699
vn -0.001332 0.024509 -0.999699
vn -0.003991 0.073450 -0.997291
vn -0.003991 0.073450 -0.997291
vn -0.006642 0.122235 -0.992479
vn -0.006642 0.122235 -0.992479
vn -0.009276 0.170708 -0.985278
vn -0.009276 0.170708 -0.985278
vn -0.011887 0.218759 -0.975706
vn -0.011887 0.218759 -0.975706
vn -0.014472 0.266335 -0.963772
vn -0.014472 0.266335 -0.963772
vn -0.017020 0.313220 -0.949528
vn -0.017020 0.313220 -0.949528
vn -0.019527 0.359363 -0.932993
vn -0.021988 0.404650 -0.914207
vn -0.019527 0.359364 -0.932993
vn -0.021988 0.404650 -0.914207
vn -0.024394 0.448935 -0.893231
vn -0.024394 0.448934 -0.893232
vn -0.026744 0.492167 -0.870090
vn -0.026744 0.492167 -0.870090
vn -0.029029 0.534222 -0.844846
vn -0.029029 0.534222 -0.844846
vn -0.031243 0.574971 -0.817577
vn -0.031243 0.574972 -0.817576
vn -0.033381 0.614321 -0.788349
vn -0.033381 0.614323 -0.788348
vn -0.035439 0.652195 -0.757222
vn -0.035439 0.652195 -0.757222
vn -0.037414 0.688539 -0.724233
vn -0.037414 0.688539 -0.724234
vn -0.039296 0.723167 -0.689554
vn -0.039296 0.723167 -0.689555
vn -0.041085 0.756092 -0.653174
vn -0.041085 0.756094 -0.653173
vn -0.042775 0.787190 -0.615225
vn -0.042775 0.787191 -0.615224
vn -0.044361 0.816382 -0.575807
vn -0.044361 0.816381 -0.575807
vn -0.045840 0.843607 -0.535000
vn -0.045840 0.843607 -0.535001
vn -0.047210 0.868807 -0.492896
vn -0.047210 0.868806 -0.492897
vn -0.048465 0.891911 -0.449607
vn -0.048465 0.891910 -0.449609
vn -0.049604 0.912862 -0.405244
vn -0.049603 0.912863 -0.405241
vn -0.050623 0.931619 -0.359894
vn -0.050623 0.931619 -0.359894
vn -0.051520 0.948129 -0.313683
vn -0.052293 0.962356 -0.266714
vn -0.051520 0.948129 -0.313684
vn -0.052293 0.962356 -0.266714
vn -0.052940 0.974264 -0.219107
vn -0.053459 0.983826 -0.170963
vn -0.052940 0.974263 -0.219109
vn -0.053460 0.983826 -0.170961
vn -0.053850 0.991019 -0.122401
vn -0.053850 0.991019 -0.122402
vn -0.054112 0.995821 -0.073569
vn -0.054242 0.998226 -0.024545
vn -0.054111 0.995821 -0.073566
vn -0.054242 0.998226 -0.024546
vn 0.000000 0.000000 1.000000
vn 0.000000 -0.000000 1.000000
vn -0.054258 0.998527 -0.000000
vn -0.054258 0.998527 0.000000
vn -0.054242 0.998226 0.024545
vn -0.054242 0.998226 0.024544
vn -0.054111 0.995821 0.073569
vn -0.054112 0.995821 0.073566
vn -0.053850 0.991018 0.122405
vn -0.053850 0.991018 0.122407
vn -0.053459 0.983826 0.170963
vn -0.053460 0.983826 0.170961
vn -0.052940 0.974264 0.219107
vn -0.052940 0.974263 0.219109
vn -0.052293 0.962356 0.266714
vn -0.052293 0.962356 0.266714
vn -0.051520 0.948133 0.313671
vn -0.051520 0.948133 0.313672
vn -0.050623 0.931619 0.359894
vn -0.050623 0.931619 0.359894
vn -0.049604 0.912863 0.405241
vn -0.049603 0.912862 0.405244
vn -0.048464 0.891902 0.449624
vn -0.048465 0.891903 0.449622
vn -0.047210 0.868807 0.492896
vn -0.047209 0.868806 0.492897
vn -0.045840 0.843607 0.535001
vn -0.045840 0.843607 0.535000
vn -0.044362 0.816394 0.575788
vn -0.044362 0.816394 0.575789
vn -0.042774 0.787176 0.615244
vn -0.042774 0.787176 0.615243
vn -0.041085 0.756094 0.653173
vn -0.041085 0.756092 0.653174
vn -0.039297 0.723186 0.689535
vn -0.039297 0.723185 0.689535
vn -0.037413 0.688519 0.724253
vn -0.037413 0.688518 0.724253
vn -0.035440 0.652218 0.757203
vn -0.035440 0.652217 0.757203
vn -0.033381 0.614323 0.788349
vn -0.033381 0.614321 0.788349
vn -0.031242 0.574946 0.817594
vn -0.031242 0.574945 0.817595
vn -0.029029 0.534222 0.844846
vn -0.026744 0.492167 0.870090
vn -0.029029 0.534222 0.844846
vn -0.026744 0.492167 0.870090
vn -0.024396 0.448966 0.893216
vn -0.024396 0.448965 0.893216
vn -0.021986 0.404618 0.914222
vn -0.021986 0.404617 0.914222
vn -0.019527 0.359363 0.932993
vn -0.019527 0.359364 0.932993
vn -0.017020 0.313220 0.949528
vn -0.017020 0.313220 0.949528
vn -0.014472 0.266335 0.963772
vn -0.014472 0.266335 0.963772
vn -0.011889 0.218796 0.975698
vn -0.009276 0.170708 0.985278
vn -0.011889 0.218796 0.975698
vn -0.009276 0.170708 0.985278
vn -0.006640 0.122196 0.992484
vn -0.006640 0.122197 0.992484
vn -0.003993 0.073488 0.997288
vn -0.003993 0.073488 0.997288
vn -0.001332 0.024509 0.999699
vn -0.001332 0.024509 0.999699
vn 0.024523 0.001333 -0.999698
vn 0.024523 0.001333 -0.999698
vn 0.073493 0.003994 -0.997288
vn 0.073493 0.003994 -0.997288
vn 0.122228 0.006642 -0.992480
vn 0.122228 0.006642 -0.992480
vn 0.170657 0.009273 -0.985287
vn 0.170657 0.009273 -0.985287
vn 0.218772 0.011888 -0.975704
vn 0.218772 0.011888 -0.975704
vn 0.266343 0.014473 -0.963770
vn 0.266343 0.014473 -0.963770
vn 0.313212 0.017020 -0.949531
vn 0.359390 0.019529 -0.932983
vn 0.313217 0.017020 -0.949529
vn 0.359384 0.019528 -0.932985
vn 0.404638 0.021987 -0.914213
vn 0.404638 0.021987 -0.914213
vn 0.448954 0.024395 -0.893222
vn 0.448953 0.024395 -0.893222
vn 0.492170 0.026744 -0.870088
vn 0.492171 0.026744 -0.870088
vn 0.534228 0.029029 -0.844842
vn 0.534228 0.029029 -0.844842
vn 0.574925 0.031241 -0.817609
vn 0.574925 0.031241 -0.817609
vn 0.614325 0.033381 -0.788347
vn 0.614324 0.033381 -0.788347
vn 0.652200 0.035439 -0.757218
vn 0.652200 0.035439 -0.757218
vn 0.688528 0.037413 -0.724244
vn 0.723194 0.039297 -0.689526
vn 0.688528 0.037413 -0.724244
vn 0.756093 0.041085 -0.653173
vn 0.723194 0.039297 -0.689526
vn 0.756103 0.041086 -0.653162
vn 0.787176 0.042774 -0.615243
vn 0.787167 0.042774 -0.615255
vn 0.816394 0.044362 -0.575789
vn 0.816393 0.044362 -0.575790
vn 0.843599 0.045840 -0.535014
vn 0.843599 0.045840 -0.535014
vn 0.868798 0.047210 -0.492910
vn 0.891911 0.048466 -0.449607
vn 0.868807 0.047210 -0.492895
vn 0.891911 0.048466 -0.449607
vn 0.912870 0.049604 -0.405225
vn 0.931619 0.050623 -0.359894
vn 0.912863 0.049604 -0.405242
vn 0.931625 0.050624 -0.359877
vn 0.948130 0.051520 -0.313681
vn 0.948124 0.051520 -0.313699
vn 0.962351 0.052293 -0.266731
vn 0.974272 0.052941 -0.219071
vn 0.962356 0.052293 -0.266713
vn 0.974268 0.052940 -0.219089
vn 0.983825 0.053459 -0.170967
vn 0.983825 0.053459 -0.170967
vn 0.991017 0.053850 -0.122413
vn 0.991017 0.053850 -0.122413
vn 0.995820 0.054112 -0.073578
vn 0.995822 0.054111 -0.073559
vn 0.998226 0.054242 -0.024537
vn 0.998226 0.054243 -0.024556
vn 0.998527 0.054258 -0.000000
vn 0.998527 0.054258 -0.000000
vn 0.024523 0.001333 0.999698
vn 0.024523 0.001333 0.999698
vn 0.073416 0.003989 0.997293
vn 0.073416 0.003989 0.997293
vn 0.122304 0.006646 0.992470
vn 0.122304 0.006646 0.992470
vn 0.170582 0.009269 0.985300
vn 0.170582 0.009269 0.985300
vn 0.218845 0.011892 0.975687
vn 0.218845 0.011892 0.975687
vn 0.266342 0.014473 0.963770
vn 0.266343 0.014473 0.963770
vn 0.313217 0.017020 0.949529
vn 0.359316 0.019525 0.933012
vn 0.313212 0.017019 0.949531
vn 0.359323 0.019525 0.933009
vn 0.404638 0.021987 0.914213
vn 0.404638 0.021987 0.914213
vn 0.449015 0.024399 0.893191
vn 0.449015 0.024399 0.893191
vn 0.492171 0.026744 0.870088
vn 0.492170 0.026744 0.870088
vn 0.534117 0.029023 0.844912
vn 0.534117 0.029023 0.844912
vn 0.575029 0.031246 0.817536
vn 0.575029 0.031246 0.817536
vn 0.614324 0.033381 0.788347
vn 0.614325 0.033381 0.788347
vn 0.652200 0.035439 0.757218
vn 0.652200 0.035439 0.757218
vn 0.688528 0.037413 0.724244
vn 0.723157 0.039295 0.689565
vn 0.688528 0.037414 0.724244
vn 0.756136 0.041087 0.653124
vn 0.723157 0.039295 0.689565
vn 0.756126 0.041087 0.653135
vn 0.787138 0.042772 0.615293
vn 0.787147 0.042773 0.615281
vn 0.816393 0.044361 0.575790
vn 0.816394 0.044362 0.575789
vn 0.843599 0.045840 0.535014
vn 0.843599 0.045840 0.535014
vn 0.868826 0.047211 0.492862
vn 0.891895 0.048465 0.449638
vn 0.868817 0.047210 0.492877
vn 0.891895 0.048465 0.449638
vn 0.912876 0.049604 0.405213
vn 0.931615 0.050622 0.359903
vn 0.912883 0.049605 0.405197
vn 0.931609 0.050623 0.359920
vn 0.948131 0.051520 0.313676
vn 0.948137 0.051521 0.313658
vn 0.962356 0.052293 0.266713
vn 0.974264 0.052941 0.219106
vn 0.962351 0.052293 0.266731
vn 0.974268 0.052940 0.219087
vn 0.983828 0.053460 0.170954
vn 0.983828 0.053460 0.170954
vn 0.991017 0.053850 0.122413
vn 0.991017 0.053850 0.122413
vn 0.995821 0.054112 0.073564
vn 0.995820 0.054111 0.073584
vn 0.998226 0.054242 0.024555
vn 0.998226 0.054243 0.024535
vn 0.998527 0.054258 -0.000000
vn 0.998527 0.054258 0.000000
vn 0.000000 -0.000000 1.000000
vn -0.000000 0.000000 1.000000
vn -0.998527 -0.054258 0.000000
vn -0.998527 -0.054258 0.000000
vn -0.000000 0.000000 -1.000000
vn 0.000000 0.000000 -1.000000
f 1//1 2//1 3//1
f 2//2 4//2 5//2
f 5//3 4//3 6//3
f 1//4 4//4 2//4
f 7//5 8//5 9//5
f 10//6 11//6 12//6
f 9//7 11//7 10//7
f 8//8 11//8 9//8
f 13//9 14//9 15//9
f 11//10 14//10 13//10
f 11//11 16//11 14//11
f 17//12 18//12 8//12
f 19//13 18//13 17//13
f 20//14 18//14 19//14
f 21//15 18//15 20//15
f 22//16 18//16 21//16
f 8//17 18//17 11//17
f 11//18 23//18 16//18
f 24//19 23//19 25//19
f 16//20 23//20 24//20
f 26//21 27//21 28//21
f 23//22 29//22 30//22
f 27//23 31//23 28//23
f 28//24 31//24 18//24
f 32//25 31//25 27//25
f 33//26 31//26 32//26
f 11//27 1//27 23//27
f 31//28 1//28 18//28
f 34//29 1//29 35//29
f 36//30 1//30 34//30
f 29//31 1//31 36//31
f 23//32 1//32 29//32
f 18//33 1//33 11//33
f 31//34 37//34 1//34
f 38//35 37//35 31//35
f 37//36 39//36 1//36
f 40//37 41//37 42//37
f 41//38 43//38 42//38
f 42//39 44//39 45//39
f 43//40 44//40 42//40
f 46//41 47//41 44//41
f 44//42 47//42 45//42
f 47//43 48//43 45//43
f 49//44 50//44 48//44
f 51//45 50//45 49//45
f 50//46 52//46 48//46
f 52//47 53//47 48//47
f 53//48 54//48 48//48
f 48//49 55//49 45//49
f 54//50 55//50 48//50
f 55//51 56//51 45//51
f 56//52 57//52 45//52
f 58//53 59//53 57//53
f 60//54 59//54 58//54
f 61//55 62//55 59//55
f 59//56 62//56 57//56
f 57//57 63//57 45//57
f 62//58 63//58 57//58
f 64//59 65//59 63//59
f 63//60 65//60 45//60
f 66//61 67//61 65//61
f 68//62 69//62 67//62
f 69//63 70//63 67//63
f 70//64 71//64 67//64
f 72//65 71//65 70//65
f 65//66 71//66 45//66
f 67//67 71//67 65//67
f 71//68 73//68 45//68
f 37//69 73//69 39//69
f 45//70 73//70 37//70
f 39//71 74//71 1//71
f 74//72 4//72 1//72
f 74//73 75//73 4//73
f 75//74 76//74 4//74
f 71//75 76//75 73//75
f 73//76 76//76 75//76
f 1//77 77//77 35//77
f 3//78 77//78 1//78
f 35//79 78//79 34//79
f 77//80 78//80 35//80
f 34//81 79//81 36//81
f 78//82 79//82 34//82
f 36//83 80//83 29//83
f 79//84 80//84 36//84
f 29//85 81//85 30//85
f 80//86 81//86 29//86
f 30//87 82//87 23//87
f 81//88 82//88 30//88
f 23//89 83//89 25//89
f 25//90 83//90 24//90
f 82//91 83//91 23//91
f 83//92 84//92 24//92
f 84//93 85//93 24//93
f 24//94 85//94 16//94
f 16//95 86//95 14//95
f 85//96 86//96 16//96
f 14//97 87//97 15//97
f 86//98 87//98 14//98
f 15//99 88//99 13//99
f 87//100 88//100 15//100
f 13//101 89//101 11//101
f 88//102 89//102 13//102
f 11//103 90//103 12//103
f 89//104 90//104 11//104
f 12//105 91//105 10//105
f 90//106 91//106 12//106
f 10//107 92//107 9//107
f 9//108 92//108 7//108
f 91//109 92//109 10//109
f 7//110 93//110 8//110
f 92//111 93//111 7//111
f 93//112 94//112 8//112
f 8//113 95//113 17//113
f 94//114 95//114 8//114
f 17//115 96//115 19//115
f 95//116 96//116 17//116
f 19//117 97//117 20//117
f 96//118 97//118 19//118
f 20//119 98//119 21//119
f 21//120 98//120 22//120
f 97//121 98//121 20//121
f 98//122 99//122 22//122
f 22//123 100//123 18//123
f 18//124 100//124 28//124
f 99//125 100//125 22//125
f 100//126 101//126 28//126
f 28//127 102//127 26//127
f 101//128 102//128 28//128
f 26//129 103//129 27//129
f 27//130 103//130 32//130
f 102//131 103//131 26//131
f 103//132 104//132 32//132
f 32//133 105//133 33//133
f 104//134 105//134 32//134
f 33//135 106//135 31//135
f 105//136 106//136 33//136
f 31//137 107//137 38//137
f 106//138 107//138 31//138
f 38//139 108//139 37//139
f 107//140 108//140 38//140
f 4//141 109//141 6//141
f 4//142 76//142 109//142
f 94//143 93//143 92//143
f 89//144 91//144 90//144
f 89//145 92//145 91//145
f 89//146 94//146 92//146
f 86//147 88//147 87//147
f 86//148 89//148 88//148
f 85//149 89//149 86//149
f 100//150 95//150 94//150
f 100//151 96//151 95//151
f 100//152 97//152 96//152
f 100//153 98//153 97//153
f 100//154 99//154 98//154
f 100//155 94//155 89//155
f 82//156 89//156 85//156
f 82//157 84//157 83//157
f 82//158 85//158 84//158
f 103//159 102//159 101//159
f 80//160 82//160 81//160
f 106//161 103//161 101//161
f 106//162 101//162 100//162
f 106//163 104//163 103//163
f 106//164 105//164 104//164
f 108//165 107//165 106//165
f 3//166 78//166 77//166
f 3//167 79//167 78//167
f 3//168 80//168 79//168
f 3//169 100//169 89//169
f 3//170 89//170 82//170
f 3//171 82//171 80//171
f 3//172 106//172 100//172
f 3//173 108//173 106//173
f 110//174 108//174 3//174
f 111//175 112//175 113//175
f 114//176 111//176 113//176
f 115//177 113//177 116//177
f 115//178 114//178 113//178
f 117//179 118//179 115//179
f 117//180 115//180 116//180
f 119//181 117//181 116//181
f 120//182 121//182 119//182
f 120//183 122//183 121//183
f 123//184 120//184 119//184
f 124//185 123//185 119//185
f 125//186 124//186 119//186
f 126//187 119//187 116//187
f 126//188 125//188 119//188
f 127//189 126//189 116//189
f 128//190 127//190 116//190
f 129//191 130//191 128//191
f 129//192 131//192 130//192
f 132//193 133//193 129//193
f 132//194 129//194 128//194
f 134//195 128//195 116//195
f 134//196 132//196 128//196
f 135//197 136//197 134//197
f 135//198 134//198 116//198
f 137//199 138//199 135//199
f 139//200 140//200 137//200
f 141//201 139//201 137//201
f 142//202 137//202 135//202
f 142//203 141//203 137//203
f 142//204 143//204 141//204
f 142//205 135//205 116//205
f 144//206 116//206 108//206
f 144//207 142//207 116//207
f 144//208 108//208 110//208
f 145//209 110//209 3//209
f 2//210 145//210 3//210
f 146//211 145//211 2//211
f 147//212 146//212 2//212
f 148//213 5//213 6//213
f 109//214 148//214 6//214
f 109//215 147//215 148//215
f 109//216 142//216 147//216
f 147//217 142//217 146//217
f 146//218 142//218 144//218
f 149//219 5//219 150//219
f 2//220 5//220 149//220
f 45//221 37//221 116//221
f 116//222 37//222 108//222
f 76//223 142//223 109//223
f 76//224 71//224 142//224
f 45//225 113//225 42//225
f 116//226 113//226 45//226
f 42//227 112//227 40//227
f 113//228 112//228 42//228
f 40//229 111//229 41//229
f 112//230 111//230 40//230
f 41//231 114//231 43//231
f 111//232 114//232 41//232
f 43//233 115//233 44//233
f 114//234 115//234 43//234
f 44//235 118//235 46//235
f 115//236 118//236 44//236
f 46//237 117//237 47//237
f 118//238 117//238 46//238
f 47//239 119//239 48//239
f 48//240 119//240 49//240
f 117//241 119//241 47//241
f 119//242 121//242 49//242
f 49//243 121//243 51//243
f 121//244 122//244 51//244
f 122//245 120//245 51//245
f 51//246 120//246 50//246
f 50//247 123//247 52//247
f 52//248 123//248 53//248
f 120//249 123//249 50//249
f 123//250 124//250 53//250
f 124//251 125//251 53//251
f 53//252 125//252 54//252
f 54//253 126//253 55//253
f 125//254 126//254 54//254
f 55//255 127//255 56//255
f 126//256 127//256 55//256
f 56//257 128//257 57//257
f 127//258 128//258 56//258
f 57//259 130//259 58//259
f 128//260 130//260 57//260
f 58//261 131//261 60//261
f 130//262 131//262 58//262
f 60//263 129//263 59//263
f 131//264 129//264 60//264
f 59//265 133//265 61//265
f 129//266 133//266 59//266
f 61//267 132//267 62//267
f 133//268 132//268 61//268
f 62//269 134//269 63//269
f 132//270 134//270 62//270
f 63//271 136//271 64//271
f 134//272 136//272 63//272
f 64//273 135//273 65//273
f 136//274 135//274 64//274
f 65//275 138//275 66//275
f 66//276 138//276 67//276
f 135//277 138//277 65//277
f 138//278 137//278 67//278
f 67//279 140//279 68//279
f 68//280 140//280 69//280
f 137//281 140//281 67//281
f 140//282 139//282 69//282
f 69//283 141//283 70//283
f 139//284 141//284 69//284
f 70//285 143//285 72//285
f 141//286 143//286 70//286
f 72//287 142//287 71//287
f 143//288 142//288 72//288
f 144//289 110//289 73//289
f 73//290 110//290 39//290
f 110//291 145//291 39//291
f 39//292 145//292 74//292
f 145//293 146//293 74//293
f 74//294 146//294 75//294
f 146//295 144//295 75//295
f 75//296 144//296 73//296
f 151//297 152//297 153//297
f 152//298 154//298 155//298
f 155//299 156//299 152//299
f 152//300 157//300 154//300
f 156//301 158//301 152//301
f 158//302 159//302 152//302
f 152//303 160//303 157//303
f 159//304 161//304 152//304
f 152//305 162//305 160//305
f 152//306 163//306 162//306
f 161//307 164//307 152//307
f 164//308 165//308 152//308
f 152//309 166//309 163//309
f 165//310 167//310 152//310
f 152//311 168//311 166//311
f 152//312 169//312 168//312
f 167//313 170//313 152//313
f 152//314 171//314 169//314
f 170//315 172//315 152//315
f 152//316 173//316 171//316
f 172//317 174//317 152//317
f 152//318 175//318 173//318
f 174//319 176//319 152//319
f 152//320 177//320 175//320
f 176//321 178//321 152//321
f 178//322 179//322 152//322
f 179//323 180//323 152//323
f 180//324 181//324 152//324
f 181//325 182//325 152//325
f 182//326 183//326 152//326
f 183//327 184//327 152//327
f 184//328 185//328 152//328
f 186//329 185//329 187//329
f 187//330 185//330 188//330
f 188//331 185//331 189//331
f 189//332 185//332 190//332
f 190//333 185//333 191//333
f 191//334 185//334 192//334
f 192//335 185//335 193//335
f 193//336 185//336 194//336
f 194//337 185//337 195//337
f 195//338 185//338 196//338
f 196//339 185//339 197//339
f 197//340 185//340 198//340
f 198//341 185//341 199//341
f 199//342 185//342 200//342
f 200//343 185//343 201//343
f 201//344 185//344 202//344
f 202//345 185//345 203//345
f 203//346 185//346 204//346
f 204//347 185//347 205//347
f 205//348 185//348 184//348
f 206//349 207//349 208//349
f 206//350 209//350 207//350
f 185//351 209//351 206//351
f 209//352 210//352 211//352
f 209//353 212//353 210//353
f 185//354 212//354 209//354
f 185//355 213//355 212//355
f 214//356 213//356 215//356
f 212//357 213//357 214//357
f 185//358 216//358 213//358
f 185//359 217//359 216//359
f 185//360 218//360 217//360
f 185//361 219//361 218//361
f 219//362 220//362 221//362
f 185//363 220//363 219//363
f 153//364 222//364 151//364
f 223//365 224//365 225//365
f 226//366 224//366 223//366
f 220//367 224//367 226//367
f 185//368 227//368 220//368
f 220//369 227//369 224//369
f 227//370 228//370 229//370
f 185//371 230//371 227//371
f 227//372 230//372 228//372
f 230//373 231//373 232//373
f 230//374 233//374 231//374
f 230//375 234//375 233//375
f 234//376 235//376 236//376
f 185//377 235//377 230//377
f 230//378 235//378 234//378
f 235//379 237//379 238//379
f 239//380 237//380 240//380
f 240//381 237//381 241//381
f 241//382 237//382 242//382
f 242//383 237//383 243//383
f 243//384 237//384 244//384
f 244//385 237//385 245//385
f 245//386 237//386 246//386
f 246//387 237//387 247//387
f 247//388 237//388 248//388
f 248//389 237//389 249//389
f 249//390 237//390 186//390
f 185//391 237//391 235//391
f 186//392 237//392 185//392
f 222//393 250//393 251//393
f 250//394 147//394 252//394
f 252//395 147//395 253//395
f 253//396 147//396 254//396
f 222//397 147//397 250//397
f 147//398 255//398 254//398
f 147//399 256//399 255//399
f 147//400 257//400 256//400
f 147//401 258//401 257//401
f 147//402 259//402 258//402
f 147//403 260//403 259//403
f 147//404 261//404 260//404
f 147//405 262//405 261//405
f 147//406 263//406 262//406
f 147//407 264//407 263//407
f 147//408 265//408 264//408
f 147//409 266//409 265//409
f 147//410 267//410 266//410
f 147//411 268//411 267//411
f 147//412 269//412 268//412
f 147//413 270//413 269//413
f 147//414 271//414 270//414
f 147//415 272//415 271//415
f 147//416 273//416 272//416
f 147//417 274//417 273//417
f 147//418 275//418 274//418
f 147//419 276//419 275//419
f 147//420 277//420 276//420
f 147//421 278//421 277//421
f 147//422 279//422 278//422
f 147//423 280//423 279//423
f 147//424 281//424 280//424
f 147//425 282//425 281//425
f 147//426 283//426 282//426
f 239//427 284//427 237//427
f 147//428 285//428 283//428
f 285//429 2//429 286//429
f 286//430 2//430 287//430
f 287//431 2//431 288//431
f 288//432 2//432 289//432
f 289//433 2//433 290//433
f 290//434 2//434 291//434
f 291//435 2//435 292//435
f 292//436 2//436 293//436
f 293//437 2//437 294//437
f 294//438 2//438 295//438
f 295//439 2//439 296//439
f 296//440 2//440 297//440
f 297//441 2//441 298//441
f 298//442 2//442 299//442
f 147//443 2//443 285//443
f 299//444 2//444 300//444
f 300//445 2//445 301//445
f 301//446 2//446 302//446
f 302//447 2//447 303//447
f 303//448 2//448 304//448
f 304//449 2//449 305//449
f 305//450 2//450 306//450
f 306//451 2//451 307//451
f 307//452 2//452 308//452
f 308//453 2//453 309//453
f 309//454 2//454 310//454
f 310//455 2//455 311//455
f 311//456 2//456 312//456
f 312//457 2//457 313//457
f 313//458 2//458 314//458
f 314//459 2//459 315//459
f 315//460 2//460 316//460
f 316//461 2//461 284//461
f 284//462 149//462 237//462
f 2//463 149//463 284//463
f 185//464 153//464 152//464
f 153//465 147//465 222//465
f 152//466 251//466 317//466
f 152//467 317//467 318//467
f 152//468 318//468 319//468
f 152//469 319//469 320//469
f 152//470 320//470 177//470
f 250//471 317//471 251//471
f 148//472 147//472 321//472
f 321//473 147//473 153//473
f 322//474 323//474 324//474
f 323//475 325//475 324//475
f 326//476 327//476 323//476
f 328//477 329//477 330//477
f 331//478 332//478 327//478
f 325//479 333//479 328//479
f 323//480 333//480 325//480
f 327//481 333//481 323//481
f 332//482 333//482 327//482
f 329//483 334//483 335//483
f 336//484 337//484 333//484
f 334//485 338//485 339//485
f 339//486 338//486 340//486
f 328//487 338//487 329//487
f 329//488 338//488 334//488
f 341//489 342//489 343//489
f 328//490 344//490 338//490
f 338//491 344//491 345//491
f 345//492 344//492 346//492
f 347//493 348//493 342//493
f 343//494 348//494 337//494
f 342//495 348//495 343//495
f 344//496 349//496 350//496
f 350//497 349//497 351//497
f 352//498 353//498 354//498
f 354//499 353//499 348//499
f 348//500 353//500 337//500
f 328//501 353//501 344//501
f 344//502 353//502 349//502
f 333//503 353//503 328//503
f 337//504 353//504 333//504
f 355//505 356//505 349//505
f 349//506 357//506 355//506
f 349//507 358//507 357//507
f 356//508 359//508 349//508
f 349//509 360//509 358//509
f 359//510 361//510 349//510
f 349//511 362//511 360//511
f 361//512 363//512 349//512
f 363//513 364//513 349//513
f 353//514 365//514 349//514
f 349//515 365//515 362//515
f 364//516 366//516 349//516
f 353//517 367//517 365//517
f 366//518 368//518 349//518
f 353//519 369//519 367//519
f 353//520 370//520 369//520
f 368//521 371//521 349//521
f 353//522 372//522 370//522
f 371//523 373//523 349//523
f 353//524 374//524 372//524
f 373//525 375//525 349//525
f 353//526 376//526 374//526
f 375//527 377//527 349//527
f 353//528 378//528 376//528
f 377//529 379//529 349//529
f 353//530 380//530 378//530
f 379//531 381//531 349//531
f 353//532 382//532 380//532
f 381//533 383//533 349//533
f 353//534 384//534 382//534
f 383//535 385//535 349//535
f 353//536 386//536 384//536
f 385//537 387//537 349//537
f 387//538 388//538 349//538
f 388//539 389//539 349//539
f 389//540 321//540 349//540
f 390//541 321//541 389//541
f 391//542 321//542 390//542
f 392//543 321//543 391//543
f 393//544 321//544 392//544
f 394//545 321//545 393//545
f 395//546 321//546 394//546
f 396//547 321//547 395//547
f 397//548 321//548 396//548
f 398//549 321//549 397//549
f 399//550 321//550 398//550
f 400//551 321//551 399//551
f 401//552 321//552 400//552
f 402//553 321//553 401//553
f 403//554 321//554 402//554
f 404//555 321//555 403//555
f 405//556 321//556 404//556
f 406//557 321//557 405//557
f 407//558 321//558 406//558
f 408//559 321//559 407//559
f 409//560 321//560 408//560
f 410//561 321//561 409//561
f 411//562 321//562 410//562
f 412//563 321//563 411//563
f 413//564 321//564 412//564
f 414//565 321//565 413//565
f 415//566 321//566 414//566
f 415//567 416//567 321//567
f 416//568 417//568 321//568
f 417//569 418//569 321//569
f 418//570 419//570 321//570
f 419//571 420//571 321//571
f 150//572 421//572 353//572
f 5//573 421//573 150//573
f 353//574 421//574 386//574
f 5//575 422//575 421//575
f 5//576 423//576 422//576
f 5//577 424//577 423//577
f 5//578 425//578 424//578
f 5//579 426//579 425//579
f 5//580 427//580 426//580
f 5//581 428//581 427//581
f 5//582 429//582 428//582
f 5//583 430//583 429//583
f 5//584 431//584 430//584
f 5//585 432//585 431//585
f 5//586 433//586 432//586
f 5//587 434//587 433//587
f 5//588 435//588 434//588
f 5//589 436//589 435//589
f 5//590 437//590 436//590
f 5//591 438//591 437//591
f 5//592 439//592 438//592
f 5//593 440//593 439//593
f 5//594 441//594 440//594
f 5//595 442//595 441//595
f 5//596 443//596 442//596
f 5//597 444//597 443//597
f 5//598 445//598 444//598
f 5//599 446//599 445//599
f 5//600 447//600 446//600
f 5//601 448//601 447//601
f 5//602 449//602 448//602
f 5//603 450//603 449//603
f 5//604 451//604 450//604
f 5//605 452//605 451//605
f 5//606 453//606 452//606
f 453//607 148//607 454//607
f 420//608 148//608 321//608
f 455//609 148//609 456//609
f 457//610 148//610 455//610
f 458//611 148//611 457//611
f 459//612 148//612 458//612
f 460//613 148//613 459//613
f 461//614 148//614 460//614
f 462//615 148//615 461//615
f 463//616 148//616 462//616
f 464//617 148//617 463//617
f 465//618 148//618 464//618
f 466//619 148//619 465//619
f 467//620 148//620 466//620
f 468//621 148//621 467//621
f 469//622 148//622 468//622
f 470//623 148//623 469//623
f 471//624 148//624 470//624
f 472//625 148//625 471//625
f 473//626 148//626 472//626
f 474//627 148//627 473//627
f 475//628 148//628 474//628
f 476//629 148//629 475//629
f 477//630 148//630 476//630
f 478//631 148//631 477//631
f 479//632 148//632 478//632
f 480//633 148//633 479//633
f 481//634 148//634 480//634
f 482//635 148//635 481//635
f 483//636 148//636 482//636
f 484//637 148//637 483//637
f 485//638 148//638 484//638
f 486//639 148//639 485//639
f 5//640 148//640 453//640
f 454//641 148//641 486//641
f 456//642 148//642 420//642
f 149//643 150//643 237//643
f 237//644 150//644 353//644
f 321//645 153//645 185//645
f 321//646 185//646 349//646
f 237//647 352//647 238//647
f 353//648 352//648 237//648
f 238//649 354//649 235//649
f 352//650 354//650 238//650
f 235//651 348//651 236//651
f 354//652 348//652 235//652
f 236//653 347//653 234//653
f 348//654 347//654 236//654
f 234//655 342//655 233//655
f 347//656 342//656 234//656
f 233//657 341//657 231//657
f 342//658 341//658 233//658
f 231//659 343//659 232//659
f 341//660 343//660 231//660
f 232//661 337//661 230//661
f 343//662 337//662 232//662
f 337//663 336//663 230//663
f 230//664 336//664 228//664
f 228//665 333//665 229//665
f 336//666 333//666 228//666
f 229//667 332//667 227//667
f 333//668 332//668 229//668
f 227//669 331//669 224//669
f 332//670 331//670 227//670
f 224//671 327//671 225//671
f 331//672 327//672 224//672
f 225//673 326//673 223//673
f 223//674 326//674 226//674
f 327//675 326//675 225//675
f 326//676 323//676 226//676
f 226//677 322//677 220//677
f 323//678 322//678 226//678
f 220//679 324//679 221//679
f 322//680 324//680 220//680
f 221//681 325//681 219//681
f 219//682 325//682 218//682
f 324//683 325//683 221//683
f 325//684 328//684 218//684
f 218//685 330//685 217//685
f 328//686 330//686 218//686
f 217//687 329//687 216//687
f 216//688 329//688 213//688
f 330//689 329//689 217//689
f 329//690 335//690 213//690
f 213//691 334//691 215//691
f 335//692 334//692 213//692
f 215//693 339//693 214//693
f 334//694 339//694 215//694
f 214//695 340//695 212//695
f 339//696 340//696 214//696
f 212//697 338//697 210//697
f 340//698 338//698 212//698
f 210//699 345//699 211//699
f 338//700 345//700 210//700
f 211//701 346//701 209//701
f 209//702 346//702 207//702
f 345//703 346//703 211//703
f 346//704 344//704 207//704
f 207//705 350//705 208//705
f 344//706 350//706 207//706
f 208//707 351//707 206//707
f 350//708 351//708 208//708
f 206//709 349//709 185//709
f 351//710 349//710 206//710
f 487//711 488//711 489//711
f 488//712 490//712 491//712
f 487//713 490//713 488//713
f 492//714 493//714 494//714
f 494//715 493//715 495//715
f 495//716 493//716 487//716
f 493//717 496//717 487//717
f 497//718 498//718 496//718
f 490//719 499//719 500//719
f 500//720 499//720 501//720
f 501//721 499//721 502//721
f 487//722 499//722 490//722
f 503//723 504//723 498//723
f 498//724 504//724 496//724
f 505//725 506//725 507//725
f 507//726 506//726 508//726
f 508//727 506//727 504//727
f 487//728 509//728 499//728
f 499//729 509//729 510//729
f 510//730 509//730 511//730
f 511//731 509//731 512//731
f 512//732 509//732 513//732
f 513//733 509//733 514//733
f 515//734 516//734 517//734
f 517//735 516//735 506//735
f 487//736 516//736 509//736
f 504//737 516//737 496//737
f 506//738 516//738 504//738
f 509//739 516//739 518//739
f 518//740 516//740 626//740
f 496//741 516//741 487//741
f 516//742 519//742 626//742
f 519//743 624//743 626//743
f 520//744 521//744 522//744
f 624//745 521//745 520//745
f 624//746 523//746 521//746
f 624//747 524//747 523//747
f 523//748 524//748 525//748
f 624//749 526//749 524//749
f 527//750 528//750 529//750
f 526//751 528//751 527//751
f 624//752 530//752 526//752
f 528//753 530//753 531//753
f 526//754 530//754 528//754
f 624//755 532//755 530//755
f 533//756 534//756 535//756
f 532//757 534//757 533//757
f 532//758 536//758 534//758
f 624//759 537//759 532//759
f 532//760 537//760 536//760
f 537//761 538//761 539//761
f 624//762 538//762 537//762
f 624//763 540//763 538//763
f 541//764 542//764 543//764
f 544//765 542//765 541//765
f 545//766 542//766 544//766
f 546//767 542//767 545//767
f 540//768 542//768 546//768
f 624//769 542//769 540//769
f 542//770 547//770 548//770
f 624//771 547//771 542//771
f 547//772 549//772 550//772
f 624//773 551//773 547//773
f 547//774 551//774 549//774
f 624//775 552//775 551//775
f 519//776 552//776 624//776
f 516//777 553//777 519//777
f 516//778 251//778 553//778
f 552//779 554//779 551//779
f 554//780 152//780 551//780
f 251//781 152//781 553//781
f 553//782 152//782 554//782
f 222//783 251//783 555//783
f 555//784 251//784 516//784
f 556//785 557//785 558//785
f 557//786 559//786 560//786
f 556//787 559//787 557//787
f 561//788 562//788 563//788
f 563//789 562//789 564//789
f 564//790 562//790 556//790
f 562//791 565//791 556//791
f 566//792 567//792 565//792
f 559//793 568//793 569//793
f 569//794 568//794 570//794
f 570//795 568//795 571//795
f 556//796 568//796 559//796
f 572//797 573//797 567//797
f 567//798 573//798 565//798
f 574//799 575//799 576//799
f 576//800 575//800 577//800
f 577//801 575//801 573//801
f 556//802 578//802 568//802
f 568//803 578//803 579//803
f 579//804 578//804 580//804
f 580//805 578//805 581//805
f 581//806 578//806 582//806
f 582//807 578//807 583//807
f 584//808 585//808 586//808
f 586//809 585//809 575//809
f 556//810 585//810 578//810
f 573//811 585//811 565//811
f 575//812 585//812 573//812
f 578//813 585//813 587//813
f 587//814 585//814 625//814
f 565//815 585//815 556//815
f 585//816 588//816 625//816
f 589//817 590//817 591//817
f 623//818 590//818 589//818
f 623//819 592//819 590//819
f 623//820 593//820 592//820
f 592//821 593//821 594//821
f 623//822 595//822 593//822
f 596//823 597//823 598//823
f 595//824 597//824 596//824
f 623//825 599//825 595//825
f 597//826 599//826 600//826
f 595//827 599//827 597//827
f 623//828 601//828 599//828
f 602//829 603//829 604//829
f 601//830 603//830 602//830
f 601//831 605//831 603//831
f 623//832 606//832 601//832
f 601//833 606//833 605//833
f 606//834 607//834 608//834
f 623//835 607//835 606//835
f 623//836 609//836 607//836
f 610//837 611//837 612//837
f 613//838 611//838 610//838
f 614//839 611//839 613//839
f 615//840 611//840 614//840
f 609//841 611//841 615//841
f 623//842 611//842 609//842
f 611//843 616//843 617//843
f 623//844 616//844 611//844
f 616//845 618//845 619//845
f 623//846 555//846 616//846
f 616//847 555//847 618//847
f 623//848 620//848 555//848
f 625//849 620//849 623//849
f 588//850 620//850 625//850
f 585//851 621//851 588//851
f 585//852 151//852 621//852
f 620//853 622//853 555//853
f 151//854 622//854 621//854
f 622//855 222//855 555//855
f 151//856 222//856 622//856
f 152//857 151//857 551//857
f 551//858 151//858 585//858
f 239//859 240//859 386//859
f 386//860 240//860 384//860
f 384//861 241//861 382//861
f 240//862 241//862 384//862
f 382//863 242//863 380//863
f 241//864 242//864 382//864
f 380//865 243//865 378//865
f 242//866 243//866 380//866
f 378//867 244//867 376//867
f 243//868 244//868 378//868
f 376//869 245//869 374//869
f 244//870 245//870 376//870
f 374//871 246//871 372//871
f 372//872 246//872 370//872
f 245//873 246//873 374//873
f 246//874 247//874 370//874
f 247//875 248//875 370//875
f 370//876 248//876 369//876
f 248//877 249//877 369//877
f 369//878 249//878 367//878
f 249//879 186//879 367//879
f 367//880 186//880 365//880
f 186//881 187//881 365//881
f 365//882 187//882 362//882
f 187//883 188//883 362//883
f 362//884 188//884 360//884
f 188//885 189//885 360//885
f 360//886 189//886 358//886
f 189//887 190//887 358//887
f 358//888 190//888 357//888
f 190//889 191//889 357//889
f 357//890 191//890 355//890
f 355//891 191//891 356//891
f 191//892 192//892 356//892
f 356//893 192//893 359//893
f 192//894 193//894 359//894
f 193//895 194//895 359//895
f 359//896 194//896 361//896
f 194//897 195//897 361//897
f 361//898 195//898 363//898
f 363//899 196//899 364//899
f 195//900 196//900 363//900
f 196//901 197//901 364//901
f 364//902 197//902 366//902
f 366//903 197//903 368//903
f 197//904 198//904 368//904
f 368//905 199//905 371//905
f 371//906 199//906 373//906
f 198//907 199//907 368//907
f 199//908 200//908 373//908
f 373//909 201//909 375//909
f 200//910 201//910 373//910
f 375//911 202//911 377//911
f 377//912 202//912 379//912
f 201//913 202//913 375//913
f 202//914 203//914 379//914
f 379//915 204//915 381//915
f 203//916 204//916 379//916
f 381//917 205//917 383//917
f 204//918 205//918 381//918
f 383//919 184//919 385//919
f 205//920 184//920 383//920
f 385//921 183//921 387//921
f 184//922 183//922 385//922
f 284//923 239//923 421//923
f 421//924 239//924 386//924
f 183//925 182//925 387//925
f 387//926 182//926 388//926
f 285//927 286//927 453//927
f 453//928 286//928 452//928
f 452//929 287//929 451//929
f 286//930 287//930 452//930
f 451//931 288//931 450//931
f 287//932 288//932 451//932
f 450//933 289//933 449//933
f 288//934 289//934 450//934
f 449//935 290//935 448//935
f 289//936 290//936 449//936
f 448//937 291//937 447//937
f 290//938 291//938 448//938
f 447//939 292//939 446//939
f 291//940 292//940 447//940
f 446//941 293//941 445//941
f 292//942 293//942 446//942
f 293//943 294//943 445//943
f 445//944 294//944 444//944
f 294//945 295//945 444//945
f 444//946 295//946 443//946
f 295//947 296//947 443//947
f 443//948 296//948 442//948
f 296//949 297//949 442//949
f 442//950 297//950 441//950
f 297//951 298//951 441//951
f 441//952 298//952 440//952
f 298//953 299//953 440//953
f 440//954 299//954 439//954
f 439//955 299//955 438//955
f 299//956 300//956 438//956
f 300//957 301//957 438//957
f 438//958 301//958 437//958
f 301//959 302//959 437//959
f 437//960 302//960 436//960
f 302//961 303//961 436//961
f 436//962 303//962 435//962
f 435//963 303//963 434//963
f 303//964 304//964 434//964
f 304//965 305//965 434//965
f 434//966 305//966 433//966
f 433//967 306//967 432//967
f 432//968 306//968 431//968
f 305//969 306//969 433//969
f 306//970 307//970 431//970
f 431//971 308//971 430//971
f 307//972 308//972 431//972
f 430//973 309//973 429//973
f 308//974 309//974 430//974
f 429//975 310//975 428//975
f 309//976 310//976 429//976
f 428//977 311//977 427//977
f 310//978 311//978 428//978
f 427//979 312//979 426//979
f 311//980 312//980 427//980
f 426//981 313//981 425//981
f 425//982 313//982 424//982
f 312//983 313//983 426//983
f 313//984 314//984 424//984
f 424//985 315//985 423//985
f 314//986 315//986 424//986
f 423//987 316//987 422//987
f 315//988 316//988 423//988
f 422//989 284//989 421//989
f 316//990 284//990 422//990
f 182//991 181//991 388//991
f 388//992 181//992 389//992
f 389//993 180//993 390//993
f 181//994 180//994 389//994
f 390//995 179//995 391//995
f 180//996 179//996 390//996
f 391//997 178//997 392//997
f 179//998 178//998 391//998
f 392//999 176//999 393//999
f 178//1000 176//1000 392//1000
f 393//1001 174//1001 394//1001
f 176//1002 174//1002 393//1002
f 394//1003 172//1003 395//1003
f 174//1004 172//1004 394//1004
f 395//1005 170//1005 396//1005
f 396//1006 170//1006 397//1006
f 172//1007 170//1007 395//1007
f 170//1008 167//1008 397//1008
f 397//1009 167//1009 398//1009
f 167//1010 165//1010 398//1010
f 165//1011 164//1011 398//1011
f 398//1012 164//1012 399//1012
f 164//1013 161//1013 399//1013
f 399//1014 161//1014 400//1014
f 400//1015 161//1015 401//1015
f 161//1016 159//1016 401//1016
f 159//1017 158//1017 401//1017
f 401//1018 158//1018 402//1018
f 158//1019 156//1019 402//1019
f 402//1020 156//1020 403//1020
f 156//1021 155//1021 403//1021
f 403//1022 155//1022 404//1022
f 155//1023 154//1023 404//1023
f 404//1024 154//1024 405//1024
f 154//1025 157//1025 405//1025
f 405//1026 157//1026 406//1026
f 157//1027 160//1027 406//1027
f 406//1028 160//1028 407//1028
f 160//1029 162//1029 407//1029
f 407//1030 162//1030 408//1030
f 408//1031 163//1031 409//1031
f 162//1032 163//1032 408//1032
f 163//1033 166//1033 409//1033
f 409//1034 166//1034 410//1034
f 410//1035 168//1035 411//1035
f 166//1036 168//1036 410//1036
f 411//1037 169//1037 412//1037
f 168//1038 169//1038 411//1038
f 412//1039 171//1039 413//1039
f 169//1040 171//1040 412//1040
f 413//1041 173//1041 414//1041
f 414//1042 173//1042 415//1042
f 171//1043 173//1043 413//1043
f 173//1044 175//1044 415//1044
f 415//1045 177//1045 416//1045
f 416//1046 177//1046 417//1046
f 175//1047 177//1047 415//1047
f 177//1048 320//1048 417//1048
f 417//1049 319//1049 418//1049
f 320//1050 319//1050 417//1050
f 418//1051 318//1051 419//1051
f 419//1052 318//1052 420//1052
f 319//1053 318//1053 418//1053
f 318//1054 317//1054 420//1054
f 283//1055 285//1055 454//1055
f 454//1056 285//1056 453//1056
f 317//1057 456//1057 420//1057
f 317//1058 250//1058 456//1058
f 250//1059 252//1059 456//1059
f 456//1060 252//1060 455//1060
f 455//1061 253//1061 457//1061
f 252//1062 253//1062 455//1062
f 457//1063 254//1063 458//1063
f 253//1064 254//1064 457//1064
f 458//1065 255//1065 459//1065
f 254//1066 255//1066 458//1066
f 459//1067 256//1067 460//1067
f 255//1068 256//1068 459//1068
f 460//1069 257//1069 461//1069
f 256//1070 257//1070 460//1070
f 461//1071 258//1071 462//1071
f 257//1072 258//1072 461//1072
f 462//1073 259//1073 463//1073
f 258//1074 259//1074 462//1074
f 259//1075 260//1075 463//1075
f 463//1076 260//1076 464//1076
f 260//1077 261//1077 464//1077
f 464//1078 261//1078 465//1078
f 261//1079 262//1079 465//1079
f 465//1080 262//1080 466//1080
f 262//1081 263//1081 466//1081
f 466//1082 263//1082 467//1082
f 263//1083 264//1083 467//1083
f 467//1084 264//1084 468//1084
f 264//1085 265//1085 468//1085
f 468//1086 265//1086 469//1086
f 469//1087 265//1087 470//1087
f 265//1088 266//1088 470//1088
f 266//1089 267//1089 470//1089
f 470//1090 267//1090 471//1090
f 267//1091 268//1091 471//1091
f 471//1092 268//1092 472//1092
f 268//1093 269//1093 472//1093
f 472//1094 269//1094 473//1094
f 473//1095 269//1095 474//1095
f 269//1096 270//1096 474//1096
f 270//1097 271//1097 474//1097
f 474//1098 271//1098 475//1098
f 475//1099 272//1099 476//1099
f 476//1100 272//1100 477//1100
f 271//1101 272//1101 475//1101
f 272//1102 273//1102 477//1102
f 477//1103 274//1103 478//1103
f 273//1104 274//1104 477//1104
f 478//1105 275//1105 479//1105
f 274//1106 275//1106 478//1106
f 479//1107 276//1107 480//1107
f 275//1108 276//1108 479//1108
f 480//1109 277//1109 481//1109
f 276//1110 277//1110 480//1110
f 481//1111 278//1111 482//1111
f 277//1112 278//1112 481//1112
f 482//1113 279//1113 483//1113
f 483//1114 279//1114 484//1114
f 278//1115 279//1115 482//1115
f 279//1116 280//1116 484//1116
f 484//1117 281//1117 485//1117
f 280//1118 281//1118 484//1118
f 485//1119 282//1119 486//1119
f 281//1120 282//1120 485//1120
f 486//1121 283//1121 454//1121
f 282//1122 283//1122 486//1122
f 555//1123 515//1123 618//1123
f 516//1124 515//1124 555//1124
f 618//1125 517//1125 619//1125
f 515//1126 517//1126 618//1126
f 619//1127 506//1127 616//1127
f 517//1128 506//1128 619//1128
f 616//1129 505//1129 617//1129
f 506//1130 505//1130 616//1130
f 617//1131 507//1131 611//1131
f 505//1132 507//1132 617//1132
f 611//1133 508//1133 612//1133
f 507//1134 508//1134 611//1134
f 612//1135 504//1135 610//1135
f 610//1136 504//1136 613//1136
f 508//1137 504//1137 612//1137
f 504//1138 503//1138 613//1138
f 503//1139 498//1139 613//1139
f 613//1140 498//1140 614//1140
f 614//1141 497//1141 615//1141
f 498//1142 497//1142 614//1142
f 615//1143 496//1143 609//1143
f 497//1144 496//1144 615//1144
f 609//1145 493//1145 607//1145
f 496//1146 493//1146 609//1146
f 607//1147 492//1147 608//1147
f 493//1148 492//1148 607//1148
f 608//1149 494//1149 606//1149
f 492//1150 494//1150 608//1150
f 606//1151 495//1151 605//1151
f 494//1152 495//1152 606//1152
f 605//1153 487//1153 603//1153
f 603//1154 487//1154 604//1154
f 495//1155 487//1155 605//1155
f 604//1156 489//1156 602//1156
f 487//1157 489//1157 604//1157
f 489//1158 488//1158 602//1158
f 602//1159 491//1159 601//1159
f 488//1160 491//1160 602//1160
f 601//1161 490//1161 599//1161
f 491//1162 490//1162 601//1162
f 599//1163 500//1163 600//1163
f 490//1164 500//1164 599//1164
f 600//1165 501//1165 597//1165
f 597//1166 501//1166 598//1166
f 500//1167 501//1167 600//1167
f 501//1168 502//1168 598//1168
f 598//1169 499//1169 596//1169
f 596//1170 499//1170 595//1170
f 502//1171 499//1171 598//1171
f 499//1172 510//1172 595//1172
f 595//1173 511//1173 593//1173
f 510//1174 511//1174 595//1174
f 593//1175 512//1175 594//1175
f 594//1176 512//1176 592//1176
f 511//1177 512//1177 593//1177
f 512//1178 513//1178 592//1178
f 592//1179 514//1179 590//1179
f 513//1180 514//1180 592//1180
f 590//1181 509//1181 591//1181
f 514//1182 509//1182 590//1182
f 591//1183 518//1183 589//1183
f 509//1184 518//1184 591//1184
f 589//1185 626//1185 623//1185
f 518//1186 626//1186 589//1186
f 623//1187 624//1187 625//1187
f 626//1188 624//1188 623//1188
f 551//1189 584//1189 549//1189
f 585//1190 584//1190 551//1190
f 549//1191 586//1191 550//1191
f 584//1192 586//1192 549//1192
f 550//1193 575//1193 547//1193
f 586//1194 575//1194 550//1194
f 547//1195 574//1195 548//1195
f 575//1196 574//1196 547//1196
f 548//1197 576//1197 542//1197
f 574//1198 576//1198 548//1198
f 542//1199 577//1199 543//1199
f 576//1200 577//1200 542//1200
f 543//1201 573//1201 541//1201
f 541//1202 573//1202 544//1202
f 577//1203 573//1203 543//1203
f 573//1204 572//1204 544//1204
f 572//1205 567//1205 544//1205
f 544//1206 567//1206 545//1206
f 545//1207 566//1207 546//1207
f 567//1208 566//1208 545//1208
f 546//1209 565//1209 540//1209
f 566//1210 565//1210 546//1210
f 540//1211 562//1211 538//1211
f 565//1212 562//1212 540//1212
f 538//1213 561//1213 539//1213
f 562//1214 561//1214 538//1214
f 539//1215 563//1215 537//1215
f 561//1216 563//1216 539//1216
f 537//1217 564//1217 536//1217
f 563//1218 564//1218 537//1218
f 536//1219 556//1219 534//1219
f 534//1220 556//1220 535//1220
f 564//1221 556//1221 536//1221
f 535//1222 558//1222 533//1222
f 556//1223 558//1223 535//1223
f 558//1224 557//1224 533//1224
f 533//1225 560//1225 532//1225
f 557//1226 560//1226 533//1226
f 532//1227 559//1227 530//1227
f 560//1228 559//1228 532//1228
f 530//1229 569//1229 531//1229
f 559//1230 569//1230 530//1230
f 531//1231 570//1231 528//1231
f 528//1232 570//1232 529//1232
f 569//1233 570//1233 531//1233
f 570//1234 571//1234 529//1234
f 529//1235 568//1235 527//1235
f 527//1236 568//1236 526//1236
f 571//1237 568//1237 529//1237
f 568//1238 579//1238 526//1238
f 526//1239 580//1239 524//1239
f 579//1240 580//1240 526//1240
f 524//1241 581//1241 525//1241
f 525//1242 581//1242 523//1242
f 580//1243 581//1243 524//1243
f 581//1244 582//1244 523//1244
f 523//1245 583//1245 521//1245
f 582//1246 583//1246 523//1246
f 521//1247 578//1247 522//1247
f 583//1248 578//1248 521//1248
f 522//1249 587//1249 520//1249
f 578//1250 587//1250 522//1250
f 520//1251 625//1251 624//1251
f 587//1252 625//1252 520//1252
f 621//1253 553//1253 554//1253
f 621//1254 622//1254 553//1254
f 622//1255 620//1255 553//1255
f 553//1256 620//1256 519//1256
f 620//1257 588//1257 519//1257
f 519//1258 588//1258 552//1258
f 588//1259 621//1259 552//1259
f 552//1260 621//1260 554//1260
