# Created by FreeCAD <https://www.freecad.org>
v -100.974701 -20.088137 101.932663
v -225.628418 -23.857203 101.932663
v -101.137482 -17.092556 101.932663
v -225.465652 -26.852783 101.932663
v -93.323296 -19.672371 109.595360
v -93.332512 -19.672871 109.219368
v -93.486069 -16.676790 109.595360
v -93.495285 -16.677290 109.219368
v -93.360138 -19.674372 108.844284
v -93.522911 -16.678791 108.844284
v -93.406113 -19.676870 108.471008
v -93.568886 -16.681290 108.471008
v -93.470314 -19.680359 108.100441
v -93.633087 -16.684778 108.100441
v -93.552597 -19.684830 107.733475
v -93.715370 -16.689249 107.733475
v -93.652763 -19.690273 107.370995
v -93.815536 -16.694693 107.370995
v -93.770561 -19.696674 107.013870
v -93.933342 -16.701094 107.013870
v -93.905724 -19.704018 106.662971
v -94.068497 -16.708437 106.662971
v -94.057915 -19.712288 106.319130
v -94.220688 -16.716707 106.319130
v -94.226761 -19.721464 105.983185
v -94.389542 -16.725882 105.983185
v -94.411873 -19.731522 105.655945
v -94.574646 -16.735941 105.655945
v -94.612793 -19.742439 105.338196
v -94.775566 -16.746859 105.338196
v -94.829033 -19.754190 105.030693
v -94.991806 -16.758610 105.030693
v -95.060081 -19.766745 104.734192
v -95.222862 -16.771164 104.734192
v -95.468163 -16.784492 104.449409
v -95.305382 -19.780073 104.449409
v -95.564339 -19.794146 104.177017
v -95.727119 -16.798565 104.177017
v -95.836334 -19.808926 103.917671
v -95.999107 -16.813343 103.917671
v -96.120705 -19.824377 103.672012
v -96.283478 -16.828796 103.672012
v -96.579536 -16.844883 103.440620
v -96.416763 -19.840464 103.440620
v -96.723808 -19.857149 103.224060
v -96.886581 -16.861568 103.224060
v -97.041092 -19.874390 103.022842
v -97.203865 -16.878809 103.022842
v -97.530632 -16.896564 102.837463
v -97.367851 -19.892145 102.837463
v -97.703308 -19.910374 102.668365
v -97.866081 -16.914793 102.668365
v -98.046638 -19.929029 102.515953
v -98.209412 -16.933449 102.515953
v -98.397018 -19.948069 102.380592
v -98.559799 -16.952488 102.380592
v -98.753616 -19.967445 102.262611
v -98.916389 -16.971865 102.262611
v -99.115562 -19.987114 102.162300
v -99.278336 -16.991533 102.162300
v -99.481987 -20.007025 102.079895
v -99.644760 -17.011444 102.079895
v -100.014786 -17.031549 102.015602
v -99.852013 -20.027130 102.015602
v -100.224731 -20.047384 101.969559
v -100.387512 -17.051804 101.969559
v -100.599266 -20.067736 101.941895
v -100.762039 -17.072155 101.941895
v -225.841080 -26.873184 101.941895
v -226.003860 -23.877604 101.941895
v -226.215622 -26.893536 101.969559
v -226.378403 -23.897955 101.969559
v -226.588348 -26.913790 102.015602
v -226.751129 -23.918209 102.015602
v -226.958359 -26.933895 102.079895
v -227.121140 -23.938314 102.079895
v -227.324799 -26.953808 102.162300
v -227.487579 -23.958227 102.162300
v -227.686737 -26.973475 102.262611
v -227.849518 -23.977894 102.262611
v -228.043335 -26.992851 102.380592
v -228.206116 -23.997271 102.380592
v -228.393723 -27.011890 102.515953
v -228.556488 -24.016310 102.515953
v -228.737045 -27.030546 102.668365
v -228.899826 -24.034966 102.668365
v -229.072510 -27.048775 102.837463
v -229.235291 -24.053194 102.837463
v -229.399261 -27.066530 103.022842
v -229.562042 -24.070950 103.022842
v -229.716553 -27.083771 103.224060
v -229.879318 -24.088190 103.224060
v -230.023590 -27.100456 103.440620
v -230.186371 -24.104876 103.440620
v -230.319656 -27.116543 103.672012
v -230.482437 -24.120962 103.672012
v -230.766815 -24.136415 103.917671
v -230.604034 -27.131996 103.917671
v -230.876022 -27.146774 104.177017
v -231.038788 -24.151194 104.177017
v -231.134979 -27.160847 104.449409
v -231.297745 -24.165266 104.449409
v -231.380280 -27.174175 104.734192
v -231.543045 -24.178595 104.734192
v -231.774094 -24.191149 105.030693
v -231.611313 -27.186729 105.030693
v -231.827576 -27.198481 105.338196
v -231.990341 -24.202900 105.338196
v -232.028488 -27.209398 105.655945
v -232.191269 -24.213818 105.655945
v -232.376373 -24.223877 105.983185
v -232.213593 -27.219458 105.983185
v -232.382446 -27.228632 106.319130
v -232.545227 -24.233051 106.319130
v -232.534637 -27.236902 106.662971
v -232.697418 -24.241322 106.662971
v -232.669785 -27.244246 107.013870
v -232.832565 -24.248665 107.013870
v -232.787598 -27.250647 107.370995
v -232.950363 -24.255066 107.370995
v -232.887756 -27.256090 107.733475
v -233.050537 -24.260509 107.733475
v -232.970047 -27.260561 108.100441
v -233.132828 -24.264980 108.100441
v -233.197037 -24.268469 108.471008
v -233.034256 -27.264050 108.471008
v -233.080215 -27.266548 108.844284
v -233.242996 -24.270967 108.844284
v -233.107849 -27.268049 109.219368
v -233.270615 -24.272469 109.219368
v -233.117065 -27.268551 109.595360
v -233.279846 -24.272970 109.595360
v -103.308563 -20.214954 106.932663
v -93.323296 -19.672371 124.269966
v -103.308563 -20.214954 126.932663
v -98.397018 -19.948069 131.484726
v -98.046638 -19.929029 131.349380
v -97.703308 -19.910374 131.196960
v -97.367851 -19.892145 131.027863
v -97.041092 -19.874390 130.842484
v -96.723808 -19.857149 130.641266
v -96.416763 -19.840464 130.424698
v -96.120705 -19.824377 130.193314
v -95.836334 -19.808926 129.947647
v -95.564339 -19.794146 129.688309
v -95.305382 -19.780073 129.415924
v -95.060081 -19.766745 129.131134
v -94.829033 -19.754190 128.834625
v -94.612793 -19.742439 128.527130
v -94.411873 -19.731522 128.209381
v -94.226761 -19.721464 127.882133
v -94.057915 -19.712288 127.546188
v -93.905724 -19.704018 127.202354
v -93.770561 -19.696674 126.851448
v -93.652763 -19.690273 126.494331
v -93.552597 -19.684830 126.131851
v -93.470314 -19.680359 125.764885
v -93.406113 -19.676870 125.394318
v -93.360138 -19.674372 125.021042
v -93.332512 -19.672871 124.645958
v -98.753616 -19.967445 131.602707
v -99.115562 -19.987114 131.703018
v -99.481987 -20.007025 131.785431
v -99.852013 -20.027130 131.849731
v -100.224731 -20.047384 131.895767
v -100.599266 -20.067736 131.923431
v -100.974701 -20.088137 131.932663
v -143.249634 -22.385292 106.932663
v -143.249634 -22.385292 126.932663
v -233.117065 -27.268551 124.269966
v -225.465652 -26.852783 131.932663
v -226.958359 -26.933895 131.785431
v -227.324799 -26.953808 131.703018
v -226.588348 -26.913790 131.849731
v -226.215622 -26.893536 131.895767
v -225.841080 -26.873184 131.923431
v -232.970047 -27.260561 125.764885
v -232.787598 -27.250647 126.494331
v -232.887756 -27.256090 126.131851
v -227.686737 -26.973475 131.602707
v -228.043335 -26.992851 131.484726
v -233.080215 -27.266548 125.021042
v -232.534637 -27.236902 127.202354
v -233.034256 -27.264050 125.394318
v -232.669785 -27.244246 126.851448
v -228.737045 -27.030546 131.196960
v -228.393723 -27.011890 131.349380
v -232.382446 -27.228632 127.546188
v -229.072510 -27.048775 131.027863
v -233.107849 -27.268049 124.645958
v -232.028488 -27.209398 128.209381
v -232.213593 -27.219458 127.882133
v -231.827576 -27.198481 128.527130
v -231.611313 -27.186729 128.834625
v -229.716553 -27.083771 130.641266
v -230.023590 -27.100456 130.424698
v -229.399261 -27.066530 130.842484
v -230.319656 -27.116543 130.193314
v -231.380280 -27.174175 129.131134
v -230.604034 -27.131996 129.947647
v -231.134979 -27.160847 129.415924
v -230.876022 -27.146774 129.688309
v -103.471336 -17.219374 106.932663
v -93.486069 -16.676790 124.269966
v -103.471336 -17.219374 126.932663
v -98.559799 -16.952488 131.484726
v -98.209412 -16.933449 131.349380
v -97.866081 -16.914793 131.196960
v -97.530632 -16.896564 131.027863
v -97.203865 -16.878809 130.842484
v -96.886581 -16.861568 130.641266
v -96.579536 -16.844883 130.424698
v -96.283478 -16.828796 130.193314
v -95.999107 -16.813343 129.947647
v -95.727119 -16.798565 129.688309
v -95.468163 -16.784492 129.415924
v -95.222862 -16.771164 129.131134
v -94.991806 -16.758610 128.834625
v -94.775566 -16.746859 128.527130
v -94.574646 -16.735941 128.209381
v -94.389542 -16.725882 127.882133
v -94.220688 -16.716707 127.546188
v -94.068497 -16.708437 127.202354
v -93.933342 -16.701094 126.851448
v -93.815536 -16.694693 126.494331
v -93.715370 -16.689249 126.131851
v -93.633087 -16.684778 125.764885
v -93.568886 -16.681290 125.394318
v -93.522911 -16.678791 125.021042
v -93.495285 -16.677290 124.645958
v -98.916389 -16.971865 131.602707
v -99.278336 -16.991533 131.703018
v -99.644760 -17.011444 131.785431
v -100.014786 -17.031549 131.849731
v -100.387512 -17.051804 131.895767
v -100.762039 -17.072155 131.923431
v -101.137482 -17.092556 131.932663
v -143.412415 -19.389711 106.932663
v -143.412415 -19.389711 126.932663
v -233.279846 -24.272970 124.269966
v -225.628418 -23.857203 131.932663
v -227.487579 -23.958227 131.703018
v -227.121140 -23.938314 131.785431
v -226.751129 -23.918209 131.849731
v -226.378403 -23.897955 131.895767
v -226.003860 -23.877604 131.923431
v -232.950363 -24.255066 126.494331
v -233.132828 -24.264980 125.764885
v -233.050537 -24.260509 126.131851
v -228.206116 -23.997271 131.484726
v -227.849518 -23.977894 131.602707
v -232.697418 -24.241322 127.202354
v -233.242996 -24.270967 125.021042
v -233.197037 -24.268469 125.394318
v -232.832565 -24.248665 126.851448
v -228.899826 -24.034966 131.196960
v -228.556488 -24.016310 131.349380
v -232.545227 -24.233051 127.546188
v -229.235291 -24.053194 131.027863
v -233.270615 -24.272469 124.645958
v -232.191269 -24.213818 128.209381
v -232.376373 -24.223877 127.882133
v -231.990341 -24.202900 128.527130
v -231.774094 -24.191149 128.834625
v -230.186371 -24.104876 130.424698
v -229.879318 -24.088190 130.641266
v -229.562042 -24.070950 130.842484
v -230.482437 -24.120962 130.193314
v -231.543045 -24.178595 129.131134
v -230.766815 -24.136415 129.947647
v -231.297745 -24.165266 129.415924
v -231.038788 -24.151194 129.688309
vn -0.000000 0.000000 -1.000000
vn 0.000000 0.000000 -1.000000
vn 0.998226 0.054241 -0.024541
vn 0.998226 0.054241 -0.024541
vn 0.995822 0.054111 -0.073562
vn 0.995822 0.054111 -0.073562
vn 0.991016 0.053850 -0.122420
vn 0.991016 0.053850 -0.122420
vn 0.983828 0.053459 -0.170953
vn 0.983828 0.053459 -0.170953
vn 0.974265 0.052939 -0.219100
vn 0.974265 0.052939 -0.219100
vn 0.962355 0.052292 -0.266719
vn 0.962355 0.052292 -0.266719
vn 0.948128 0.051522 -0.313685
vn 0.948134 0.051519 -0.313667
vn 0.931621 0.050622 -0.359889
vn 0.931614 0.050624 -0.359907
vn 0.912862 0.049603 -0.405244
vn 0.912862 0.049603 -0.405244
vn 0.891906 0.048466 -0.449616
vn 0.891914 0.048465 -0.449600
vn 0.868807 0.047209 -0.492895
vn 0.868798 0.047211 -0.492910
vn 0.843604 0.045840 -0.535006
vn 0.843604 0.045840 -0.535006
vn 0.816392 0.044361 -0.575792
vn 0.816392 0.044361 -0.575792
vn 0.787178 0.042776 -0.615240
vn 0.756084 0.041086 -0.653184
vn 0.787188 0.042774 -0.615228
vn 0.756084 0.041086 -0.653184
vn 0.723180 0.039298 -0.689541
vn 0.723180 0.039298 -0.689541
vn 0.688539 0.037414 -0.724234
vn 0.688528 0.037415 -0.724244
vn 0.652207 0.035439 -0.757212
vn 0.614333 0.033381 -0.788340
vn 0.652207 0.035439 -0.757212
vn 0.614333 0.033381 -0.788340
vn 0.574953 0.031242 -0.817590
vn 0.574953 0.031242 -0.817590
vn 0.534216 0.029028 -0.844849
vn 0.492162 0.026743 -0.870093
vn 0.534216 0.029028 -0.844849
vn 0.492170 0.026745 -0.870088
vn 0.448944 0.024395 -0.893227
vn 0.448936 0.024395 -0.893231
vn 0.404644 0.021987 -0.914210
vn 0.404644 0.021987 -0.914210
vn 0.359369 0.019528 -0.932991
vn 0.359376 0.019528 -0.932988
vn 0.313233 0.017020 -0.949524
vn 0.313227 0.017021 -0.949526
vn 0.266319 0.014471 -0.963776
vn 0.266319 0.014471 -0.963776
vn 0.218779 0.011888 -0.975702
vn 0.170691 0.009275 -0.985281
vn 0.218779 0.011888 -0.975702
vn 0.170691 0.009275 -0.985281
vn 0.122241 0.006643 -0.992478
vn 0.122244 0.006642 -0.992478
vn 0.073447 0.003991 -0.997291
vn 0.073446 0.003991 -0.997291
vn 0.024509 0.001332 -0.999699
vn 0.024509 0.001332 -0.999699
vn -0.024510 -0.001332 -0.999699
vn -0.024509 -0.001332 -0.999699
vn -0.073444 -0.003991 -0.997291
vn -0.073444 -0.003991 -0.997291
vn -0.122241 -0.006643 -0.992478
vn -0.122241 -0.006643 -0.992478
vn -0.170698 -0.009276 -0.985280
vn -0.170698 -0.009276 -0.985280
vn -0.218771 -0.011888 -0.975704
vn -0.218771 -0.011888 -0.975704
vn -0.266324 -0.014472 -0.963775
vn -0.266324 -0.014472 -0.963775
vn -0.313227 -0.017021 -0.949526
vn -0.313227 -0.017021 -0.949526
vn -0.359383 -0.019527 -0.932986
vn -0.359369 -0.019528 -0.932991
vn -0.404652 -0.021987 -0.914206
vn -0.404637 -0.021988 -0.914213
vn -0.448928 -0.024395 -0.893235
vn -0.448928 -0.024395 -0.893235
vn -0.492179 -0.026745 -0.870083
vn -0.492179 -0.026745 -0.870083
vn -0.534226 -0.029027 -0.844843
vn -0.534207 -0.029029 -0.844855
vn -0.574943 -0.031243 -0.817597
vn -0.574962 -0.031241 -0.817583
vn -0.614323 -0.033383 -0.788348
vn -0.652197 -0.035441 -0.757221
vn -0.614323 -0.033383 -0.788348
vn -0.652197 -0.035441 -0.757221
vn -0.688559 -0.037413 -0.724214
vn -0.688539 -0.037415 -0.724234
vn -0.723180 -0.039294 -0.689541
vn -0.723180 -0.039294 -0.689541
vn -0.756084 -0.041082 -0.653184
vn -0.787188 -0.042772 -0.615228
vn -0.756084 -0.041082 -0.653184
vn -0.787208 -0.042777 -0.615202
vn -0.816382 -0.044358 -0.575806
vn -0.816363 -0.044361 -0.575833
vn -0.843595 -0.045841 -0.535020
vn -0.868807 -0.047211 -0.492895
vn -0.843613 -0.045838 -0.534991
vn -0.868807 -0.047211 -0.492895
vn -0.891906 -0.048466 -0.449616
vn -0.891906 -0.048466 -0.449616
vn -0.912862 -0.049605 -0.405244
vn -0.912862 -0.049605 -0.405244
vn -0.931627 -0.050625 -0.359872
vn -0.931627 -0.050625 -0.359872
vn -0.948135 -0.051517 -0.313667
vn -0.948122 -0.051521 -0.313703
vn -0.962349 -0.052294 -0.266737
vn -0.962360 -0.052290 -0.266700
vn -0.974261 -0.052942 -0.219119
vn -0.983824 -0.053461 -0.170973
vn -0.974261 -0.052942 -0.219119
vn -0.983824 -0.053461 -0.170973
vn -0.991021 -0.053852 -0.122380
vn -0.991021 -0.053852 -0.122380
vn -0.995823 -0.054108 -0.073542
vn -0.995820 -0.054113 -0.073582
vn -0.998225 -0.054244 -0.024581
vn -0.998226 -0.054239 -0.024541
vn 0.054259 -0.998527 -0.000003
vn 0.054259 -0.998527 -0.000000
vn 0.054258 -0.998527 0.000001
vn 0.054258 -0.998527 -0.000000
vn 0.054259 -0.998527 -0.000001
vn 0.054258 -0.998527 0.000002
vn 0.054258 -0.998527 0.000000
vn 0.054258 -0.998527 -0.000003
vn 0.054259 -0.998527 0.000001
vn 0.054259 -0.998527 0.000004
vn 0.054258 -0.998527 -0.000004
vn 0.054258 -0.998527 -0.000000
vn 0.054259 -0.998527 0.000003
vn 0.054258 -0.998527 -0.000002
vn 0.054258 -0.998527 -0.000002
vn 0.054259 -0.998527 0.000003
vn 0.054259 -0.998527 0.000001
vn 0.054257 -0.998527 -0.000002
vn 0.054257 -0.998527 -0.000002
vn 0.054260 -0.998527 0.000003
vn 0.054258 -0.998527 -0.000000
vn 0.054258 -0.998527 -0.000000
vn 0.054259 -0.998527 0.000001
vn 0.054258 -0.998527 -0.000001
vn 0.054259 -0.998527 0.000000
vn 0.054258 -0.998527 -0.000000
vn 0.054261 -0.998527 0.000002
vn 0.054258 -0.998527 -0.000000
vn 0.054255 -0.998527 -0.000002
vn 0.054261 -0.998527 0.000002
vn 0.054258 -0.998527 -0.000000
vn 0.054260 -0.998527 0.000001
vn 0.054258 -0.998527 0.000000
vn 0.054258 -0.998527 0.000000
vn 0.054259 -0.998527 -0.000000
vn 0.054258 -0.998527 0.000001
vn 0.054259 -0.998527 -0.000001
vn 0.054258 -0.998527 0.000000
vn 0.054258 -0.998527 0.000000
vn 0.054260 -0.998527 -0.000003
vn 0.054257 -0.998527 0.000002
vn 0.054257 -0.998527 0.000002
vn 0.054259 -0.998527 -0.000001
vn 0.054259 -0.998527 -0.000003
vn 0.054258 -0.998527 0.000002
vn 0.054258 -0.998527 0.000002
vn 0.054259 -0.998527 -0.000003
vn 0.054258 -0.998527 0.000000
vn 0.054258 -0.998527 0.000004
vn 0.054259 -0.998527 -0.000004
vn 0.054259 -0.998527 -0.000001
vn 0.054258 -0.998527 0.000003
vn 0.054258 -0.998527 -0.000000
vn 0.054258 -0.998527 -0.000002
vn 0.054259 -0.998527 0.000001
vn 0.054258 -0.998527 0.000000
vn 0.054258 -0.998527 -0.000001
vn 0.054259 -0.998527 0.000000
vn 0.054259 -0.998527 0.000003
vn 0.054258 -0.998527 0.000001
vn 0.054261 -0.998527 -0.000002
vn 0.054258 -0.998527 0.000000
vn 0.054255 -0.998527 0.000002
vn 0.054261 -0.998527 -0.000002
vn 0.054258 -0.998527 0.000000
vn 0.054260 -0.998527 -0.000001
vn 0.054258 -0.998527 0.000000
vn 0.054258 -0.998527 -0.000000
vn 0.054258 -0.998527 0.000000
vn 0.054258 -0.998527 -0.000000
vn 0.054251 -0.998527 -0.000075
vn 0.054261 -0.998527 0.000026
vn 0.054260 -0.998527 0.000018
vn 0.054257 -0.998527 -0.000017
vn 0.054261 -0.998527 0.000014
vn 0.054260 -0.998527 0.000007
vn 0.054260 -0.998527 0.000006
vn 0.054258 -0.998527 -0.000001
vn 0.054248 -0.998528 -0.000020
vn 0.054258 -0.998527 -0.000001
vn 0.054260 -0.998527 0.000006
vn 0.054255 -0.998527 -0.000012
vn 0.054236 -0.998528 -0.000024
vn 0.054328 -0.998523 0.000078
vn 0.054259 -0.998527 0.000002
vn 0.054248 -0.998527 -0.000010
vn 0.054296 -0.998525 0.000032
vn 0.054222 -0.998529 -0.000029
vn 0.054258 -0.998527 -0.000000
vn 0.054232 -0.998528 -0.000018
vn 0.054256 -0.998527 -0.000005
vn 0.054261 -0.998527 0.000004
vn 0.054258 -0.998527 -0.000002
vn 0.054260 -0.998527 0.000002
vn 0.054275 -0.998526 0.000007
vn 0.054354 -0.998522 0.000024
vn 0.054259 -0.998527 0.000000
vn 0.054282 -0.998526 0.000005
vn 0.054255 -0.998527 -0.000004
vn 0.054260 -0.998527 0.000001
vn 0.054256 -0.998527 -0.000002
vn 0.054259 -0.998527 0.000000
vn 0.054259 -0.998527 0.000000
vn 0.054258 -0.998527 -0.000000
vn 0.054245 -0.998528 0.000073
vn 0.054263 -0.998527 -0.000018
vn 0.054255 -0.998527 0.000028
vn 0.054261 -0.998527 -0.000015
vn 0.054354 -0.998522 -0.000024
vn 0.054253 -0.998527 0.000014
vn 0.054232 -0.998528 0.000007
vn 0.054264 -0.998527 -0.000002
vn 0.054275 -0.998526 -0.000007
vn 0.054239 -0.998528 0.000005
vn 0.054260 -0.998527 -0.000006
vn 0.054248 -0.998528 0.000026
vn 0.054255 -0.998527 0.000006
vn 0.054265 -0.998527 -0.000002
vn 0.054255 -0.998527 0.000002
vn 0.054261 -0.998527 -0.000001
vn 0.054259 -0.998527 0.000000
vn 0.054259 -0.998527 -0.000002
vn 0.054258 -0.998527 0.000000
vn 0.054353 -0.998522 -0.000050
vn 0.054268 -0.998526 -0.000005
vn 0.054249 -0.998527 0.000006
vn 0.054195 -0.998530 0.000097
vn 0.054265 -0.998527 -0.000009
vn 0.054293 -0.998525 -0.000050
vn 0.054260 -0.998527 -0.000001
vn 0.054251 -0.998527 0.000012
vn 0.054247 -0.998528 0.000008
vn 0.054273 -0.998526 -0.000010
vn 0.054273 -0.998526 -0.000021
vn 0.054257 -0.998527 0.000001
vn 0.054258 -0.998527 0.000000
vn -0.054259 0.998527 0.000003
vn -0.054259 0.998527 0.000000
vn -0.054258 0.998527 -0.000001
vn -0.054258 0.998527 0.000000
vn -0.054259 0.998527 0.000001
vn -0.054258 0.998527 -0.000002
vn -0.054258 0.998527 0.000001
vn -0.054258 0.998527 0.000002
vn -0.054259 0.998527 -0.000001
vn -0.054258 0.998527 0.000003
vn -0.054259 0.998527 -0.000003
vn -0.054258 0.998527 0.000000
vn -0.054259 0.998527 -0.000003
vn -0.054258 0.998527 0.000003
vn -0.054258 0.998527 0.000002
vn -0.054259 0.998527 -0.000003
vn -0.054257 0.998527 0.000004
vn -0.054260 0.998527 -0.000003
vn -0.054257 0.998527 0.000002
vn -0.054260 0.998527 -0.000003
vn -0.054258 0.998527 0.000000
vn -0.054258 0.998527 0.000001
vn -0.054260 0.998527 -0.000002
vn -0.054258 0.998527 0.000001
vn -0.054258 0.998527 0.000001
vn -0.054259 0.998527 -0.000000
vn -0.054261 0.998527 -0.000002
vn -0.054258 0.998527 0.000000
vn -0.054255 0.998527 0.000002
vn -0.054260 0.998527 -0.000001
vn -0.054259 0.998527 -0.000000
vn -0.054259 0.998527 -0.000000
vn -0.054258 0.998527 0.000000
vn -0.054258 0.998527 0.000000
vn -0.054258 0.998527 -0.000001
vn -0.054258 0.998527 -0.000001
vn -0.054260 0.998527 0.000002
vn -0.054258 0.998527 -0.000001
vn -0.054258 0.998527 -0.000000
vn -0.054260 0.998527 0.000003
vn -0.054257 0.998527 -0.000002
vn -0.054260 0.998527 0.000003
vn -0.054257 0.998527 -0.000004
vn -0.054259 0.998527 0.000003
vn -0.054258 0.998527 -0.000002
vn -0.054258 0.998527 -0.000003
vn -0.054259 0.998527 0.000003
vn -0.054258 0.998527 -0.000000
vn -0.054259 0.998527 0.000003
vn -0.054258 0.998527 -0.000003
vn -0.054259 0.998527 0.000001
vn -0.054258 0.998527 -0.000002
vn -0.054258 0.998527 -0.000001
vn -0.054258 0.998527 0.000002
vn -0.054259 0.998527 -0.000001
vn -0.054258 0.998527 -0.000000
vn -0.054258 0.998527 0.000001
vn -0.054259 0.998527 -0.000000
vn -0.054259 0.998527 -0.000003
vn -0.054259 0.998527 0.000000
vn -0.054261 0.998527 0.000002
vn -0.054258 0.998527 -0.000000
vn -0.054255 0.998527 -0.000002
vn -0.054260 0.998527 0.000001
vn -0.054259 0.998527 0.000000
vn -0.054258 0.998527 0.000000
vn -0.054258 0.998527 -0.000000
vn -0.054258 0.998527 0.000000
vn -0.054258 0.998527 0.000000
vn -0.054258 0.998527 0.000000
vn -0.054251 0.998527 0.000075
vn -0.054259 0.998527 -0.000004
vn -0.054260 0.998527 -0.000018
vn -0.054256 0.998527 0.000022
vn -0.054260 0.998527 -0.000011
vn -0.054246 0.998528 0.000035
vn -0.054258 0.998527 0.000001
vn -0.054260 0.998527 -0.000009
vn -0.054248 0.998528 0.000020
vn -0.054258 0.998527 0.000001
vn -0.054258 0.998527 0.000002
vn -0.054257 0.998527 0.000006
vn -0.054227 0.998529 0.000036
vn -0.054299 0.998525 -0.000044
vn -0.054259 0.998527 -0.000001
vn -0.054255 0.998527 0.000003
vn -0.054307 0.998524 -0.000042
vn -0.054256 0.998527 -0.000000
vn -0.054258 0.998527 0.000000
vn -0.054306 0.998524 -0.000032
vn -0.054256 0.998527 0.000005
vn -0.054261 0.998527 -0.000004
vn -0.054257 0.998527 0.000002
vn -0.054259 0.998527 -0.000001
vn -0.054233 0.998528 0.000009
vn -0.054310 0.998524 -0.000014
vn -0.054259 0.998527 -0.000001
vn -0.054267 0.998526 -0.000003
vn -0.054255 0.998527 0.000004
vn -0.054258 0.998527 0.000001
vn -0.054259 0.998527 0.000000
vn -0.054259 0.998527 0.000000
vn -0.054259 0.998527 0.000000
vn -0.054258 0.998527 0.000000
vn -0.054245 0.998528 -0.000073
vn -0.054263 0.998527 0.000018
vn -0.054255 0.998527 -0.000028
vn -0.054258 0.998527 -0.000003
vn -0.054310 0.998524 0.000014
vn -0.054253 0.998527 -0.000014
vn -0.054232 0.998528 -0.000007
vn -0.054264 0.998527 0.000002
vn -0.054233 0.998528 -0.000009
vn -0.054260 0.998527 0.000001
vn -0.054259 0.998527 0.000004
vn -0.054282 0.998526 0.000057
vn -0.054255 0.998527 -0.000006
vn -0.054265 0.998527 0.000002
vn -0.054259 0.998527 0.000000
vn -0.054257 0.998527 -0.000001
vn -0.054258 0.998527 -0.000000
vn -0.054258 0.998527 0.000001
vn -0.054258 0.998527 -0.000000
vn -0.054353 0.998522 0.000050
vn -0.054242 0.998528 -0.000009
vn -0.054275 0.998526 0.000010
vn -0.054245 0.998528 -0.000023
vn -0.054265 0.998527 0.000009
vn -0.054293 0.998525 0.000050
vn -0.054245 0.998528 -0.000008
vn -0.054251 0.998527 -0.000012
vn -0.054249 0.998527 -0.000006
vn -0.054274 0.998526 0.000011
vn -0.054265 0.998527 0.000008
vn -0.054259 0.998527 0.000000
vn -0.054258 0.998527 -0.000000
vn 0.998527 0.054258 0.000000
vn 0.998527 0.054258 0.000000
vn -0.998527 -0.054260 0.000000
vn -0.998527 -0.054260 0.000000
vn 0.024509 0.001332 0.999699
vn 0.024509 0.001332 0.999699
vn 0.073447 0.003991 0.997291
vn 0.073446 0.003991 0.997291
vn 0.122221 0.006641 0.992481
vn 0.170711 0.009276 0.985277
vn 0.122224 0.006642 0.992480
vn 0.170711 0.009276 0.985277
vn 0.218799 0.011889 0.975698
vn 0.218799 0.011889 0.975698
vn 0.266319 0.014471 0.963776
vn 0.266319 0.014471 0.963776
vn 0.313233 0.017021 0.949524
vn 0.313227 0.017020 0.949526
vn 0.359334 0.019525 0.933005
vn 0.404661 0.021988 0.914202
vn 0.359341 0.019527 0.933002
vn 0.404661 0.021988 0.914202
vn 0.448944 0.024396 0.893227
vn 0.448936 0.024394 0.893231
vn 0.492162 0.026743 0.870093
vn 0.492170 0.026745 0.870088
vn 0.534216 0.029028 0.844849
vn 0.574966 0.031242 0.817580
vn 0.534216 0.029028 0.844849
vn 0.614320 0.033381 0.788350
vn 0.574966 0.031242 0.817581
vn 0.614320 0.033381 0.788350
vn 0.652218 0.035440 0.757202
vn 0.652218 0.035440 0.757202
vn 0.688528 0.037415 0.724244
vn 0.688518 0.037412 0.724254
vn 0.723171 0.039297 0.689551
vn 0.723171 0.039297 0.689551
vn 0.756093 0.041086 0.653174
vn 0.756093 0.041086 0.653174
vn 0.787186 0.042774 0.615230
vn 0.816385 0.044361 0.575802
vn 0.787196 0.042776 0.615218
vn 0.816385 0.044361 0.575802
vn 0.843604 0.045840 0.535006
vn 0.843604 0.045840 0.535006
vn 0.868812 0.047211 0.492886
vn 0.868804 0.047209 0.492901
vn 0.891906 0.048464 0.449616
vn 0.912859 0.049603 0.405252
vn 0.891914 0.048467 0.449600
vn 0.931623 0.050622 0.359882
vn 0.912859 0.049603 0.405252
vn 0.931616 0.050624 0.359900
vn 0.948126 0.051519 0.313691
vn 0.948132 0.051522 0.313673
vn 0.962355 0.052292 0.266719
vn 0.974265 0.052939 0.219100
vn 0.962355 0.052292 0.266719
vn 0.983828 0.053459 0.170953
vn 0.974265 0.052939 0.219100
vn 0.983828 0.053459 0.170953
vn 0.991016 0.053850 0.122420
vn 0.991016 0.053850 0.122420
vn 0.995822 0.054111 0.073562
vn 0.998226 0.054241 0.024541
vn 0.995822 0.054111 0.073562
vn 0.998226 0.054241 0.024541
vn -0.998226 -0.054244 0.024541
vn -0.998225 -0.054239 0.024581
vn -0.995823 -0.054113 0.073542
vn -0.995820 -0.054108 0.073582
vn -0.991021 -0.053852 0.122380
vn -0.991021 -0.053852 0.122380
vn -0.983824 -0.053461 0.170973
vn -0.983824 -0.053461 0.170973
vn -0.974261 -0.052942 0.219119
vn -0.974261 -0.052942 0.219119
vn -0.962350 -0.052289 0.266737
vn -0.962360 -0.052295 0.266700
vn -0.948132 -0.051522 0.313673
vn -0.931630 -0.050625 0.359865
vn -0.948121 -0.051516 0.313709
vn -0.931630 -0.050625 0.359865
vn -0.912858 -0.049605 0.405252
vn -0.912858 -0.049605 0.405252
vn -0.891906 -0.048466 0.449616
vn -0.891906 -0.048466 0.449616
vn -0.868812 -0.047212 0.492886
vn -0.868812 -0.047212 0.492886
vn -0.843595 -0.045837 0.535020
vn -0.843613 -0.045842 0.534991
vn -0.816375 -0.044362 0.575815
vn -0.816356 -0.044357 0.575843
vn -0.787196 -0.042772 0.615218
vn -0.787215 -0.042778 0.615193
vn -0.756093 -0.041082 0.653174
vn -0.756093 -0.041082 0.653174
vn -0.723171 -0.039294 0.689551
vn -0.688548 -0.037412 0.724225
vn -0.723171 -0.039294 0.689551
vn -0.652208 -0.035441 0.757211
vn -0.688528 -0.037415 0.724244
vn -0.652208 -0.035441 0.757211
vn -0.614311 -0.033382 0.788358
vn -0.614311 -0.033382 0.788358
vn -0.574957 -0.031240 0.817587
vn -0.574976 -0.031244 0.817574
vn -0.534225 -0.029030 0.844843
vn -0.534207 -0.029026 0.844855
vn -0.492179 -0.026745 0.870083
vn -0.448928 -0.024395 0.893235
vn -0.492179 -0.026745 0.870083
vn -0.448928 -0.024395 0.893235
vn -0.404669 -0.021990 0.914199
vn -0.404654 -0.021987 0.914205
vn -0.359348 -0.019525 0.932999
vn -0.359334 -0.019526 0.933005
vn -0.313227 -0.017021 0.949526
vn -0.313227 -0.017021 0.949526
vn -0.266324 -0.014472 0.963775
vn -0.218790 -0.011889 0.975700
vn -0.266324 -0.014472 0.963775
vn -0.218790 -0.011889 0.975700
vn -0.170718 -0.009277 0.985276
vn -0.170718 -0.009277 0.985276
vn -0.122221 -0.006642 0.992481
vn -0.122221 -0.006642 0.992481
vn -0.073444 -0.003991 0.997291
vn -0.073444 -0.003991 0.997291
vn -0.024509 -0.001332 0.999699
vn -0.024510 -0.001332 0.999699
vn 0.000000 -0.000000 1.000000
vn 0.000000 0.000000 1.000000
vn 0.000000 0.000000 -1.000000
vn 0.000000 0.000000 -1.000000
vn -0.998527 -0.054258 -0.000000
vn -0.998527 -0.054258 -0.000000
vn 0.000000 0.000000 1.000000
vn 0.000000 0.000000 1.000000
vn 0.998527 0.054260 -0.000000
vn 0.998527 0.054260 -0.000000
f 1//1 2//1 3//1
f 1//2 4//2 2//2
f 5//3 6//3 7//3
f 7//4 6//4 8//4
f 8//5 9//5 10//5
f 6//6 9//6 8//6
f 10//7 11//7 12//7
f 9//8 11//8 10//8
f 12//9 13//9 14//9
f 11//10 13//10 12//10
f 14//11 15//11 16//11
f 13//12 15//12 14//12
f 16//13 17//13 18//13
f 15//14 17//14 16//14
f 18//15 19//15 20//15
f 17//16 19//16 18//16
f 20//17 21//17 22//17
f 19//18 21//18 20//18
f 21//19 23//19 22//19
f 22//20 23//20 24//20
f 24//21 25//21 26//21
f 23//22 25//22 24//22
f 26//23 27//23 28//23
f 25//24 27//24 26//24
f 28//25 29//25 30//25
f 27//26 29//26 28//26
f 30//27 31//27 32//27
f 29//28 31//28 30//28
f 32//29 33//29 34//29
f 34//30 33//30 35//30
f 31//31 33//31 32//31
f 33//32 36//32 35//32
f 35//33 37//33 38//33
f 36//34 37//34 35//34
f 38//35 39//35 40//35
f 37//36 39//36 38//36
f 40//37 41//37 42//37
f 42//38 41//38 43//38
f 39//39 41//39 40//39
f 41//40 44//40 43//40
f 43//41 45//41 46//41
f 44//42 45//42 43//42
f 46//43 47//43 48//43
f 48//44 47//44 49//44
f 45//45 47//45 46//45
f 47//46 50//46 49//46
f 49//47 51//47 52//47
f 50//48 51//48 49//48
f 52//49 53//49 54//49
f 51//50 53//50 52//50
f 54//51 55//51 56//51
f 53//52 55//52 54//52
f 56//53 57//53 58//53
f 55//54 57//54 56//54
f 58//55 59//55 60//55
f 57//56 59//56 58//56
f 60//57 61//57 62//57
f 62//58 61//58 63//58
f 59//59 61//59 60//59
f 61//60 64//60 63//60
f 63//61 65//61 66//61
f 64//62 65//62 63//62
f 66//63 67//63 68//63
f 65//64 67//64 66//64
f 68//65 1//65 3//65
f 67//66 1//66 68//66
f 4//67 69//67 2//67
f 2//68 69//68 70//68
f 70//69 71//69 72//69
f 69//70 71//70 70//70
f 72//71 73//71 74//71
f 71//72 73//72 72//72
f 74//73 75//73 76//73
f 73//74 75//74 74//74
f 76//75 77//75 78//75
f 75//76 77//76 76//76
f 78//77 79//77 80//77
f 77//78 79//78 78//78
f 80//79 81//79 82//79
f 79//80 81//80 80//80
f 82//81 83//81 84//81
f 81//82 83//82 82//82
f 83//83 85//83 84//83
f 84//84 85//84 86//84
f 86//85 87//85 88//85
f 85//86 87//86 86//86
f 88//87 89//87 90//87
f 87//88 89//88 88//88
f 90//89 91//89 92//89
f 89//90 91//90 90//90
f 92//91 93//91 94//91
f 91//92 93//92 92//92
f 94//93 95//93 96//93
f 96//94 95//94 97//94
f 93//95 95//95 94//95
f 95//96 98//96 97//96
f 97//97 99//97 100//97
f 98//98 99//98 97//98
f 100//99 101//99 102//99
f 99//100 101//100 100//100
f 102//101 103//101 104//101
f 104//102 103//102 105//102
f 101//103 103//103 102//103
f 103//104 106//104 105//104
f 105//105 107//105 108//105
f 106//106 107//106 105//106
f 108//107 109//107 110//107
f 110//108 109//108 111//108
f 107//109 109//109 108//109
f 109//110 112//110 111//110
f 111//111 113//111 114//111
f 112//112 113//112 111//112
f 114//113 115//113 116//113
f 113//114 115//114 114//114
f 116//115 117//115 118//115
f 115//116 117//116 116//116
f 118//117 119//117 120//117
f 117//118 119//118 118//118
f 120//119 121//119 122//119
f 119//120 121//120 120//120
f 122//121 123//121 124//121
f 124//122 123//122 125//122
f 121//123 123//123 122//123
f 123//124 126//124 125//124
f 125//125 127//125 128//125
f 126//126 127//126 125//126
f 128//127 129//127 130//127
f 127//128 129//128 128//128
f 130//129 131//129 132//129
f 129//130 131//130 130//130
f 5//131 133//131 6//131
f 6//132 133//132 9//132
f 9//133 133//133 11//133
f 11//134 133//134 13//134
f 13//135 133//135 15//135
f 15//136 133//136 17//136
f 17//137 133//137 19//137
f 19//138 133//138 21//138
f 21//139 133//139 23//139
f 23//140 133//140 25//140
f 25//141 133//141 27//141
f 27//142 133//142 29//142
f 29//143 133//143 31//143
f 31//144 133//144 33//144
f 33//145 133//145 36//145
f 36//146 133//146 37//146
f 37//147 133//147 39//147
f 39//148 133//148 41//148
f 41//149 133//149 44//149
f 44//150 133//150 45//150
f 45//151 133//151 47//151
f 47//152 133//152 50//152
f 50//153 133//153 51//153
f 51//154 133//154 53//154
f 53//155 133//155 55//155
f 55//156 133//156 57//156
f 57//157 133//157 59//157
f 59//158 133//158 61//158
f 61//159 133//159 64//159
f 64//160 133//160 65//160
f 65//161 133//161 67//161
f 67//162 133//162 1//162
f 5//163 134//163 133//163
f 134//164 135//164 133//164
f 136//165 135//165 137//165
f 137//166 135//166 138//166
f 138//167 135//167 139//167
f 139//168 135//168 140//168
f 140//169 135//169 141//169
f 141//170 135//170 142//170
f 142//171 135//171 143//171
f 143//172 135//172 144//172
f 144//173 135//173 145//173
f 145//174 135//174 146//174
f 146//175 135//175 147//175
f 147//176 135//176 148//176
f 148//177 135//177 149//177
f 149//178 135//178 150//178
f 150//179 135//179 151//179
f 151//180 135//180 152//180
f 152//181 135//181 153//181
f 153//182 135//182 154//182
f 154//183 135//183 155//183
f 155//184 135//184 156//184
f 156//185 135//185 157//185
f 157//186 135//186 158//186
f 158//187 135//187 159//187
f 159//188 135//188 160//188
f 160//189 135//189 134//189
f 136//190 161//190 135//190
f 161//191 162//191 135//191
f 162//192 163//192 135//192
f 163//193 164//193 135//193
f 164//194 165//194 135//194
f 165//195 166//195 135//195
f 166//196 167//196 135//196
f 133//197 168//197 1//197
f 167//198 169//198 135//198
f 169//199 4//199 168//199
f 168//200 4//200 1//200
f 69//201 73//201 71//201
f 4//202 75//202 69//202
f 69//203 75//203 73//203
f 4//204 77//204 75//204
f 4//205 79//205 77//205
f 79//206 83//206 81//206
f 4//207 83//207 79//207
f 4//208 85//208 83//208
f 85//209 89//209 87//209
f 4//210 89//210 85//210
f 4//211 91//211 89//211
f 4//212 93//212 91//212
f 93//213 99//213 95//213
f 95//214 99//214 98//214
f 4//215 106//215 93//215
f 93//216 106//216 99//216
f 99//217 106//217 101//217
f 101//218 106//218 103//218
f 4//219 109//219 106//219
f 106//220 109//220 107//220
f 4//221 112//221 109//221
f 4//222 113//222 112//222
f 4//223 115//223 113//223
f 4//224 119//224 115//224
f 115//225 119//225 117//225
f 119//226 123//226 121//226
f 4//227 126//227 119//227
f 119//228 126//228 123//228
f 4//229 127//229 126//229
f 4//230 129//230 127//230
f 4//231 131//231 129//231
f 4//232 170//232 131//232
f 4//233 171//233 170//233
f 169//234 171//234 4//234
f 172//235 173//235 174//235
f 174//236 173//236 175//236
f 175//237 173//237 176//237
f 176//238 173//238 171//238
f 177//239 178//239 179//239
f 180//240 181//240 173//240
f 182//241 183//241 184//241
f 184//242 183//242 177//242
f 178//243 183//243 185//243
f 177//244 183//244 178//244
f 173//245 186//245 171//245
f 187//246 186//246 181//246
f 181//247 186//247 173//247
f 182//248 188//248 183//248
f 170//249 189//249 190//249
f 190//250 189//250 182//250
f 171//251 189//251 170//251
f 186//252 189//252 171//252
f 182//253 189//253 188//253
f 188//254 191//254 192//254
f 188//255 193//255 191//255
f 188//256 194//256 193//256
f 195//257 196//257 197//257
f 197//258 198//258 189//258
f 196//259 198//259 197//259
f 188//260 199//260 194//260
f 198//261 200//261 189//261
f 188//262 201//262 199//262
f 188//263 202//263 201//263
f 200//264 202//264 189//264
f 189//265 202//265 188//265
f 167//266 171//266 169//266
f 203//267 7//267 8//267
f 203//268 8//268 10//268
f 203//269 10//269 12//269
f 203//270 12//270 14//270
f 203//271 14//271 16//271
f 203//272 16//272 18//272
f 203//273 18//273 20//273
f 203//274 20//274 22//274
f 203//275 22//275 24//275
f 203//276 24//276 26//276
f 203//277 26//277 28//277
f 203//278 28//278 30//278
f 203//279 30//279 32//279
f 203//280 32//280 34//280
f 203//281 34//281 35//281
f 203//282 35//282 38//282
f 203//283 38//283 40//283
f 203//284 40//284 42//284
f 203//285 42//285 43//285
f 203//286 43//286 46//286
f 203//287 46//287 48//287
f 203//288 48//288 49//288
f 203//289 49//289 52//289
f 203//290 52//290 54//290
f 203//291 54//291 56//291
f 203//292 56//292 58//292
f 203//293 58//293 60//293
f 203//294 60//294 62//294
f 203//295 62//295 63//295
f 203//296 63//296 66//296
f 203//297 66//297 68//297
f 203//298 68//298 3//298
f 204//299 7//299 203//299
f 205//300 204//300 203//300
f 205//301 206//301 207//301
f 205//302 207//302 208//302
f 205//303 208//303 209//303
f 205//304 209//304 210//304
f 205//305 210//305 211//305
f 205//306 211//306 212//306
f 205//307 212//307 213//307
f 205//308 213//308 214//308
f 205//309 214//309 215//309
f 205//310 215//310 216//310
f 205//311 216//311 217//311
f 205//312 217//312 218//312
f 205//313 218//313 219//313
f 205//314 219//314 220//314
f 205//315 220//315 221//315
f 205//316 221//316 222//316
f 205//317 222//317 223//317
f 205//318 223//318 224//318
f 205//319 224//319 225//319
f 205//320 225//320 226//320
f 205//321 226//321 227//321
f 205//322 227//322 228//322
f 205//323 228//323 229//323
f 205//324 229//324 230//324
f 205//325 230//325 204//325
f 231//326 206//326 205//326
f 232//327 231//327 205//327
f 233//328 232//328 205//328
f 234//329 233//329 205//329
f 235//330 234//330 205//330
f 236//331 235//331 205//331
f 237//332 236//332 205//332
f 238//333 203//333 3//333
f 239//334 237//334 205//334
f 2//335 239//335 238//335
f 2//336 238//336 3//336
f 74//337 70//337 72//337
f 76//338 2//338 70//338
f 76//339 70//339 74//339
f 78//340 2//340 76//340
f 80//341 2//341 78//341
f 84//342 80//342 82//342
f 84//343 2//343 80//343
f 86//344 2//344 84//344
f 90//345 86//345 88//345
f 90//346 2//346 86//346
f 92//347 2//347 90//347
f 94//348 2//348 92//348
f 100//349 94//349 96//349
f 100//350 96//350 97//350
f 105//351 2//351 94//351
f 105//352 94//352 100//352
f 105//353 100//353 102//353
f 105//354 102//354 104//354
f 110//355 2//355 105//355
f 110//356 105//356 108//356
f 111//357 2//357 110//357
f 114//358 2//358 111//358
f 116//359 2//359 114//359
f 120//360 2//360 116//360
f 120//361 116//361 118//361
f 124//362 120//362 122//362
f 125//363 2//363 120//363
f 125//364 120//364 124//364
f 128//365 2//365 125//365
f 130//366 2//366 128//366
f 132//367 2//367 130//367
f 240//368 2//368 132//368
f 241//369 2//369 240//369
f 241//370 239//370 2//370
f 242//371 243//371 244//371
f 242//372 244//372 245//372
f 242//373 245//373 246//373
f 242//374 246//374 241//374
f 247//375 248//375 249//375
f 250//376 251//376 242//376
f 252//377 253//377 254//377
f 252//378 254//378 248//378
f 252//379 247//379 255//379
f 252//380 248//380 247//380
f 256//381 242//381 241//381
f 256//382 257//382 250//382
f 256//383 250//383 242//383
f 258//384 253//384 252//384
f 259//385 240//385 260//385
f 259//386 260//386 253//386
f 259//387 241//387 240//387
f 259//388 256//388 241//388
f 259//389 253//389 258//389
f 261//390 258//390 262//390
f 263//391 258//391 261//391
f 264//392 258//392 263//392
f 265//393 266//393 267//393
f 268//394 267//394 259//394
f 268//395 265//395 267//395
f 269//396 258//396 264//396
f 270//397 268//397 259//397
f 271//398 258//398 269//398
f 272//399 258//399 271//399
f 272//400 270//400 259//400
f 272//401 259//401 258//401
f 241//402 237//402 239//402
f 134//403 5//403 204//403
f 204//404 5//404 7//404
f 131//405 170//405 132//405
f 132//406 170//406 240//406
f 167//407 166//407 237//407
f 237//408 166//408 236//408
f 236//409 165//409 235//409
f 166//410 165//410 236//410
f 235//411 164//411 234//411
f 234//412 164//412 233//412
f 165//413 164//413 235//413
f 164//414 163//414 233//414
f 233//415 162//415 232//415
f 163//416 162//416 233//416
f 232//417 161//417 231//417
f 162//418 161//418 232//418
f 231//419 136//419 206//419
f 161//420 136//420 231//420
f 206//421 137//421 207//421
f 207//422 137//422 208//422
f 136//423 137//423 206//423
f 137//424 138//424 208//424
f 208//425 139//425 209//425
f 138//426 139//426 208//426
f 209//427 140//427 210//427
f 139//428 140//428 209//428
f 210//429 141//429 211//429
f 211//430 141//430 212//430
f 140//431 141//431 210//431
f 212//432 142//432 213//432
f 141//433 142//433 212//433
f 142//434 143//434 213//434
f 213//435 144//435 214//435
f 143//436 144//436 213//436
f 214//437 145//437 215//437
f 144//438 145//438 214//438
f 215//439 146//439 216//439
f 145//440 146//440 215//440
f 216//441 147//441 217//441
f 146//442 147//442 216//442
f 217//443 148//443 218//443
f 218//444 148//444 219//444
f 147//445 148//445 217//445
f 148//446 149//446 219//446
f 219//447 150//447 220//447
f 149//448 150//448 219//448
f 220//449 151//449 221//449
f 150//450 151//450 220//450
f 221//451 152//451 222//451
f 222//452 152//452 223//452
f 151//453 152//453 221//453
f 223//454 153//454 224//454
f 152//455 153//455 223//455
f 153//456 154//456 224//456
f 224//457 155//457 225//457
f 154//458 155//458 224//458
f 225//459 156//459 226//459
f 226//460 156//460 227//460
f 155//461 156//461 225//461
f 227//462 157//462 228//462
f 156//463 157//463 227//463
f 157//464 158//464 228//464
f 228//465 159//465 229//465
f 158//466 159//466 228//466
f 229//467 160//467 230//467
f 230//468 160//468 204//468
f 159//469 160//469 229//469
f 160//470 134//470 204//470
f 170//471 190//471 240//471
f 240//472 190//472 260//472
f 260//473 182//473 253//473
f 190//474 182//474 260//474
f 253//475 184//475 254//475
f 182//476 184//476 253//476
f 254//477 177//477 248//477
f 184//478 177//478 254//478
f 248//479 179//479 249//479
f 177//480 179//480 248//480
f 249//481 178//481 247//481
f 179//482 178//482 249//482
f 247//483 185//483 255//483
f 255//484 185//484 252//484
f 178//485 185//485 247//485
f 185//486 183//486 252//486
f 183//487 188//487 252//487
f 252//488 188//488 258//488
f 258//489 192//489 262//489
f 188//490 192//490 258//490
f 262//491 191//491 261//491
f 192//492 191//492 262//492
f 261//493 193//493 263//493
f 191//494 193//494 261//494
f 263//495 194//495 264//495
f 193//496 194//496 263//496
f 264//497 199//497 269//497
f 194//498 199//498 264//498
f 269//499 201//499 271//499
f 199//500 201//500 269//500
f 271//501 202//501 272//501
f 272//502 202//502 270//502
f 201//503 202//503 271//503
f 270//504 200//504 268//504
f 202//505 200//505 270//505
f 200//506 198//506 268//506
f 268//507 196//507 265//507
f 198//508 196//508 268//508
f 265//509 195//509 266//509
f 196//510 195//510 265//510
f 266//511 197//511 267//511
f 195//512 197//512 266//512
f 267//513 189//513 259//513
f 259//514 189//514 256//514
f 197//515 189//515 267//515
f 189//516 186//516 256//516
f 186//517 187//517 256//517
f 256//518 187//518 257//518
f 257//519 187//519 250//519
f 187//520 181//520 250//520
f 250//521 180//521 251//521
f 181//522 180//522 250//522
f 251//523 173//523 242//523
f 242//524 173//524 243//524
f 180//525 173//525 251//525
f 173//526 172//526 243//526
f 243//527 174//527 244//527
f 172//528 174//528 243//528
f 244//529 175//529 245//529
f 174//530 175//530 244//530
f 245//531 176//531 246//531
f 175//532 176//532 245//532
f 246//533 171//533 241//533
f 176//534 171//534 246//534
f 171//535 237//535 241//535
f 171//536 167//536 237//536
f 239//537 205//537 169//537
f 169//538 205//538 135//538
f 205//539 203//539 135//539
f 135//540 203//540 133//540
f 203//541 238//541 133//541
f 133//542 238//542 168//542
f 238//543 239//543 168//543
f 168//544 239//544 169//544
