# Created by FreeCAD <https://www.freecad.org>
v -32.408859 -24.650059 115.959999
v -32.257160 -24.641815 114.223518
v -32.300343 -26.647114 115.959999
v -32.148643 -26.638870 114.223518
v -31.806673 -24.617336 112.539803
v -31.698156 -26.614391 112.539803
v -31.071087 -24.577366 110.959999
v -30.962570 -26.574421 110.959999
v -30.072750 -24.523119 109.532127
v -29.964231 -26.520172 109.532127
v -28.841997 -24.456242 108.299561
v -28.733480 -26.453295 108.299561
v -27.416224 -24.378767 107.299744
v -27.307707 -26.375820 107.299744
v -25.838753 -24.293049 106.563072
v -25.730236 -26.290104 106.563072
v -24.157513 -24.201694 106.111923
v -24.048996 -26.198748 106.111923
v -22.423590 -24.107475 105.959999
v -20.689665 -24.013256 106.111923
v -20.581148 -26.010309 106.111923
v -19.008427 -23.921900 106.563072
v -18.899910 -25.918953 106.563072
v -17.430954 -23.836184 107.299744
v -17.322437 -25.833237 107.299744
v -16.005182 -23.758709 108.299561
v -15.896666 -25.755762 108.299561
v -14.774429 -23.691832 109.532127
v -14.665913 -25.688885 109.532127
v -13.776093 -23.637583 110.959999
v -13.667575 -25.634636 110.959999
v -13.040505 -23.597612 112.539803
v -12.931989 -25.594666 112.539803
v -12.481502 -25.570187 114.223518
v -12.590018 -23.573133 114.223518
v -12.438320 -23.564890 115.959999
v -12.329803 -25.561945 115.959999
v -12.481502 -25.570187 117.696480
v -12.590018 -23.573133 117.696480
v -13.040505 -23.597612 119.380203
v -12.931989 -25.594666 119.380203
v -13.776093 -23.637583 120.959999
v -13.667575 -25.634636 120.959999
v -14.665913 -25.688885 122.387878
v -14.774429 -23.691832 122.387878
v -16.005182 -23.758709 123.620445
v -15.896666 -25.755762 123.620445
v -17.322437 -25.833237 124.620255
v -17.430954 -23.836184 124.620255
v -19.008427 -23.921900 125.356926
v -18.899910 -25.918953 125.356926
v -20.689665 -24.013256 125.808083
v -22.423590 -24.107475 125.959999
v -24.157513 -24.201694 125.808083
v -25.838753 -24.293049 125.356926
v -25.730236 -26.290104 125.356926
v -27.416224 -24.378767 124.620255
v -27.307707 -26.375820 124.620255
v -28.841997 -24.456242 123.620445
v -28.733480 -26.453295 123.620445
v -29.964231 -26.520172 122.387878
v -30.072750 -24.523119 122.387878
v -31.071087 -24.577366 120.959999
v -30.962570 -26.574421 120.959999
v -31.806673 -24.617336 119.380203
v -31.698156 -26.614391 119.380203
v -32.257160 -24.641815 117.696480
v -32.148643 -26.638870 117.696480
v -20.928774 -24.026249 117.286247
v -21.289133 -24.045830 117.605972
v -20.655287 -24.011389 116.889450
v -21.715424 -24.068995 117.830032
v -20.484566 -24.002111 116.438629
v -22.182871 -24.094395 117.945419
v -20.426535 -23.998959 115.959999
v -22.664309 -24.120556 117.945419
v -20.484566 -24.002111 115.481369
v -23.131754 -24.145956 117.830032
v -20.655287 -24.011389 115.030556
v -23.558044 -24.169119 117.605972
v -20.928774 -24.026249 114.633759
v -23.918406 -24.188702 117.286247
v -21.289133 -24.045830 114.314034
v -24.191893 -24.203562 116.889450
v -21.715424 -24.068995 114.089966
v -24.362612 -24.212839 116.438629
v -24.420643 -24.215992 115.959999
v -22.182871 -24.094395 113.974586
v -22.664309 -24.120556 113.974586
v -24.362612 -24.212839 115.481369
v -23.131754 -24.145956 114.089966
v -24.191893 -24.203562 115.030556
v -23.558044 -24.169119 114.314034
v -23.918406 -24.188702 114.633759
v -20.581148 -26.010309 125.808083
v -22.315073 -26.104528 125.959999
v -24.048996 -26.198748 125.808083
v -22.315073 -26.104528 105.959999
v -24.637676 -20.221884 115.959999
v -24.579647 -20.218731 116.438629
v -24.408926 -20.209454 116.889450
v -24.135439 -20.194593 117.286247
v -23.775080 -20.175013 117.605972
v -23.348787 -20.151848 117.830032
v -22.881342 -20.126448 117.945419
v -22.399904 -20.100286 117.945419
v -21.932459 -20.074886 117.830032
v -21.506166 -20.051722 117.605972
v -21.145807 -20.032141 117.286247
v -20.872320 -20.017281 116.889450
v -20.701599 -20.008003 116.438629
v -20.643570 -20.004850 115.959999
v -20.701599 -20.008003 115.481369
v -20.872320 -20.017281 115.030556
v -21.145807 -20.032141 114.633759
v -21.506166 -20.051722 114.314034
v -21.932459 -20.074886 114.089966
v -22.399904 -20.100286 113.974586
v -22.881342 -20.126448 113.974586
v -23.348787 -20.151848 114.089966
v -23.775080 -20.175013 114.314034
v -24.135439 -20.194593 114.633759
v -24.408926 -20.209454 115.030556
v -24.579647 -20.218731 115.481369
vn -0.994727 -0.054052 -0.087156
vn -0.994727 -0.054052 -0.087156
vn -0.964503 -0.052409 -0.258820
vn -0.964503 -0.052409 -0.258820
vn -0.904973 -0.049175 -0.422617
vn -0.904973 -0.049175 -0.422617
vn -0.817944 -0.044447 -0.573578
vn -0.817945 -0.044446 -0.573578
vn -0.706065 -0.038366 -0.707107
vn -0.706065 -0.038367 -0.707107
vn -0.572734 -0.031121 -0.819150
vn -0.572734 -0.031121 -0.819150
vn -0.421996 -0.022931 -0.906308
vn -0.421996 -0.022931 -0.906308
vn -0.258436 -0.014043 -0.965926
vn -0.258436 -0.014043 -0.965926
vn -0.087028 -0.004729 -0.996195
vn -0.087028 -0.004729 -0.996195
vn 0.087028 0.004729 -0.996195
vn 0.087028 0.004729 -0.996195
vn 0.258437 0.014043 -0.965926
vn 0.258437 0.014043 -0.965926
vn 0.421995 0.022931 -0.906308
vn 0.421995 0.022931 -0.906308
vn 0.572735 0.031121 -0.819150
vn 0.572735 0.031121 -0.819150
vn 0.706065 0.038366 -0.707107
vn 0.706065 0.038366 -0.707107
vn 0.817944 0.044446 -0.573578
vn 0.817945 0.044446 -0.573578
vn 0.904973 0.049175 -0.422617
vn 0.964503 0.052410 -0.258820
vn 0.904973 0.049175 -0.422617
vn 0.964503 0.052410 -0.258820
vn 0.994727 0.054052 -0.087155
vn 0.994727 0.054052 0.087155
vn 0.994727 0.054052 -0.087155
vn 0.994727 0.054052 0.087155
vn 0.964503 0.052410 0.258819
vn 0.964503 0.052410 0.258819
vn 0.904973 0.049175 0.422618
vn 0.817946 0.044446 0.573576
vn 0.904972 0.049175 0.422619
vn 0.817946 0.044446 0.573576
vn 0.706065 0.038366 0.707107
vn 0.572732 0.031121 0.819152
vn 0.706065 0.038366 0.707107
vn 0.572732 0.031121 0.819152
vn 0.421995 0.022931 0.906308
vn 0.421995 0.022931 0.906308
vn 0.258441 0.014043 0.965925
vn 0.258441 0.014043 0.965925
vn 0.087024 0.004729 0.996195
vn 0.087024 0.004729 0.996195
vn -0.087024 -0.004729 0.996195
vn -0.087024 -0.004729 0.996195
vn -0.258441 -0.014043 0.965925
vn -0.258441 -0.014043 0.965925
vn -0.421996 -0.022931 0.906308
vn -0.421995 -0.022931 0.906308
vn -0.572731 -0.031121 0.819152
vn -0.706065 -0.038366 0.707107
vn -0.572731 -0.031121 0.819152
vn -0.706065 -0.038367 0.707107
vn -0.817946 -0.044447 0.573576
vn -0.817945 -0.044446 0.573576
vn -0.904973 -0.049175 0.422618
vn -0.904973 -0.049175 0.422618
vn -0.964503 -0.052410 0.258819
vn -0.964503 -0.052410 0.258819
vn -0.994727 -0.054052 0.087156
vn -0.994727 -0.054052 0.087156
vn -0.054259 0.998527 0.000000
vn -0.054258 0.998527 0.000000
vn -0.054259 0.998527 0.000000
vn -0.054258 0.998527 -0.000001
vn -0.054258 0.998527 -0.000000
vn -0.054258 0.998527 -0.000001
vn -0.054258 0.998527 -0.000000
vn -0.054259 0.998527 -0.000000
vn -0.054260 0.998527 0.000001
vn -0.054258 0.998527 0.000000
vn -0.054259 0.998527 0.000001
vn -0.054259 0.998527 0.000000
vn -0.054258 0.998527 -0.000000
vn -0.054259 0.998527 -0.000000
vn -0.054259 0.998527 0.000000
vn -0.054258 0.998527 -0.000001
vn -0.054260 0.998527 -0.000000
vn -0.054259 0.998527 -0.000000
vn -0.054258 0.998527 -0.000000
vn -0.054258 0.998527 0.000001
vn -0.054258 0.998527 0.000000
vn -0.054257 0.998527 0.000000
vn -0.054259 0.998527 -0.000000
vn -0.054259 0.998527 -0.000001
vn -0.054258 0.998527 0.000000
vn -0.054256 0.998527 0.000001
vn -0.054259 0.998527 -0.000000
vn -0.054259 0.998527 -0.000000
vn -0.054258 0.998527 0.000001
vn -0.054260 0.998527 -0.000002
vn -0.054258 0.998527 -0.000000
vn -0.054258 0.998527 -0.000000
vn -0.054258 0.998527 0.000001
vn -0.054258 0.998527 0.000001
vn -0.054258 0.998527 0.000001
vn -0.054259 0.998527 -0.000000
vn -0.054260 0.998527 -0.000001
vn -0.054259 0.998527 -0.000001
vn -0.054258 0.998527 0.000000
vn -0.054258 0.998527 0.000000
vn -0.054258 0.998527 -0.000000
vn -0.054258 0.998527 0.000001
vn -0.054259 0.998527 0.000000
vn -0.054258 0.998527 0.000000
vn -0.054258 0.998527 -0.000000
vn -0.054260 0.998527 -0.000000
vn -0.054259 0.998527 -0.000000
vn -0.054258 0.998527 -0.000001
vn -0.054258 0.998527 0.000000
vn -0.054258 0.998527 -0.000000
vn -0.054259 0.998527 0.000000
vn -0.054259 0.998527 0.000001
vn -0.054258 0.998527 0.000000
vn -0.054257 0.998527 -0.000000
vn -0.054256 0.998527 -0.000001
vn -0.054259 0.998527 0.000000
vn -0.054258 0.998527 -0.000000
vn -0.054258 0.998527 -0.000001
vn -0.054258 0.998527 -0.000001
vn -0.054259 0.998527 0.000000
vn -0.054260 0.998527 0.000002
vn -0.054258 0.998527 0.000000
vn 0.054257 -0.998527 -0.000001
vn 0.054258 -0.998527 -0.000001
vn 0.054256 -0.998527 -0.000004
vn 0.054257 -0.998527 -0.000000
vn 0.054249 -0.998527 0.000000
vn 0.054258 -0.998527 0.000000
vn 0.054258 -0.998527 0.000000
vn 0.054259 -0.998527 0.000000
vn 0.054259 -0.998527 0.000000
vn 0.054259 -0.998527 0.000000
vn 0.054259 -0.998527 -0.000001
vn 0.054256 -0.998527 0.000004
vn 0.054257 -0.998527 0.000001
vn 0.054260 -0.998527 -0.000001
vn 0.054259 -0.998527 0.000000
vn 0.054259 -0.998527 -0.000000
vn 0.054259 -0.998527 0.000000
vn 0.054261 -0.998527 -0.000001
vn 0.054258 -0.998527 0.000000
vn 0.054258 -0.998527 0.000000
vn 0.054259 -0.998527 0.000000
vn 0.054261 -0.998527 0.000000
vn 0.054259 -0.998527 0.000001
vn 0.054259 -0.998527 0.000000
vn 0.054259 -0.998527 0.000000
vn 0.054258 -0.998527 -0.000001
vn 0.054259 -0.998527 0.000002
vn 0.054257 -0.998527 -0.000000
vn 0.054260 -0.998527 0.000001
vn 0.054259 -0.998527 -0.000000
vn 0.054258 -0.998527 0.000000
vn 0.054258 -0.998527 -0.000000
vn 0.054259 -0.998527 0.000000
vn 0.054258 -0.998527 -0.000000
vn -0.991246 -0.053863 0.120538
vn -0.991247 -0.053863 0.120534
vn -0.933640 -0.050732 0.354603
vn -0.933641 -0.050733 0.354600
vn -0.821770 -0.044654 0.568066
vn -0.821770 -0.044654 0.568066
vn -0.662150 -0.035981 0.748507
vn -0.662148 -0.035980 0.748509
vn -0.464030 -0.025215 0.885461
vn -0.464031 -0.025215 0.885460
vn -0.238967 -0.012985 0.970941
vn -0.000000 0.000000 1.000000
vn -0.238967 -0.012985 0.970941
vn 0.000000 0.000000 1.000000
vn 0.238967 0.012985 0.970941
vn 0.238966 0.012985 0.970941
vn 0.464030 0.025215 0.885461
vn 0.464031 0.025215 0.885460
vn 0.662150 0.035980 0.748507
vn 0.662150 0.035980 0.748507
vn 0.821770 0.044654 0.568066
vn 0.821770 0.044654 0.568066
vn 0.933640 0.050732 0.354603
vn 0.933640 0.050732 0.354603
vn 0.991246 0.053863 0.120538
vn 0.991247 0.053863 0.120534
vn 0.991247 0.053863 -0.120534
vn 0.991246 0.053863 -0.120538
vn 0.933637 0.050732 -0.354609
vn 0.821770 0.044654 -0.568066
vn 0.933637 0.050732 -0.354609
vn 0.821770 0.044654 -0.568066
vn 0.662150 0.035980 -0.748507
vn 0.662150 0.035980 -0.748507
vn 0.464042 0.025216 -0.885454
vn 0.464044 0.025215 -0.885453
vn 0.238952 0.012984 -0.970944
vn 0.000000 -0.000000 -1.000000
vn 0.238951 0.012984 -0.970945
vn -0.000000 0.000000 -1.000000
vn -0.238952 -0.012984 -0.970944
vn -0.238952 -0.012984 -0.970944
vn -0.464042 -0.025216 -0.885454
vn -0.464044 -0.025215 -0.885453
vn -0.662150 -0.035980 -0.748507
vn -0.662148 -0.035980 -0.748509
vn -0.821770 -0.044654 -0.568066
vn -0.821770 -0.044654 -0.568066
vn -0.933637 -0.050733 -0.354609
vn -0.933639 -0.050732 -0.354605
vn -0.991246 -0.053863 -0.120538
vn -0.991247 -0.053863 -0.120534
vn -0.054260 0.998527 0.000006
vn -0.054259 0.998527 -0.000002
vn -0.054259 0.998527 0.000002
vn -0.054259 0.998527 -0.000003
vn -0.054259 0.998527 0.000002
vn -0.054258 0.998527 -0.000001
vn -0.054258 0.998527 -0.000002
vn -0.054259 0.998527 0.000002
vn -0.054259 0.998527 0.000001
vn -0.054258 0.998527 -0.000001
vn -0.054259 0.998527 0.000001
vn -0.054258 0.998527 -0.000001
vn -0.054258 0.998527 -0.000001
vn -0.054260 0.998527 -0.000006
vn -0.054258 0.998527 0.000001
vn -0.054259 0.998527 0.000001
vn -0.054258 0.998527 -0.000001
vn -0.054259 0.998527 0.000002
vn -0.054259 0.998527 0.000002
vn -0.054259 0.998527 -0.000002
vn -0.054258 0.998527 0.000001
vn -0.054264 0.998527 -0.000008
vn -0.054259 0.998527 -0.000001
vn -0.054258 0.998527 -0.000002
f 1//1 2//1 3//1
f 3//2 2//2 4//2
f 4//3 5//3 6//3
f 2//4 5//4 4//4
f 6//5 7//5 8//5
f 5//6 7//6 6//6
f 8//7 9//7 10//7
f 7//8 9//8 8//8
f 10//9 11//9 12//9
f 9//10 11//10 10//10
f 11//11 13//11 12//11
f 12//12 13//12 14//12
f 13//13 15//13 14//13
f 14//14 15//14 16//14
f 16//15 17//15 18//15
f 15//16 17//16 16//16
f 18//17 19//17 98//17
f 17//18 19//18 18//18
f 98//19 20//19 21//19
f 19//20 20//20 98//20
f 21//21 22//21 23//21
f 20//22 22//22 21//22
f 23//23 24//23 25//23
f 22//24 24//24 23//24
f 25//25 26//25 27//25
f 24//26 26//26 25//26
f 27//27 28//27 29//27
f 26//28 28//28 27//28
f 29//29 30//29 31//29
f 28//30 30//30 29//30
f 31//31 32//31 33//31
f 33//32 32//32 34//32
f 30//33 32//33 31//33
f 32//34 35//34 34//34
f 34//35 36//35 37//35
f 37//36 36//36 38//36
f 35//37 36//37 34//37
f 36//38 39//38 38//38
f 38//39 40//39 41//39
f 39//40 40//40 38//40
f 41//41 42//41 43//41
f 43//42 42//42 44//42
f 40//43 42//43 41//43
f 42//44 45//44 44//44
f 44//45 46//45 47//45
f 47//46 46//46 48//46
f 45//47 46//47 44//47
f 46//48 49//48 48//48
f 48//49 50//49 51//49
f 49//50 50//50 48//50
f 51//51 52//51 95//51
f 50//52 52//52 51//52
f 95//53 53//53 96//53
f 52//54 53//54 95//54
f 96//55 54//55 97//55
f 53//56 54//56 96//56
f 97//57 55//57 56//57
f 54//58 55//58 97//58
f 56//59 57//59 58//59
f 55//60 57//60 56//60
f 58//61 59//61 60//61
f 60//62 59//62 61//62
f 57//63 59//63 58//63
f 59//64 62//64 61//64
f 62//65 63//65 61//65
f 61//66 63//66 64//66
f 63//67 65//67 64//67
f 64//68 65//68 66//68
f 65//69 67//69 66//69
f 66//70 67//70 68//70
f 67//71 1//71 68//71
f 68//72 1//72 3//72
f 42//73 69//73 45//73
f 45//74 69//74 46//74
f 46//75 70//75 49//75
f 69//76 70//76 46//76
f 40//77 71//77 42//77
f 42//78 71//78 69//78
f 49//79 72//79 50//79
f 50//80 72//80 52//80
f 70//81 72//81 49//81
f 39//82 73//82 40//82
f 40//83 73//83 71//83
f 52//84 74//84 53//84
f 72//85 74//85 52//85
f 35//86 75//86 36//86
f 36//87 75//87 39//87
f 39//88 75//88 73//88
f 74//89 76//89 53//89
f 53//90 76//90 54//90
f 32//91 77//91 35//91
f 35//92 77//92 75//92
f 76//93 78//93 54//93
f 54//94 78//94 55//94
f 55//95 78//95 57//95
f 32//96 79//96 77//96
f 30//97 79//97 32//97
f 78//98 80//98 57//98
f 57//99 80//99 59//99
f 28//100 81//100 30//100
f 30//101 81//101 79//101
f 80//102 82//102 59//102
f 82//103 62//103 59//103
f 28//104 26//104 81//104
f 81//105 26//105 83//105
f 82//106 63//106 62//106
f 84//107 63//107 82//107
f 26//108 24//108 83//108
f 83//109 24//109 85//109
f 86//110 65//110 84//110
f 84//111 65//111 63//111
f 24//112 22//112 85//112
f 86//113 67//113 65//113
f 87//114 67//114 86//114
f 22//115 20//115 85//115
f 85//116 20//116 88//116
f 87//117 1//117 67//117
f 88//118 19//118 89//118
f 20//119 19//119 88//119
f 90//120 2//120 87//120
f 87//121 2//121 1//121
f 89//122 17//122 91//122
f 19//123 17//123 89//123
f 92//124 5//124 90//124
f 90//125 5//125 2//125
f 17//126 15//126 91//126
f 91//127 13//127 93//127
f 15//128 13//128 91//128
f 92//129 7//129 5//129
f 94//130 7//130 92//130
f 94//131 9//131 7//131
f 13//132 11//132 93//132
f 93//133 11//133 94//133
f 94//134 11//134 9//134
f 51//135 43//135 44//135
f 51//136 44//136 47//136
f 51//137 47//137 48//137
f 38//138 41//138 43//138
f 34//139 37//139 38//139
f 34//140 43//140 51//140
f 34//141 38//141 43//141
f 33//142 51//142 95//142
f 33//143 95//143 96//143
f 33//144 34//144 51//144
f 60//145 97//145 56//145
f 60//146 56//146 58//146
f 27//147 29//147 31//147
f 27//148 31//148 33//148
f 27//149 33//149 96//149
f 66//150 96//150 97//150
f 66//151 60//151 61//151
f 66//152 61//152 64//152
f 66//153 97//153 60//153
f 66//154 27//154 96//154
f 4//155 66//155 68//155
f 4//156 68//156 3//156
f 16//157 18//157 98//157
f 16//158 98//158 21//158
f 14//159 21//159 23//159
f 14//160 23//160 25//160
f 14//161 16//161 21//161
f 8//162 4//162 6//162
f 10//163 4//163 8//163
f 12//164 4//164 10//164
f 12//165 25//165 27//165
f 12//166 27//166 66//166
f 12//167 66//167 4//167
f 12//168 14//168 25//168
f 87//169 86//169 99//169
f 99//170 86//170 100//170
f 100//171 84//171 101//171
f 86//172 84//172 100//172
f 101//173 82//173 102//173
f 84//174 82//174 101//174
f 102//175 80//175 103//175
f 82//176 80//176 102//176
f 103//177 78//177 104//177
f 80//178 78//178 103//178
f 104//179 76//179 105//179
f 105//180 76//180 106//180
f 78//181 76//181 104//181
f 76//182 74//182 106//182
f 106//183 72//183 107//183
f 74//184 72//184 106//184
f 107//185 70//185 108//185
f 72//186 70//186 107//186
f 108//187 69//187 109//187
f 70//188 69//188 108//188
f 109//189 71//189 110//189
f 69//190 71//190 109//190
f 71//191 73//191 110//191
f 110//192 73//192 111//192
f 73//193 75//193 111//193
f 111//194 75//194 112//194
f 112//195 77//195 113//195
f 75//196 77//196 112//196
f 113//197 77//197 114//197
f 114//198 79//198 115//198
f 77//199 79//199 114//199
f 79//200 81//200 115//200
f 115//201 83//201 116//201
f 81//202 83//202 115//202
f 116//203 85//203 117//203
f 83//204 85//204 116//204
f 117//205 88//205 118//205
f 118//206 88//206 119//206
f 85//207 88//207 117//207
f 88//208 89//208 119//208
f 119//209 91//209 120//209
f 89//210 91//210 119//210
f 120//211 93//211 121//211
f 91//212 93//212 120//212
f 121//213 94//213 122//213
f 93//214 94//214 121//214
f 122//215 92//215 123//215
f 94//216 92//216 122//216
f 123//217 90//217 124//217
f 92//218 90//218 123//218
f 90//219 87//219 124//219
f 124//220 87//220 99//220
f 106//221 104//221 105//221
f 107//222 103//222 106//222
f 108//223 103//223 107//223
f 106//224 103//224 104//224
f 103//225 101//225 102//225
f 109//226 101//226 108//226
f 110//227 101//227 109//227
f 108//228 101//228 103//228
f 111//229 100//229 110//229
f 110//230 100//230 101//230
f 111//231 99//231 100//231
f 112//232 124//232 111//232
f 111//233 124//233 99//233
f 119//234 120//234 118//234
f 113//235 123//235 112//235
f 112//236 123//236 124//236
f 114//237 122//237 113//237
f 115//238 122//238 114//238
f 116//239 122//239 115//239
f 117//240 122//240 116//240
f 118//241 122//241 117//241
f 121//242 122//242 120//242
f 120//243 122//243 118//243
f 113//244 122//244 123//244
