# Created by FreeCAD <https://www.freecad.org>
v -144.615768 -30.747211 116.332443
v -144.464066 -30.738968 114.595963
v -144.507248 -32.744267 116.332443
v -144.355545 -32.736023 114.595963
v -144.013580 -30.714489 112.912239
v -143.905060 -32.711544 112.912239
v -143.278000 -30.674519 111.332443
v -143.169479 -32.671574 111.332443
v -142.279663 -30.620270 109.904564
v -142.171143 -32.617325 109.904564
v -141.048904 -30.553392 108.671997
v -140.940384 -32.550446 108.671997
v -139.623138 -30.475920 107.672188
v -139.514618 -32.472973 107.672188
v -138.045654 -30.390202 106.935516
v -137.937149 -32.387257 106.935516
v -136.364426 -30.298845 106.484367
v -136.255905 -32.295898 106.484367
v -134.630493 -30.204626 106.332443
v -134.521988 -32.201679 106.332443
v -132.896576 -30.110409 106.484367
v -132.788055 -32.107464 106.484367
v -131.215332 -30.019053 106.935516
v -131.106812 -32.016106 106.935516
v -129.637863 -29.933334 107.672188
v -129.529343 -31.930389 107.672188
v -128.212097 -29.855860 108.671997
v -128.103577 -31.852915 108.671997
v -126.981339 -29.788982 109.904564
v -126.872818 -31.786037 109.904564
v -125.983002 -29.734735 111.332443
v -125.874481 -31.731789 111.332443
v -125.247414 -29.694765 112.912239
v -125.138901 -31.691818 112.912239
v -124.688408 -31.667339 114.595963
v -124.796928 -29.670286 114.595963
v -124.645226 -29.662043 116.332443
v -124.536713 -31.659096 116.332443
v -124.688408 -31.667339 118.068924
v -124.796928 -29.670286 118.068924
v -125.247414 -29.694765 119.752647
v -125.138901 -31.691818 119.752647
v -125.983002 -29.734735 121.332443
v -125.874481 -31.731789 121.332443
v -126.872818 -31.786037 122.760323
v -126.981339 -29.788982 122.760323
v -128.212097 -29.855860 123.992889
v -128.103577 -31.852915 123.992889
v -129.529343 -31.930389 124.992699
v -129.637863 -29.933334 124.992699
v -131.215332 -30.019053 125.729370
v -131.106812 -32.016106 125.729370
v -132.896576 -30.110409 126.180519
v -132.788055 -32.107464 126.180519
v -134.630493 -30.204626 126.332443
v -134.521988 -32.201679 126.332443
v -136.364426 -30.298845 126.180519
v -136.255905 -32.295898 126.180519
v -138.045654 -30.390202 125.729370
v -137.937149 -32.387257 125.729370
v -139.623138 -30.475920 124.992699
v -139.514618 -32.472973 124.992699
v -141.048904 -30.553392 123.992889
v -140.940384 -32.550446 123.992889
v -142.171143 -32.617325 122.760323
v -142.279663 -30.620270 122.760323
v -143.278000 -30.674519 121.332443
v -143.169479 -32.671574 121.332443
v -144.013580 -30.714489 119.752647
v -143.905060 -32.711544 119.752647
v -144.464066 -30.738968 118.068924
v -144.355545 -32.736023 118.068924
v -133.135681 -30.123402 117.658691
v -133.496048 -30.142982 117.978409
v -132.862198 -30.108540 117.261887
v -133.922333 -30.166145 118.202477
v -132.691483 -30.099264 116.811073
v -134.389786 -30.191547 118.317863
v -132.633438 -30.096109 116.332443
v -134.871216 -30.217707 118.317863
v -132.691483 -30.099264 115.853813
v -135.338669 -30.243107 118.202477
v -132.862198 -30.108540 115.403000
v -135.764954 -30.266272 117.978409
v -133.135681 -30.123402 115.006195
v -136.125320 -30.285852 117.658691
v -133.496048 -30.142982 114.686478
v -136.398804 -30.300714 117.261887
v -133.922333 -30.166145 114.462410
v -136.569519 -30.309990 116.811073
v -136.627548 -30.313143 116.332443
v -134.389786 -30.191547 114.347023
v -134.871216 -30.217707 114.347023
v -136.569519 -30.309990 115.853813
v -135.338669 -30.243107 114.462410
v -136.398804 -30.300714 115.403000
v -135.764954 -30.266272 114.686478
v -136.125320 -30.285852 115.006195
v -136.844589 -26.319036 116.332443
v -136.786560 -26.315884 116.811073
v -136.615829 -26.306606 117.261887
v -136.342346 -26.291746 117.658691
v -135.981995 -26.272163 117.978409
v -135.555695 -26.249001 118.202477
v -135.088257 -26.223598 118.317863
v -134.606812 -26.197439 118.317863
v -134.139374 -26.172039 118.202477
v -133.713074 -26.148874 117.978409
v -133.352722 -26.129293 117.658691
v -133.079224 -26.114431 117.261887
v -132.908508 -26.105156 116.811073
v -132.850479 -26.102003 116.332443
v -132.908508 -26.105156 115.853813
v -133.079224 -26.114431 115.403000
v -133.352722 -26.129293 115.006195
v -133.713074 -26.148874 114.686478
v -134.139374 -26.172039 114.462410
v -134.606812 -26.197439 114.347023
v -135.088257 -26.223598 114.347023
v -135.555695 -26.249001 114.462410
v -135.981995 -26.272163 114.686478
v -136.342346 -26.291746 115.006195
v -136.615829 -26.306606 115.403000
v -136.786560 -26.315884 115.853813
vn -0.994727 -0.054054 -0.087158
vn -0.994727 -0.054054 -0.087158
vn -0.964503 -0.052411 -0.258818
vn -0.964503 -0.052411 -0.258818
vn -0.904974 -0.049177 -0.422616
vn -0.904974 -0.049177 -0.422616
vn -0.817946 -0.044447 -0.573576
vn -0.817946 -0.044447 -0.573576
vn -0.706063 -0.038368 -0.707109
vn -0.706063 -0.038368 -0.707109
vn -0.572733 -0.031123 -0.819151
vn -0.572733 -0.031123 -0.819151
vn -0.421993 -0.022931 -0.906309
vn -0.421996 -0.022928 -0.906308
vn -0.258436 -0.014043 -0.965926
vn -0.258438 -0.014042 -0.965926
vn -0.087029 -0.004729 -0.996195
vn -0.087028 -0.004729 -0.996195
vn 0.087028 0.004729 -0.996195
vn 0.087029 0.004729 -0.996195
vn 0.258436 0.014043 -0.965926
vn 0.258436 0.014043 -0.965926
vn 0.421996 0.022931 -0.906308
vn 0.421996 0.022931 -0.906308
vn 0.572733 0.031122 -0.819151
vn 0.572733 0.031122 -0.819151
vn 0.706063 0.038368 -0.707109
vn 0.706063 0.038368 -0.707109
vn 0.817946 0.044447 -0.573576
vn 0.817946 0.044447 -0.573576
vn 0.904974 0.049173 -0.422616
vn 0.964502 0.052408 -0.258822
vn 0.904972 0.049176 -0.422619
vn 0.964503 0.052411 -0.258818
vn 0.994727 0.054050 -0.087154
vn 0.994727 0.054050 0.087154
vn 0.994727 0.054054 -0.087158
vn 0.994727 0.054054 0.087158
vn 0.964502 0.052408 0.258822
vn 0.964503 0.052411 0.258818
vn 0.904974 0.049177 0.422616
vn 0.817946 0.044447 0.573576
vn 0.904972 0.049173 0.422619
vn 0.817946 0.044447 0.573576
vn 0.706063 0.038368 0.707109
vn 0.572733 0.031122 0.819151
vn 0.706063 0.038368 0.707109
vn 0.572733 0.031122 0.819151
vn 0.421996 0.022931 0.906308
vn 0.421996 0.022931 0.906308
vn 0.258436 0.014043 0.965926
vn 0.258436 0.014043 0.965926
vn 0.087028 0.004728 0.996195
vn 0.087029 0.004729 0.996195
vn -0.087029 -0.004729 0.996195
vn -0.087028 -0.004728 0.996195
vn -0.258436 -0.014042 0.965926
vn -0.258438 -0.014044 0.965926
vn -0.421996 -0.022931 0.906308
vn -0.421993 -0.022928 0.906309
vn -0.572733 -0.031123 0.819151
vn -0.706063 -0.038368 0.707109
vn -0.572733 -0.031123 0.819151
vn -0.706063 -0.038368 0.707109
vn -0.817946 -0.044447 0.573576
vn -0.817946 -0.044447 0.573576
vn -0.904974 -0.049177 0.422616
vn -0.904974 -0.049177 0.422616
vn -0.964503 -0.052411 0.258818
vn -0.964503 -0.052411 0.258818
vn -0.994727 -0.054054 0.087158
vn -0.994727 -0.054054 0.087158
vn -0.054258 0.998527 -0.000001
vn -0.054259 0.998527 -0.000000
vn -0.054259 0.998527 0.000000
vn -0.054257 0.998527 -0.000001
vn -0.054258 0.998527 -0.000000
vn -0.054260 0.998527 0.000003
vn -0.054259 0.998527 0.000000
vn -0.054258 0.998527 0.000000
vn -0.054257 0.998527 -0.000001
vn -0.054258 0.998527 0.000000
vn -0.054258 0.998527 -0.000002
vn -0.054258 0.998527 -0.000000
vn -0.054261 0.998527 0.000001
vn -0.054258 0.998527 -0.000000
vn -0.054258 0.998527 0.000000
vn -0.054259 0.998527 0.000001
vn -0.054257 0.998527 -0.000000
vn -0.054258 0.998527 -0.000000
vn -0.054258 0.998527 -0.000000
vn -0.054259 0.998527 -0.000001
vn -0.054257 0.998527 0.000000
vn -0.054259 0.998527 -0.000000
vn -0.054259 0.998527 0.000000
vn -0.054258 0.998527 0.000002
vn -0.054258 0.998527 0.000000
vn -0.054260 0.998527 -0.000001
vn -0.054258 0.998527 0.000000
vn -0.054260 0.998527 -0.000003
vn -0.054258 0.998527 0.000001
vn -0.054257 0.998527 0.000001
vn -0.054258 0.998527 0.000000
vn -0.054257 0.998527 0.000001
vn -0.054259 0.998527 0.000000
vn -0.054259 0.998527 -0.000000
vn -0.054260 0.998527 -0.000003
vn -0.054259 0.998527 -0.000000
vn -0.054257 0.998527 0.000001
vn -0.054258 0.998527 -0.000000
vn -0.054258 0.998527 0.000002
vn -0.054259 0.998527 -0.000000
vn -0.054258 0.998527 0.000001
vn -0.054258 0.998527 -0.000000
vn -0.054261 0.998527 -0.000001
vn -0.054258 0.998527 -0.000000
vn -0.054259 0.998527 -0.000000
vn -0.054257 0.998527 0.000000
vn -0.054258 0.998527 0.000000
vn -0.054258 0.998527 -0.000001
vn -0.054259 0.998527 0.000000
vn -0.054258 0.998527 0.000000
vn -0.054257 0.998527 -0.000000
vn -0.054258 0.998527 -0.000002
vn -0.054258 0.998527 0.000000
vn -0.054259 0.998527 0.000000
vn -0.054260 0.998527 0.000001
vn -0.054259 0.998527 -0.000000
vn -0.054260 0.998527 0.000003
vn -0.054258 0.998527 0.000000
vn -0.054258 0.998527 -0.000000
vn -0.054257 0.998527 -0.000001
vn -0.054258 0.998527 -0.000000
vn -0.054259 0.998527 0.000000
vn 0.054257 -0.998527 -0.000001
vn 0.054258 -0.998527 0.000000
vn 0.054256 -0.998527 -0.000005
vn 0.054259 -0.998527 0.000000
vn 0.054263 -0.998527 0.000000
vn 0.054258 -0.998527 0.000000
vn 0.054258 -0.998527 0.000000
vn 0.054260 -0.998527 0.000001
vn 0.054256 -0.998527 -0.000002
vn 0.054258 -0.998527 -0.000000
vn 0.054261 -0.998527 -0.000006
vn 0.054258 -0.998527 -0.000001
vn 0.054256 -0.998527 0.000002
vn 0.054259 -0.998527 -0.000000
vn 0.054258 -0.998527 0.000000
vn 0.054259 -0.998527 -0.000000
vn 0.054261 -0.998527 -0.000001
vn 0.054260 -0.998527 -0.000001
vn 0.054258 -0.998527 0.000001
vn 0.054259 -0.998527 0.000000
vn 0.054259 -0.998527 0.000000
vn 0.054260 -0.998527 0.000000
vn 0.054259 -0.998527 -0.000004
vn 0.054257 -0.998527 -0.000011
vn 0.054259 -0.998527 0.000003
vn 0.054258 -0.998527 -0.000001
vn 0.054258 -0.998527 0.000001
vn 0.054258 -0.998527 -0.000000
vn 0.054260 -0.998527 0.000000
vn 0.054261 -0.998527 0.000001
vn 0.054258 -0.998527 0.000001
vn 0.054258 -0.998527 -0.000000
vn 0.054259 -0.998527 -0.000000
vn 0.054258 -0.998527 0.000001
vn -0.991247 -0.053865 0.120534
vn -0.991247 -0.053865 0.120534
vn -0.933631 -0.050730 0.354626
vn -0.933641 -0.050734 0.354598
vn -0.821779 -0.044653 0.568054
vn -0.821779 -0.044653 0.568054
vn -0.662149 -0.035981 0.748508
vn -0.662134 -0.035978 0.748522
vn -0.464036 -0.025214 0.885458
vn -0.464048 -0.025217 0.885451
vn -0.238971 -0.012986 0.970940
vn -0.000000 0.000000 1.000000
vn -0.238964 -0.012984 0.970942
vn 0.000000 0.000000 1.000000
vn 0.238971 0.012986 0.970940
vn 0.238963 0.012984 0.970942
vn 0.464036 0.025214 0.885458
vn 0.464049 0.025217 0.885451
vn 0.662149 0.035981 0.748508
vn 0.662134 0.035978 0.748522
vn 0.821764 0.044652 0.568075
vn 0.821779 0.044656 0.568054
vn 0.933642 0.050731 0.354598
vn 0.933642 0.050731 0.354598
vn 0.991243 0.053861 0.120565
vn 0.991247 0.053865 0.120534
vn 0.991247 0.053861 -0.120534
vn 0.991243 0.053864 -0.120565
vn 0.933642 0.050731 -0.354598
vn 0.821764 0.044652 -0.568075
vn 0.933642 0.050731 -0.354598
vn 0.821779 0.044656 -0.568054
vn 0.662149 0.035979 -0.748508
vn 0.662133 0.035981 -0.748522
vn 0.464035 0.025216 -0.885458
vn 0.464049 0.025215 -0.885451
vn 0.238971 0.012985 -0.970940
vn 0.000000 -0.000000 -1.000000
vn 0.238963 0.012985 -0.970942
vn -0.000000 0.000000 -1.000000
vn -0.238971 -0.012985 -0.970940
vn -0.238963 -0.012985 -0.970942
vn -0.464036 -0.025216 -0.885458
vn -0.464049 -0.025215 -0.885451
vn -0.662149 -0.035979 -0.748508
vn -0.662133 -0.035981 -0.748522
vn -0.821779 -0.044653 -0.568054
vn -0.821779 -0.044653 -0.568054
vn -0.933631 -0.050734 -0.354626
vn -0.933642 -0.050731 -0.354598
vn -0.991247 -0.053865 -0.120534
vn -0.991247 -0.053865 -0.120534
vn -0.054259 0.998527 0.000001
vn -0.054270 0.998526 0.000007
vn -0.054242 0.998528 -0.000024
vn -0.054266 0.998527 0.000010
vn -0.054255 0.998527 -0.000007
vn -0.054259 0.998527 0.000001
vn -0.054259 0.998527 0.000000
vn -0.054262 0.998527 0.000004
vn -0.054257 0.998527 -0.000001
vn -0.054260 0.998527 0.000003
vn -0.054259 0.998527 0.000001
vn -0.054262 0.998527 0.000001
vn -0.054255 0.998527 -0.000017
vn -0.054258 0.998527 -0.000000
vn -0.054259 0.998527 0.000001
vn -0.054259 0.998527 -0.000000
vn -0.054256 0.998527 -0.000000
vn -0.054271 0.998526 -0.000031
vn -0.054258 0.998527 -0.000002
vn -0.054254 0.998527 0.000002
vn -0.054259 0.998527 0.000000
vn -0.054258 0.998527 0.000005
vn -0.054259 0.998527 -0.000001
vn -0.054256 0.998527 0.000009
f 1//1 2//1 3//1
f 3//2 2//2 4//2
f 4//3 5//3 6//3
f 2//4 5//4 4//4
f 6//5 7//5 8//5
f 5//6 7//6 6//6
f 8//7 9//7 10//7
f 7//8 9//8 8//8
f 10//9 11//9 12//9
f 9//10 11//10 10//10
f 11//11 13//11 12//11
f 12//12 13//12 14//12
f 13//13 15//13 14//13
f 14//14 15//14 16//14
f 16//15 17//15 18//15
f 15//16 17//16 16//16
f 18//17 19//17 20//17
f 17//18 19//18 18//18
f 20//19 21//19 22//19
f 19//20 21//20 20//20
f 22//21 23//21 24//21
f 21//22 23//22 22//22
f 24//23 25//23 26//23
f 23//24 25//24 24//24
f 26//25 27//25 28//25
f 25//26 27//26 26//26
f 28//27 29//27 30//27
f 27//28 29//28 28//28
f 30//29 31//29 32//29
f 29//30 31//30 30//30
f 32//31 33//31 34//31
f 34//32 33//32 35//32
f 31//33 33//33 32//33
f 33//34 36//34 35//34
f 35//35 37//35 38//35
f 38//36 37//36 39//36
f 36//37 37//37 35//37
f 37//38 40//38 39//38
f 39//39 41//39 42//39
f 40//40 41//40 39//40
f 42//41 43//41 44//41
f 44//42 43//42 45//42
f 41//43 43//43 42//43
f 43//44 46//44 45//44
f 45//45 47//45 48//45
f 48//46 47//46 49//46
f 46//47 47//47 45//47
f 47//48 50//48 49//48
f 49//49 51//49 52//49
f 50//50 51//50 49//50
f 52//51 53//51 54//51
f 51//52 53//52 52//52
f 54//53 55//53 56//53
f 53//54 55//54 54//54
f 56//55 57//55 58//55
f 55//56 57//56 56//56
f 58//57 59//57 60//57
f 57//58 59//58 58//58
f 60//59 61//59 62//59
f 59//60 61//60 60//60
f 62//61 63//61 64//61
f 64//62 63//62 65//62
f 61//63 63//63 62//63
f 63//64 66//64 65//64
f 66//65 67//65 65//65
f 65//66 67//66 68//66
f 67//67 69//67 68//67
f 68//68 69//68 70//68
f 69//69 71//69 70//69
f 70//70 71//70 72//70
f 71//71 1//71 72//71
f 72//72 1//72 3//72
f 43//73 73//73 46//73
f 46//74 73//74 47//74
f 47//75 74//75 50//75
f 73//76 74//76 47//76
f 41//77 75//77 43//77
f 43//78 75//78 73//78
f 50//79 76//79 51//79
f 51//80 76//80 53//80
f 74//81 76//81 50//81
f 40//82 77//82 41//82
f 41//83 77//83 75//83
f 53//84 78//84 55//84
f 76//85 78//85 53//85
f 36//86 79//86 37//86
f 37//87 79//87 40//87
f 40//88 79//88 77//88
f 78//89 80//89 55//89
f 55//90 80//90 57//90
f 33//91 81//91 36//91
f 36//92 81//92 79//92
f 80//93 82//93 57//93
f 57//94 82//94 59//94
f 59//95 82//95 61//95
f 33//96 83//96 81//96
f 31//97 83//97 33//97
f 82//98 84//98 61//98
f 61//99 84//99 63//99
f 31//100 85//100 83//100
f 29//101 85//101 31//101
f 84//102 86//102 63//102
f 86//103 66//103 63//103
f 85//104 27//104 87//104
f 29//105 27//105 85//105
f 86//106 67//106 66//106
f 88//107 67//107 86//107
f 27//108 25//108 87//108
f 87//109 25//109 89//109
f 88//110 69//110 67//110
f 90//111 69//111 88//111
f 25//112 23//112 89//112
f 91//113 71//113 90//113
f 90//114 71//114 69//114
f 89//115 21//115 92//115
f 23//116 21//116 89//116
f 91//117 1//117 71//117
f 92//118 19//118 93//118
f 21//119 19//119 92//119
f 94//120 2//120 91//120
f 91//121 2//121 1//121
f 19//122 17//122 93//122
f 93//123 17//123 95//123
f 96//124 5//124 94//124
f 94//125 5//125 2//125
f 17//126 15//126 95//126
f 95//127 13//127 97//127
f 15//128 13//128 95//128
f 98//129 7//129 96//129
f 96//130 7//130 5//130
f 13//131 11//131 97//131
f 97//132 11//132 98//132
f 11//133 9//133 98//133
f 98//134 9//134 7//134
f 52//135 44//135 45//135
f 52//136 45//136 48//136
f 52//137 48//137 49//137
f 39//138 42//138 44//138
f 35//139 38//139 39//139
f 35//140 44//140 52//140
f 35//141 39//141 44//141
f 34//142 52//142 54//142
f 34//143 54//143 56//143
f 34//144 35//144 52//144
f 64//145 58//145 60//145
f 64//146 60//146 62//146
f 28//147 30//147 32//147
f 28//148 32//148 34//148
f 28//149 34//149 56//149
f 70//150 56//150 58//150
f 70//151 64//151 65//151
f 70//152 65//152 68//152
f 70//153 58//153 64//153
f 70//154 28//154 56//154
f 4//155 70//155 72//155
f 4//156 72//156 3//156
f 16//157 18//157 20//157
f 16//158 20//158 22//158
f 14//159 22//159 24//159
f 14//160 24//160 26//160
f 14//161 16//161 22//161
f 8//162 4//162 6//162
f 10//163 4//163 8//163
f 12//164 4//164 10//164
f 12//165 26//165 28//165
f 12//166 28//166 70//166
f 12//167 70//167 4//167
f 12//168 14//168 26//168
f 91//169 90//169 99//169
f 99//170 90//170 100//170
f 100//171 88//171 101//171
f 90//172 88//172 100//172
f 101//173 86//173 102//173
f 88//174 86//174 101//174
f 102//175 84//175 103//175
f 86//176 84//176 102//176
f 103//177 82//177 104//177
f 84//178 82//178 103//178
f 104//179 80//179 105//179
f 105//180 80//180 106//180
f 82//181 80//181 104//181
f 80//182 78//182 106//182
f 106//183 76//183 107//183
f 78//184 76//184 106//184
f 107//185 74//185 108//185
f 76//186 74//186 107//186
f 108//187 73//187 109//187
f 74//188 73//188 108//188
f 109//189 75//189 110//189
f 73//190 75//190 109//190
f 75//191 77//191 110//191
f 110//192 77//192 111//192
f 77//193 79//193 111//193
f 111//194 79//194 112//194
f 112//195 81//195 113//195
f 79//196 81//196 112//196
f 113//197 81//197 114//197
f 114//198 83//198 115//198
f 81//199 83//199 114//199
f 83//200 85//200 115//200
f 115//201 87//201 116//201
f 85//202 87//202 115//202
f 116//203 89//203 117//203
f 87//204 89//204 116//204
f 117//205 92//205 118//205
f 118//206 92//206 119//206
f 89//207 92//207 117//207
f 92//208 93//208 119//208
f 119//209 95//209 120//209
f 93//210 95//210 119//210
f 120//211 97//211 121//211
f 95//212 97//212 120//212
f 121//213 98//213 122//213
f 97//214 98//214 121//214
f 122//215 96//215 123//215
f 98//216 96//216 122//216
f 123//217 94//217 124//217
f 96//218 94//218 123//218
f 94//219 91//219 124//219
f 124//220 91//220 99//220
f 113//221 115//221 112//221
f 114//222 115//222 113//222
f 104//223 102//223 103//223
f 105//224 102//224 104//224
f 106//225 101//225 105//225
f 107//226 101//226 106//226
f 108//227 101//227 107//227
f 105//228 101//228 102//228
f 112//229 117//229 111//229
f 116//230 117//230 115//230
f 115//231 117//231 112//231
f 101//232 99//232 100//232
f 118//233 119//233 117//233
f 109//234 124//234 108//234
f 110//235 124//235 109//235
f 108//236 124//236 101//236
f 101//237 124//237 99//237
f 120//238 121//238 119//238
f 111//239 122//239 110//239
f 124//240 122//240 123//240
f 117//241 122//241 111//241
f 119//242 122//242 117//242
f 110//243 122//243 124//243
f 121//244 122//244 119//244
