# Created by FreeCAD <https://www.freecad.org>
v -18.320965 -25.887495 131.146225
v -140.350372 -35.522812 131.146225
v -18.158190 -28.883076 131.146225
v -140.513138 -32.527229 131.146225
v -9.520169 -25.409273 122.332443
v -9.530770 -25.409849 122.764915
v -9.357394 -28.404854 122.332443
v -9.367995 -28.405430 122.764915
v -9.562548 -25.411575 123.196342
v -9.399772 -28.407156 123.196342
v -9.615424 -25.414450 123.625694
v -9.452649 -28.410030 123.625694
v -9.689274 -25.418463 124.051926
v -9.526499 -28.414043 124.051926
v -9.783918 -25.423605 124.474014
v -9.621142 -28.419186 124.474014
v -9.899129 -25.429865 124.890945
v -9.736353 -28.425446 124.890945
v -10.034628 -25.437227 125.301720
v -9.871853 -28.432808 125.301720
v -10.190090 -25.445675 125.705330
v -10.027314 -28.441256 125.705330
v -10.365140 -25.455187 126.100822
v -10.202365 -28.450768 126.100822
v -10.559356 -25.465740 126.487228
v -10.396581 -28.461321 126.487228
v -10.772270 -25.477310 126.863632
v -10.609495 -28.472891 126.863632
v -11.003370 -25.489868 127.229118
v -10.840595 -28.485449 127.229118
v -11.252099 -25.503384 127.582802
v -11.089324 -28.498964 127.582802
v -11.517858 -25.517824 127.923843
v -11.355083 -28.513405 127.923843
v -11.637230 -28.528736 128.251419
v -11.800005 -25.533155 128.251419
v -12.097862 -25.549341 128.564728
v -11.935087 -28.544922 128.564728
v -12.410711 -25.566341 128.863022
v -12.247936 -28.561922 128.863022
v -12.737800 -25.584114 129.145584
v -12.575024 -28.579695 129.145584
v -12.915562 -28.598200 129.411743
v -13.078337 -25.602619 129.411743
v -13.431504 -25.621809 129.660828
v -13.268729 -28.617390 129.660828
v -13.796452 -25.641640 129.892273
v -13.633677 -28.637220 129.892273
v -14.009523 -28.657644 130.105499
v -14.172298 -25.662064 130.105499
v -14.558140 -25.683029 130.300003
v -14.395365 -28.678610 130.300003
v -14.953046 -25.704487 130.475311
v -14.790271 -28.700068 130.475311
v -15.356066 -25.726387 130.631012
v -15.193291 -28.721968 130.631012
v -15.766229 -25.748674 130.766708
v -15.603454 -28.744255 130.766708
v -16.182547 -25.771297 130.882080
v -16.019772 -28.766878 130.882080
v -16.604015 -25.794199 130.976868
v -16.441240 -28.789780 130.976868
v -16.866844 -28.812906 131.050827
v -17.029619 -25.817326 131.050827
v -17.458336 -25.840622 131.103775
v -17.295561 -28.836203 131.103775
v -17.889130 -25.864029 131.135605
v -17.726355 -28.859610 131.135605
v -140.944977 -32.550697 131.135605
v -140.782211 -35.546276 131.135605
v -141.375778 -32.574104 131.103775
v -141.212997 -35.569687 131.103775
v -141.804489 -32.597401 131.050827
v -141.641724 -35.592983 131.050827
v -142.230087 -32.620529 130.976868
v -142.067322 -35.616108 130.976868
v -142.651550 -32.643429 130.882080
v -142.488785 -35.639011 130.882080
v -143.067871 -32.666050 130.766708
v -142.905106 -35.661633 130.766708
v -143.478043 -32.688339 130.631012
v -143.315262 -35.683918 130.631012
v -143.881073 -32.710239 130.475311
v -143.718292 -35.705818 130.475311
v -144.275955 -32.731697 130.300003
v -144.113190 -35.727280 130.300003
v -144.661804 -32.752663 130.105499
v -144.499023 -35.748245 130.105499
v -145.037659 -32.773087 129.892273
v -144.874878 -35.768665 129.892273
v -145.402603 -32.792919 129.660828
v -145.239838 -35.788498 129.660828
v -145.755768 -32.812107 129.411743
v -145.593002 -35.807690 129.411743
v -146.096298 -32.830612 129.145584
v -145.933533 -35.826191 129.145584
v -146.260620 -35.843967 128.863022
v -146.423401 -32.848385 128.863022
v -146.736252 -32.865387 128.564728
v -146.573471 -35.860966 128.564728
v -147.034103 -32.881569 128.251419
v -146.871323 -35.877151 128.251419
v -147.316238 -32.896900 127.923843
v -147.153473 -35.892483 127.923843
v -147.419235 -35.906925 127.582802
v -147.582016 -32.911343 127.582802
v -147.830750 -32.924858 127.229118
v -147.667969 -35.920441 127.229118
v -148.061829 -32.937416 126.863632
v -147.899063 -35.932995 126.863632
v -148.111969 -35.944565 126.487228
v -148.274750 -32.948986 126.487228
v -148.468964 -32.959538 126.100822
v -148.306183 -35.955120 126.100822
v -148.644012 -32.969051 125.705330
v -148.481232 -35.964630 125.705330
v -148.799484 -32.977497 125.301720
v -148.636703 -35.973080 125.301720
v -148.934982 -32.984859 124.890945
v -148.772202 -35.980442 124.890945
v -149.050186 -32.991119 124.474014
v -148.887405 -35.986702 124.474014
v -149.144836 -32.996265 124.051926
v -148.982056 -35.991844 124.051926
v -149.055908 -35.995857 123.625694
v -149.218689 -33.000278 123.625694
v -149.271561 -33.003151 123.196342
v -149.108795 -35.998730 123.196342
v -149.303329 -33.004875 122.764915
v -149.140564 -36.000458 122.764915
v -149.313934 -33.005451 122.332443
v -149.151169 -36.001034 122.332443
v -9.562548 -25.411575 109.096100
v -9.615424 -25.414450 108.666748
v -9.530770 -25.409849 109.527527
v -9.899129 -25.429865 107.401497
v -9.783918 -25.423605 107.818428
v -9.689274 -25.418463 108.240517
v -10.034628 -25.437227 106.990730
v -10.190090 -25.445675 106.587112
v -10.559356 -25.465740 105.805214
v -10.365140 -25.455187 106.191628
v -10.772270 -25.477310 105.428810
v -11.003370 -25.489868 105.063332
v -11.800005 -25.533155 104.041031
v -11.517858 -25.517824 104.368599
v -11.252099 -25.503384 104.709641
v -12.410711 -25.566341 103.429420
v -12.737800 -25.584114 103.146858
v -12.097862 -25.549341 103.727715
v -13.431504 -25.621809 102.631615
v -13.078337 -25.602619 102.880707
v -14.172298 -25.662064 102.186943
v -13.796452 -25.641640 102.400169
v -14.558140 -25.683029 101.992439
v -14.953046 -25.704487 101.817131
v -15.356066 -25.726387 101.661438
v -15.766229 -25.748674 101.525742
v -16.182547 -25.771297 101.410362
v -16.604015 -25.794199 101.315575
v -17.889130 -25.864029 101.156837
v -18.320965 -25.887495 101.146225
v -17.458336 -25.840622 101.188660
v -17.029619 -25.817326 101.241615
v -9.520169 -25.409273 109.959999
v -40.121998 -27.072130 117.825943
v -40.206402 -27.076715 117.914719
v -40.295052 -27.081533 117.999245
v -40.387733 -27.086569 118.079315
v -40.042049 -27.067785 117.733116
v -40.484230 -27.091812 118.154732
v -39.966743 -27.063694 117.636482
v -40.584305 -27.097250 118.225319
v -39.896259 -27.059864 117.536263
v -40.687717 -27.102871 118.290901
v -39.830776 -27.056305 117.432693
v -40.794220 -27.108658 118.351318
v -39.770443 -27.053026 117.326035
v -40.903553 -27.114597 118.406433
v -39.715408 -27.050035 117.216537
v -41.015453 -27.120678 118.456108
v -39.665810 -27.047340 117.104477
v -41.129654 -27.126884 118.500229
v -39.621758 -27.044947 116.990105
v -41.245880 -27.133200 118.538681
v -39.583359 -27.042862 116.873711
v -41.363850 -27.139610 118.571373
v -39.550713 -27.041086 116.755562
v -41.483276 -27.146099 118.598236
v -39.523895 -27.039629 116.635963
v -41.603882 -27.152653 118.619194
v -39.502968 -27.038492 116.515182
v -41.725361 -27.159254 118.634193
v -39.487984 -27.037678 116.393517
v -41.847431 -27.165888 118.643211
v -39.478981 -27.037189 116.271271
v -41.969799 -27.172537 118.646225
v -39.475979 -27.037025 116.148720
v -39.475979 -27.037025 116.143723
v -39.478981 -27.037189 116.021179
v -39.487984 -27.037678 115.898926
v -39.502968 -27.038492 115.777260
v -39.523895 -27.039629 115.656487
v -39.550713 -27.041086 115.536880
v -39.583359 -27.042862 115.418739
v -39.621758 -27.044947 115.302338
v -39.665810 -27.047340 115.187973
v -39.715408 -27.050035 115.075905
v -39.770443 -27.053026 114.966408
v -39.830776 -27.056305 114.859749
v -39.896259 -27.059864 114.756187
v -39.966743 -27.063694 114.655960
v -40.042049 -27.067785 114.559326
v -40.121998 -27.072130 114.466507
v -40.206402 -27.076715 114.377724
v -40.295052 -27.081533 114.293198
v -40.387733 -27.086569 114.213127
v -40.484230 -27.091812 114.137711
v -40.584305 -27.097250 114.067123
v -40.687717 -27.102871 114.001549
v -40.794220 -27.108658 113.941124
v -40.903553 -27.114597 113.886009
v -41.015453 -27.120678 113.836334
v -41.129654 -27.126884 113.792213
v -41.245880 -27.133200 113.753761
v -41.363850 -27.139610 113.721069
v -41.483276 -27.146099 113.694214
v -41.603882 -27.152653 113.673256
v -41.725361 -27.159254 113.658249
v -41.847431 -27.165888 113.649231
v -41.969799 -27.172537 113.646225
v -116.986679 -31.248838 118.643211
v -116.864311 -31.242189 118.646225
v -117.108749 -31.255472 118.634193
v -117.230225 -31.262074 118.619194
v -117.350830 -31.268627 118.598236
v -117.470261 -31.275116 118.571373
v -117.588226 -31.281527 118.538681
v -117.704453 -31.287842 118.500229
v -117.818657 -31.294048 118.456108
v -117.930557 -31.300129 118.406433
v -118.039886 -31.306068 118.351318
v -118.146385 -31.311855 118.290901
v -118.249802 -31.317476 118.225319
v -118.349876 -31.322914 118.154732
v -118.446373 -31.328157 118.079315
v -118.539055 -31.333193 117.999245
v -118.627708 -31.338011 117.914719
v -118.712112 -31.342596 117.825943
v -118.792053 -31.346941 117.733116
v -118.867371 -31.351032 117.636482
v -118.937843 -31.354862 117.536263
v -119.003334 -31.358421 117.432693
v -119.063667 -31.361700 117.326035
v -119.118698 -31.364691 117.216537
v -119.168304 -31.367386 117.104477
v -119.212349 -31.369780 116.990105
v -119.250748 -31.371864 116.873711
v -119.283394 -31.373640 116.755562
v -119.310211 -31.375097 116.635963
v -119.331139 -31.376234 116.515182
v -119.346123 -31.377048 116.393517
v -119.355133 -31.377537 116.271271
v -119.358131 -31.377701 116.148720
v -119.358131 -31.377701 116.143723
v -149.313934 -33.005451 109.959999
v -119.355133 -31.377537 116.021179
v -119.331139 -31.376234 115.777260
v -140.513138 -32.527229 101.146225
v -119.346123 -31.377048 115.898926
v -119.310211 -31.375097 115.656487
v -119.283394 -31.373640 115.536880
v -119.250748 -31.371864 115.418739
v -119.212349 -31.369780 115.302338
v -119.168304 -31.367386 115.187973
v -119.118698 -31.364691 115.075905
v -119.063667 -31.361700 114.966408
v -119.003334 -31.358421 114.859749
v -118.937843 -31.354862 114.756187
v -118.867371 -31.351032 114.655960
v -118.792053 -31.346941 114.559326
v -118.712112 -31.342596 114.466507
v -118.627708 -31.338011 114.377724
v -118.539055 -31.333193 114.293198
v -118.446373 -31.328157 114.213127
v -118.349876 -31.322914 114.137711
v -118.249802 -31.317476 114.067123
v -118.146385 -31.311855 114.001549
v -118.039886 -31.306068 113.941124
v -117.930557 -31.300129 113.886009
v -117.818657 -31.294048 113.836334
v -117.704453 -31.287842 113.792213
v -117.588226 -31.281527 113.753761
v -117.470261 -31.275116 113.721069
v -117.350830 -31.268627 113.694214
v -117.230225 -31.262074 113.673256
v -117.108749 -31.255472 113.658249
v -116.986679 -31.248838 113.649231
v -116.864311 -31.242189 113.646225
v -149.271561 -33.003151 109.096100
v -149.303329 -33.004875 109.527527
v -149.218689 -33.000278 108.666748
v -141.375778 -32.574104 101.188660
v -141.804489 -32.597401 101.241615
v -140.944977 -32.550697 101.156837
v -149.050186 -32.991119 107.818428
v -149.144836 -32.996265 108.240517
v -142.651550 -32.643429 101.410362
v -142.230087 -32.620529 101.315575
v -148.934982 -32.984859 107.401497
v -143.478043 -32.688339 101.661438
v -143.881073 -32.710239 101.817131
v -143.067871 -32.666050 101.525742
v -148.799484 -32.977497 106.990730
v -148.468964 -32.959538 106.191628
v -148.644012 -32.969051 106.587112
v -144.275955 -32.731697 101.992439
v -144.661804 -32.752663 102.186943
v -148.274750 -32.948986 105.805214
v -147.830750 -32.924858 105.063332
v -148.061829 -32.937416 105.428810
v -145.402603 -32.792919 102.631615
v -145.755768 -32.812107 102.880707
v -145.037659 -32.773087 102.400169
v -147.582016 -32.911343 104.709641
v -146.096298 -32.830612 103.146858
v -146.423401 -32.848385 103.429420
v -147.034103 -32.881569 104.041031
v -147.316238 -32.896900 104.368599
v -146.736252 -32.865387 103.727715
v -9.452649 -28.410030 108.666748
v -9.399772 -28.407156 109.096100
v -9.367995 -28.405430 109.527527
v -9.736353 -28.425446 107.401497
v -9.621142 -28.419186 107.818428
v -9.526499 -28.414043 108.240517
v -10.027314 -28.441256 106.587112
v -9.871853 -28.432808 106.990730
v -10.396581 -28.461321 105.805214
v -10.202365 -28.450768 106.191628
v -10.840595 -28.485449 105.063332
v -10.609495 -28.472891 105.428810
v -11.637230 -28.528736 104.041031
v -11.355083 -28.513405 104.368599
v -11.089324 -28.498964 104.709641
v -12.575024 -28.579695 103.146858
v -12.247936 -28.561922 103.429420
v -11.935087 -28.544922 103.727715
v -13.268729 -28.617390 102.631615
v -12.915562 -28.598200 102.880707
v -14.009523 -28.657644 102.186943
v -13.633677 -28.637220 102.400169
v -14.790271 -28.700068 101.817131
v -14.395365 -28.678610 101.992439
v -15.193291 -28.721968 101.661438
v -16.019772 -28.766878 101.410362
v -15.603454 -28.744255 101.525742
v -16.441240 -28.789780 101.315575
v -18.158190 -28.883076 101.146225
v -17.726355 -28.859610 101.156837
v -17.295561 -28.836203 101.188660
v -16.866844 -28.812906 101.241615
v -9.357394 -28.404854 109.959999
v -39.959225 -30.067711 117.825943
v -40.043625 -30.072296 117.914719
v -40.132275 -30.077114 117.999245
v -40.224960 -30.082150 118.079315
v -39.879272 -30.063366 117.733116
v -40.321457 -30.087393 118.154732
v -39.803967 -30.059275 117.636482
v -40.421532 -30.092833 118.225319
v -39.733486 -30.055445 117.536263
v -40.524940 -30.098452 118.290901
v -39.668003 -30.051886 117.432693
v -40.631443 -30.104239 118.351318
v -39.607670 -30.048607 117.326035
v -40.740776 -30.110180 118.406433
v -39.552635 -30.045618 117.216537
v -40.852680 -30.116261 118.456108
v -39.503033 -30.042921 117.104477
v -40.966881 -30.122465 118.500229
v -39.458981 -30.040527 116.990105
v -41.083103 -30.128780 118.538681
v -39.420586 -30.038443 116.873711
v -41.201073 -30.135191 118.571373
v -39.387939 -30.036667 116.755562
v -41.320503 -30.141680 118.598236
v -39.361118 -30.035210 116.635963
v -41.441105 -30.148233 118.619194
v -39.340195 -30.034073 116.515182
v -41.562584 -30.154835 118.634193
v -39.325211 -30.033258 116.393517
v -41.684658 -30.161469 118.643211
v -39.316204 -30.032770 116.271271
v -41.807026 -30.168118 118.646225
v -39.313202 -30.032606 116.148720
v -39.313202 -30.032606 116.143723
v -39.316204 -30.032770 116.021179
v -39.325211 -30.033258 115.898926
v -39.340195 -30.034073 115.777260
v -39.361118 -30.035210 115.656487
v -39.387939 -30.036667 115.536880
v -39.420586 -30.038443 115.418739
v -39.458981 -30.040527 115.302338
v -39.503033 -30.042921 115.187973
v -39.552635 -30.045618 115.075905
v -39.607670 -30.048607 114.966408
v -39.668003 -30.051886 114.859749
v -39.733486 -30.055445 114.756187
v -39.803967 -30.059275 114.655960
v -39.879272 -30.063366 114.559326
v -39.959225 -30.067711 114.466507
v -40.043625 -30.072296 114.377724
v -40.132275 -30.077114 114.293198
v -40.224960 -30.082150 114.213127
v -40.321457 -30.087393 114.137711
v -40.421532 -30.092833 114.067123
v -40.524940 -30.098452 114.001549
v -40.631443 -30.104239 113.941124
v -40.740776 -30.110180 113.886009
v -40.852680 -30.116261 113.836334
v -40.966881 -30.122465 113.792213
v -41.083103 -30.128780 113.753761
v -41.201073 -30.135191 113.721069
v -41.320503 -30.141680 113.694214
v -41.441105 -30.148233 113.673256
v -41.562584 -30.154835 113.658249
v -41.684658 -30.161469 113.649231
v -41.807026 -30.168118 113.646225
v -116.823898 -34.244419 118.643211
v -116.701538 -34.237770 118.646225
v -116.945976 -34.251053 118.634193
v -117.067451 -34.257652 118.619194
v -117.188057 -34.264206 118.598236
v -117.307487 -34.270699 118.571373
v -117.425453 -34.277107 118.538681
v -117.541672 -34.283424 118.500229
v -117.655876 -34.289627 118.456108
v -117.767784 -34.295708 118.406433
v -117.877113 -34.301651 118.351318
v -117.983612 -34.307438 118.290901
v -118.087029 -34.313057 118.225319
v -118.187103 -34.318493 118.154732
v -118.283600 -34.323738 118.079315
v -118.376282 -34.328773 117.999245
v -118.464935 -34.333591 117.914719
v -118.549339 -34.338177 117.825943
v -118.629280 -34.342522 117.733116
v -118.704597 -34.346615 117.636482
v -118.775070 -34.350445 117.536263
v -118.840553 -34.354000 117.432693
v -118.900894 -34.357281 117.326035
v -118.955925 -34.360271 117.216537
v -119.005524 -34.362965 117.104477
v -119.049576 -34.365360 116.990105
v -119.087967 -34.367447 116.873711
v -119.120621 -34.369221 116.755562
v -119.147438 -34.370678 116.635963
v -119.168365 -34.371815 116.515182
v -119.183350 -34.372627 116.393517
v -119.192352 -34.373119 116.271271
v -119.195358 -34.373280 116.148720
v -149.151169 -36.001034 109.959999
v -119.195358 -34.373280 116.143723
v -119.192352 -34.373119 116.021179
v -140.350372 -35.522812 101.146225
v -119.168365 -34.371815 115.777260
v -119.183350 -34.372627 115.898926
v -119.147438 -34.370678 115.656487
v -119.120621 -34.369221 115.536880
v -119.087967 -34.367447 115.418739
v -119.049576 -34.365360 115.302338
v -119.005524 -34.362965 115.187973
v -118.955925 -34.360271 115.075905
v -118.900894 -34.357281 114.966408
v -118.840553 -34.354000 114.859749
v -118.775070 -34.350445 114.756187
v -118.704597 -34.346615 114.655960
v -118.629280 -34.342522 114.559326
v -118.549339 -34.338177 114.466507
v -118.464935 -34.333591 114.377724
v -118.376282 -34.328773 114.293198
v -118.283600 -34.323738 114.213127
v -118.187103 -34.318493 114.137711
v -118.087029 -34.313057 114.067123
v -117.983612 -34.307438 114.001549
v -117.877113 -34.301651 113.941124
v -117.767784 -34.295708 113.886009
v -117.655876 -34.289627 113.836334
v -117.541672 -34.283424 113.792213
v -117.425453 -34.277107 113.753761
v -117.307487 -34.270699 113.721069
v -117.188057 -34.264206 113.694214
v -117.067451 -34.257652 113.673256
v -116.945976 -34.251053 113.658249
v -116.823898 -34.244419 113.649231
v -116.701538 -34.237770 113.646225
v -149.108795 -35.998730 109.096100
v -149.140564 -36.000458 109.527527
v -149.055908 -35.995857 108.666748
v -141.641724 -35.592983 101.241615
v -141.212997 -35.569687 101.188660
v -140.782211 -35.546276 101.156837
v -148.887405 -35.986702 107.818428
v -148.982056 -35.991844 108.240517
v -142.488785 -35.639011 101.410362
v -142.067322 -35.616108 101.315575
v -148.772202 -35.980442 107.401497
v -143.718292 -35.705818 101.817131
v -143.315262 -35.683918 101.661438
v -142.905106 -35.661633 101.525742
v -148.306183 -35.955120 106.191628
v -148.636703 -35.973080 106.990730
v -148.481232 -35.964630 106.587112
v -144.499023 -35.748245 102.186943
v -144.113190 -35.727280 101.992439
v -148.111969 -35.944565 105.805214
v -147.667969 -35.920441 105.063332
v -147.899063 -35.932995 105.428810
v -145.593002 -35.807690 102.880707
v -145.239838 -35.788498 102.631615
v -144.874878 -35.768665 102.400169
v -147.419235 -35.906925 104.709641
v -145.933533 -35.826191 103.146858
v -146.260620 -35.843967 103.429420
v -146.871323 -35.877151 104.041031
v -147.153473 -35.892483 104.368599
v -146.573471 -35.860966 103.727715
vn 0.000000 0.000000 1.000000
vn 0.000000 0.000000 1.000000
vn 0.998226 0.054242 0.024541
vn 0.998226 0.054242 0.024541
vn 0.995822 0.054112 0.073563
vn 0.995821 0.054111 0.073565
vn 0.991018 0.053850 0.122411
vn 0.991018 0.053851 0.122409
vn 0.983826 0.053460 0.170963
vn 0.983826 0.053460 0.170963
vn 0.974265 0.052940 0.219101
vn 0.974264 0.052940 0.219103
vn 0.962356 0.052293 0.266713
vn 0.962356 0.052293 0.266713
vn 0.948131 0.051520 0.313678
vn 0.948131 0.051520 0.313676
vn 0.931618 0.050623 0.359897
vn 0.931617 0.050623 0.359899
vn 0.912865 0.049604 0.405238
vn 0.912864 0.049604 0.405240
vn 0.891907 0.048465 0.449615
vn 0.891907 0.048465 0.449615
vn 0.868807 0.047210 0.492896
vn 0.868807 0.047210 0.492896
vn 0.843610 0.045840 0.534997
vn 0.843610 0.045840 0.534997
vn 0.816376 0.044361 0.575814
vn 0.816376 0.044361 0.575814
vn 0.787186 0.042774 0.615230
vn 0.756099 0.041085 0.653166
vn 0.787186 0.042774 0.615230
vn 0.756099 0.041085 0.653166
vn 0.723178 0.039296 0.689543
vn 0.723178 0.039296 0.689543
vn 0.688522 0.037413 0.724250
vn 0.688522 0.037413 0.724250
vn 0.652209 0.035440 0.757211
vn 0.614337 0.033382 0.788337
vn 0.652208 0.035440 0.757211
vn 0.614339 0.033382 0.788336
vn 0.574943 0.031241 0.817597
vn 0.574943 0.031241 0.817597
vn 0.534216 0.029028 0.844849
vn 0.492168 0.026744 0.870089
vn 0.534216 0.029028 0.844849
vn 0.492168 0.026744 0.870089
vn 0.448951 0.024395 0.893223
vn 0.448951 0.024395 0.893223
vn 0.404645 0.021988 0.914210
vn 0.404645 0.021988 0.914210
vn 0.359384 0.019528 0.932985
vn 0.359384 0.019528 0.932985
vn 0.313213 0.017020 0.949530
vn 0.313213 0.017020 0.949530
vn 0.266301 0.014470 0.963781
vn 0.266301 0.014470 0.963781
vn 0.218787 0.011889 0.975700
vn 0.170713 0.009276 0.985277
vn 0.218787 0.011889 0.975700
vn 0.170713 0.009276 0.985277
vn 0.122214 0.006641 0.992482
vn 0.122214 0.006641 0.992482
vn 0.073469 0.003992 0.997289
vn 0.073469 0.003992 0.997289
vn 0.024513 0.001332 0.999699
vn 0.024513 0.001332 0.999699
vn -0.024513 -0.001332 0.999699
vn -0.024513 -0.001332 0.999699
vn -0.073471 -0.003992 0.997289
vn -0.073468 -0.003992 0.997290
vn -0.122211 -0.006640 0.992482
vn -0.122216 -0.006641 0.992481
vn -0.170715 -0.009276 0.985277
vn -0.170715 -0.009276 0.985277
vn -0.218790 -0.011888 0.975700
vn -0.218790 -0.011888 0.975699
vn -0.266299 -0.014469 0.963782
vn -0.266299 -0.014469 0.963782
vn -0.313218 -0.017020 0.949529
vn -0.313208 -0.017018 0.949532
vn -0.359376 -0.019529 0.932989
vn -0.359376 -0.019529 0.932989
vn -0.404665 -0.021990 0.914201
vn -0.404652 -0.021987 0.914206
vn -0.448958 -0.024396 0.893220
vn -0.448944 -0.024393 0.893227
vn -0.492160 -0.026744 0.870094
vn -0.492160 -0.026744 0.870094
vn -0.534203 -0.029026 0.844858
vn -0.534219 -0.029030 0.844848
vn -0.574946 -0.031240 0.817595
vn -0.574946 -0.031240 0.817595
vn -0.614346 -0.033381 0.788330
vn -0.652209 -0.035438 0.757211
vn -0.614346 -0.033381 0.788330
vn -0.652191 -0.035440 0.757226
vn -0.688520 -0.037414 0.724252
vn -0.688520 -0.037414 0.724252
vn -0.723184 -0.039298 0.689536
vn -0.723185 -0.039298 0.689536
vn -0.756096 -0.041083 0.653170
vn -0.787182 -0.042772 0.615236
vn -0.756113 -0.041087 0.653150
vn -0.787165 -0.042775 0.615258
vn -0.816371 -0.044362 0.575821
vn -0.816371 -0.044362 0.575821
vn -0.843616 -0.045838 0.534987
vn -0.868815 -0.047207 0.492880
vn -0.843631 -0.045843 0.534962
vn -0.868800 -0.047211 0.492907
vn -0.891908 -0.048467 0.449611
vn -0.891909 -0.048467 0.449611
vn -0.912865 -0.049605 0.405236
vn -0.912865 -0.049605 0.405236
vn -0.931609 -0.050624 0.359918
vn -0.931610 -0.050624 0.359918
vn -0.948132 -0.051522 0.313674
vn -0.948132 -0.051522 0.313674
vn -0.962360 -0.052295 0.266699
vn -0.962360 -0.052295 0.266699
vn -0.974262 -0.052942 0.219116
vn -0.983825 -0.053461 0.170969
vn -0.974261 -0.052942 0.219116
vn -0.983825 -0.053461 0.170969
vn -0.991015 -0.053847 0.122432
vn -0.991019 -0.053852 0.122397
vn -0.995823 -0.054108 0.073546
vn -0.995823 -0.054108 0.073545
vn -0.998226 -0.054239 0.024550
vn -0.998226 -0.054239 0.024550
vn -0.054253 0.998527 0.000007
vn -0.054263 0.998527 -0.000005
vn -0.054229 0.998529 0.000031
vn -0.054214 0.998529 0.000060
vn -0.054258 0.998527 0.000000
vn -0.054252 0.998527 0.000005
vn -0.054245 0.998528 0.000009
vn -0.054246 0.998528 0.000009
vn -0.054258 0.998527 0.000001
vn -0.054228 0.998529 0.000058
vn -0.054242 0.998528 0.000032
vn -0.054257 0.998527 0.000002
vn -0.054256 0.998527 0.000001
vn -0.054257 0.998527 0.000001
vn -0.054244 0.998528 0.000042
vn -0.054267 0.998526 -0.000022
vn -0.054261 0.998527 -0.000005
vn -0.054258 0.998527 -0.000001
vn -0.054256 0.998527 0.000005
vn -0.054221 0.998529 0.000007
vn -0.054253 0.998527 0.000001
vn -0.054263 0.998527 -0.000002
vn -0.054257 0.998527 0.000003
vn -0.054256 0.998527 0.000016
vn -0.054247 0.998527 0.000105
vn -0.054339 0.998523 -0.000007
vn -0.054254 0.998527 0.000001
vn -0.054259 0.998527 -0.000000
vn -0.054260 0.998527 -0.000006
vn -0.054259 0.998527 -0.000000
vn -0.054258 0.998527 0.000000
vn -0.054339 0.998523 0.000007
vn -0.054248 0.998527 -0.000002
vn -0.054266 0.998527 0.000003
vn -0.054236 0.998528 -0.000004
vn -0.054281 0.998526 0.000008
vn -0.054262 0.998527 0.000002
vn -0.054258 0.998527 0.000000
vn -0.054257 0.998527 -0.000001
vn -0.054252 0.998527 -0.000005
vn -0.054248 0.998527 -0.000007
vn -0.054265 0.998527 0.000006
vn -0.054253 0.998527 -0.000004
vn -0.054218 0.998529 -0.000044
vn -0.054261 0.998527 0.000004
vn -0.054214 0.998529 -0.000060
vn -0.054259 0.998527 0.000001
vn -0.054264 0.998527 0.000007
vn -0.054282 0.998526 0.000037
vn -0.054254 0.998527 -0.000006
vn -0.054248 0.998528 -0.000019
vn -0.054275 0.998526 0.000040
vn -0.054276 0.998526 0.000056
vn -0.054259 0.998527 0.000000
vn -0.054258 0.998527 -0.000001
vn -0.054260 0.998527 0.000005
vn -0.054252 0.998527 -0.000024
vn -0.054263 0.998527 0.000119
vn -0.054256 0.998527 -0.000030
vn -0.054258 0.998527 -0.000001
vn -0.054258 0.998527 -0.000000
vn -0.054258 0.998527 0.000000
vn -0.054254 0.998527 -0.000008
vn -0.054262 0.998527 0.000006
vn -0.054255 0.998527 -0.000006
vn -0.054261 0.998527 0.000005
vn -0.054258 0.998527 -0.000001
vn -0.054255 0.998527 -0.000005
vn -0.054258 0.998527 -0.000000
vn -0.054259 0.998527 -0.000001
vn -0.054266 0.998527 0.000013
vn -0.054262 0.998527 0.000006
vn -0.054257 0.998527 -0.000002
vn -0.054260 0.998527 0.000002
vn -0.054251 0.998527 -0.000013
vn -0.054260 0.998527 0.000001
vn -0.054259 0.998527 0.000001
vn -0.054259 0.998527 -0.000000
vn -0.054264 0.998527 0.000010
vn -0.054259 0.998527 -0.000000
vn -0.054257 0.998527 -0.000003
vn -0.054250 0.998527 -0.000013
vn -0.054260 0.998527 0.000003
vn -0.054267 0.998526 0.000013
vn -0.054254 0.998527 -0.000007
vn -0.054258 0.998527 0.000000
vn -0.054259 0.998527 0.000002
vn -0.054257 0.998527 -0.000003
vn -0.054261 0.998527 0.000004
vn -0.054260 0.998527 0.000002
vn -0.054263 0.998527 0.000009
vn -0.054258 0.998527 0.000000
vn -0.054253 0.998527 -0.000007
vn -0.054256 0.998527 -0.000004
vn -0.054260 0.998527 0.000007
vn -0.054261 0.998527 0.000003
vn -0.054258 0.998527 0.000000
vn -0.054260 0.998527 -0.000007
vn -0.054258 0.998527 -0.000000
vn -0.054254 0.998527 0.000007
vn -0.054259 0.998527 -0.000002
vn -0.054256 0.998527 0.000003
vn -0.054259 0.998527 0.000000
vn -0.054267 0.998526 -0.000013
vn -0.054250 0.998527 0.000012
vn -0.054258 0.998527 -0.000000
vn -0.054258 0.998527 0.000000
vn -0.054260 0.998527 -0.000001
vn -0.054260 0.998527 -0.000002
vn -0.054262 0.998527 -0.000006
vn -0.054258 0.998527 0.000000
vn -0.054255 0.998527 0.000005
vn -0.054261 0.998527 -0.000004
vn -0.054253 0.998527 0.000008
vn -0.054262 0.998527 -0.000006
vn -0.054255 0.998527 0.000006
vn -0.054257 0.998527 0.000002
vn -0.054258 0.998527 0.000000
vn -0.054266 0.998527 -0.000013
vn -0.054257 0.998527 0.000002
vn -0.054252 0.998527 0.000013
vn -0.054259 0.998527 -0.000001
vn -0.054263 0.998527 -0.000010
vn -0.054257 0.998527 0.000003
vn -0.054260 0.998527 -0.000003
vn -0.054255 0.998527 0.000008
vn -0.054259 0.998527 -0.000001
vn -0.054261 0.998527 -0.000004
vn -0.054263 0.998527 -0.000009
vn -0.054256 0.998527 0.000004
vn -0.054256 0.998527 0.000004
vn -0.054258 0.998527 -0.000000
vn -0.054263 0.998527 -0.000009
vn -0.054262 0.998527 -0.000007
vn -0.054259 0.998527 -0.000002
vn -0.054253 0.998527 0.000009
vn -0.054261 0.998527 -0.000005
vn -0.054257 0.998527 0.000003
vn -0.054263 0.998527 -0.000008
vn -0.054259 0.998527 -0.000001
vn -0.054252 0.998527 0.000011
vn -0.054258 0.998527 0.000001
vn -0.054265 0.998527 -0.000012
vn -0.054258 0.998527 0.000000
vn -0.054258 0.998527 0.000001
vn -0.054255 0.998527 0.000006
vn -0.054261 0.998527 -0.000005
vn -0.054254 0.998527 0.000008
vn -0.054263 0.998527 -0.000008
vn -0.054252 0.998527 0.000009
vn -0.054261 0.998527 -0.000004
vn -0.054260 0.998527 -0.000003
vn -0.054260 0.998527 -0.000002
vn -0.054260 0.998527 -0.000003
vn -0.054256 0.998527 0.000003
vn -0.054260 0.998527 -0.000003
vn -0.054258 0.998527 -0.000000
vn -0.054250 0.998527 0.000013
vn -0.054267 0.998526 -0.000013
vn -0.054258 0.998527 -0.000000
vn -0.054256 0.998527 0.000003
vn -0.054259 0.998527 -0.000002
vn -0.054251 0.998527 0.000010
vn -0.054270 0.998526 0.000219
vn -0.054253 0.998527 -0.000061
vn -0.054257 0.998527 -0.000030
vn -0.054266 0.998527 0.000054
vn -0.054262 0.998527 0.000021
vn -0.054277 0.998526 0.000046
vn -0.054266 0.998527 0.000015
vn -0.054227 0.998529 -0.000058
vn -0.054264 0.998527 0.000011
vn -0.054247 0.998528 -0.000026
vn -0.054154 0.998533 -0.000139
vn -0.054266 0.998527 0.000012
vn -0.054138 0.998533 -0.000135
vn -0.054258 0.998527 -0.000001
vn -0.054259 0.998527 -0.000001
vn -0.054265 0.998527 0.000016
vn -0.054259 0.998527 -0.000001
vn -0.054257 0.998527 -0.000002
vn -0.054228 0.998529 -0.000020
vn -0.054313 0.998524 0.000031
vn -0.054258 0.998527 -0.000002
vn -0.054259 0.998527 -0.000000
vn -0.054097 0.998536 -0.000077
vn -0.054187 0.998531 -0.000022
vn -0.054205 0.998530 -0.000017
vn -0.054124 0.998534 -0.000037
vn -0.054259 0.998527 0.000000
vn -0.054259 0.998527 0.000001
vn -0.054283 0.998526 0.000004
vn -0.054258 0.998527 -0.000000
vn -0.054174 0.998531 -0.000002
vn -0.054260 0.998527 -0.000009
vn -0.054261 0.998527 0.000003
vn -0.054258 0.998527 0.000000
vn -0.054258 0.998527 -0.000000
vn -0.054260 0.998527 0.000009
vn -0.054259 0.998527 0.000002
vn -0.054256 0.998527 -0.000003
vn -0.054258 0.998527 0.000000
vn -0.054267 0.998526 0.000013
vn -0.054250 0.998527 -0.000013
vn -0.054260 0.998527 0.000003
vn -0.054256 0.998527 -0.000003
vn -0.054260 0.998527 0.000003
vn -0.054260 0.998527 0.000002
vn -0.054260 0.998527 0.000003
vn -0.054261 0.998527 0.000004
vn -0.054252 0.998527 -0.000009
vn -0.054263 0.998527 0.000008
vn -0.054254 0.998527 -0.000008
vn -0.054261 0.998527 0.000005
vn -0.054255 0.998527 -0.000006
vn -0.054258 0.998527 -0.000001
vn -0.054258 0.998527 -0.000000
vn -0.054265 0.998527 0.000012
vn -0.054258 0.998527 -0.000001
vn -0.054252 0.998527 -0.000011
vn -0.054259 0.998527 0.000001
vn -0.054263 0.998527 0.000008
vn -0.054257 0.998527 -0.000003
vn -0.054261 0.998527 0.000005
vn -0.054258 0.998527 0.000000
vn -0.054253 0.998527 -0.000009
vn -0.054259 0.998527 0.000002
vn -0.054262 0.998527 0.000007
vn -0.054263 0.998527 0.000009
vn -0.054256 0.998527 -0.000004
vn -0.054251 0.998527 -0.000010
vn -0.054174 0.998531 0.000002
vn -0.054278 0.998526 -0.000004
vn -0.054243 0.998528 0.000139
vn -0.054267 0.998527 -0.000099
vn -0.054390 0.998520 -0.000023
vn -0.054260 0.998527 -0.000007
vn -0.054297 0.998525 -0.000193
vn -0.054287 0.998525 -0.000004
vn -0.054212 0.998529 0.000013
vn -0.054277 0.998526 -0.000046
vn -0.054242 0.998528 0.000052
vn -0.054446 0.998517 -0.000078
vn -0.054283 0.998526 -0.000053
vn -0.054211 0.998530 0.000019
vn -0.054313 0.998524 -0.000031
vn -0.054285 0.998526 -0.000014
vn -0.054378 0.998520 -0.000180
vn -0.054261 0.998527 -0.000002
vn -0.054257 0.998527 0.000000
vn -0.054255 0.998527 0.000001
vn -0.054258 0.998527 0.000001
vn -0.054263 0.998527 -0.000005
vn -0.054254 0.998527 0.000008
vn -0.054234 0.998528 0.000036
vn -0.054266 0.998526 -0.000014
vn -0.054259 0.998527 0.000001
vn -0.054262 0.998527 -0.000001
vn -0.054259 0.998527 -0.000001
vn -0.054259 0.998527 -0.000001
vn -0.054243 0.998528 0.000006
vn -0.054249 0.998527 0.000018
vn -0.054258 0.998527 0.000000
vn -0.054258 0.998527 0.000000
vn 0.054253 -0.998527 -0.000007
vn 0.054264 -0.998527 0.000005
vn 0.054230 -0.998528 -0.000030
vn 0.054216 -0.998529 -0.000058
vn 0.054259 -0.998527 0.000000
vn 0.054252 -0.998527 -0.000005
vn 0.054245 -0.998528 -0.000009
vn 0.054246 -0.998528 -0.000009
vn 0.054258 -0.998527 -0.000001
vn 0.054228 -0.998529 -0.000058
vn 0.054242 -0.998528 -0.000032
vn 0.054257 -0.998527 -0.000002
vn 0.054252 -0.998527 -0.000003
vn 0.054257 -0.998527 -0.000001
vn 0.054244 -0.998528 -0.000042
vn 0.054267 -0.998526 0.000022
vn 0.054261 -0.998527 0.000005
vn 0.054256 -0.998527 0.000000
vn 0.054256 -0.998527 -0.000005
vn 0.054223 -0.998529 -0.000007
vn 0.054252 -0.998527 -0.000001
vn 0.054263 -0.998527 0.000002
vn 0.054257 -0.998527 -0.000003
vn 0.054256 -0.998527 -0.000016
vn 0.054247 -0.998528 -0.000105
vn 0.054335 -0.998523 0.000007
vn 0.054254 -0.998527 -0.000001
vn 0.054259 -0.998527 0.000000
vn 0.054261 -0.998527 0.000006
vn 0.054259 -0.998527 0.000000
vn 0.054258 -0.998527 -0.000000
vn 0.054335 -0.998523 -0.000007
vn 0.054248 -0.998527 0.000002
vn 0.054264 -0.998527 -0.000003
vn 0.054237 -0.998528 0.000004
vn 0.054285 -0.998525 -0.000010
vn 0.054262 -0.998527 -0.000002
vn 0.054258 -0.998527 -0.000000
vn 0.054259 -0.998527 -0.000000
vn 0.054252 -0.998527 0.000005
vn 0.054248 -0.998528 0.000007
vn 0.054265 -0.998527 -0.000006
vn 0.054253 -0.998527 0.000004
vn 0.054220 -0.998529 0.000042
vn 0.054261 -0.998527 -0.000003
vn 0.054216 -0.998529 0.000058
vn 0.054259 -0.998527 -0.000001
vn 0.054264 -0.998527 -0.000007
vn 0.054282 -0.998526 -0.000037
vn 0.054254 -0.998527 0.000006
vn 0.054248 -0.998528 0.000019
vn 0.054275 -0.998526 -0.000040
vn 0.054276 -0.998526 -0.000056
vn 0.054259 -0.998527 -0.000000
vn 0.054258 -0.998527 0.000001
vn 0.054260 -0.998527 -0.000005
vn 0.054252 -0.998527 0.000024
vn 0.054263 -0.998527 -0.000119
vn 0.054256 -0.998527 0.000030
vn 0.054258 -0.998527 0.000001
vn 0.054258 -0.998527 0.000000
vn 0.054258 -0.998527 -0.000000
vn 0.054254 -0.998527 0.000006
vn 0.054262 -0.998527 -0.000006
vn 0.054254 -0.998527 0.000007
vn 0.054260 -0.998527 -0.000003
vn 0.054258 -0.998527 0.000001
vn 0.054255 -0.998527 0.000005
vn 0.054267 -0.998526 -0.000014
vn 0.054259 -0.998527 -0.000001
vn 0.054258 -0.998527 0.000000
vn 0.054262 -0.998527 -0.000006
vn 0.054257 -0.998527 0.000002
vn 0.054260 -0.998527 -0.000002
vn 0.054260 -0.998527 -0.000003
vn 0.054251 -0.998527 0.000012
vn 0.054258 -0.998527 0.000001
vn 0.054266 -0.998527 -0.000012
vn 0.054254 -0.998527 0.000008
vn 0.054258 -0.998527 0.000000
vn 0.054258 -0.998527 0.000001
vn 0.054251 -0.998527 0.000011
vn 0.054260 -0.998527 -0.000003
vn 0.054267 -0.998526 -0.000013
vn 0.054253 -0.998527 0.000009
vn 0.054257 -0.998527 0.000001
vn 0.054261 -0.998527 -0.000004
vn 0.054258 -0.998527 0.000001
vn 0.054261 -0.998527 -0.000004
vn 0.054260 -0.998527 -0.000002
vn 0.054262 -0.998527 -0.000006
vn 0.054258 -0.998527 -0.000000
vn 0.054252 -0.998527 0.000009
vn 0.054256 -0.998527 0.000004
vn 0.054260 -0.998527 -0.000007
vn 0.054258 -0.998527 0.000000
vn 0.054258 -0.998527 0.000000
vn 0.054260 -0.998527 0.000007
vn 0.054258 -0.998527 -0.000000
vn 0.054252 -0.998527 -0.000009
vn 0.054260 -0.998527 0.000002
vn 0.054257 -0.998527 -0.000001
vn 0.054257 -0.998527 -0.000001
vn 0.054267 -0.998526 0.000013
vn 0.054251 -0.998527 -0.000011
vn 0.054258 -0.998527 -0.000000
vn 0.054266 -0.998527 0.000012
vn 0.054251 -0.998527 -0.000012
vn 0.054260 -0.998527 0.000002
vn 0.054262 -0.998527 0.000006
vn 0.054259 -0.998527 0.000001
vn 0.054255 -0.998527 -0.000005
vn 0.054260 -0.998527 0.000003
vn 0.054254 -0.998527 -0.000006
vn 0.054262 -0.998527 0.000006
vn 0.054254 -0.998527 -0.000007
vn 0.054258 -0.998527 -0.000001
vn 0.054267 -0.998527 0.000014
vn 0.054258 -0.998527 -0.000000
vn 0.054257 -0.998527 -0.000002
vn 0.054260 -0.998527 0.000003
vn 0.054258 -0.998527 -0.000001
vn 0.054254 -0.998527 -0.000008
vn 0.054258 -0.998527 -0.000001
vn 0.054260 -0.998527 0.000003
vn 0.054253 -0.998527 -0.000009
vn 0.054261 -0.998527 0.000004
vn 0.054261 -0.998527 0.000004
vn 0.054262 -0.998527 0.000006
vn 0.054256 -0.998527 -0.000004
vn 0.054259 -0.998527 0.000002
vn 0.054258 -0.998527 -0.000000
vn 0.054260 -0.998527 0.000003
vn 0.054250 -0.998527 -0.000017
vn 0.054259 -0.998527 0.000001
vn 0.054276 -0.998526 0.000032
vn 0.054251 -0.998527 -0.000014
vn 0.054269 -0.998526 0.000019
vn 0.054243 -0.998528 -0.000027
vn 0.054257 -0.998527 -0.000002
vn 0.054271 -0.998526 0.000022
vn 0.054258 -0.998527 -0.000000
vn 0.054256 -0.998527 -0.000003
vn 0.054249 -0.998527 -0.000015
vn 0.054266 -0.998526 0.000013
vn 0.054255 -0.998527 -0.000006
vn 0.054261 -0.998527 0.000005
vn 0.054254 -0.998527 -0.000008
vn 0.054263 -0.998527 0.000008
vn 0.054261 -0.998527 0.000004
vn 0.054261 -0.998527 0.000004
vn 0.054246 -0.998528 -0.000021
vn 0.054267 -0.998526 0.000013
vn 0.054260 -0.998527 0.000003
vn 0.054250 -0.998527 -0.000013
vn 0.054267 -0.998526 0.000013
vn 0.054258 -0.998527 0.000000
vn 0.054261 -0.998527 0.000004
vn 0.054256 -0.998527 -0.000003
vn 0.054258 -0.998527 0.000000
vn 0.054256 -0.998527 -0.000003
vn 0.054250 -0.998527 -0.000013
vn 0.054274 -0.998526 0.000023
vn 0.054251 -0.998527 0.000179
vn 0.054268 -0.998526 -0.000079
vn 0.054262 -0.998527 -0.000034
vn 0.054255 -0.998527 0.000035
vn 0.054262 -0.998527 -0.000021
vn 0.054226 -0.998529 0.000084
vn 0.054329 -0.998523 -0.000141
vn 0.054327 -0.998523 -0.000136
vn 0.054251 -0.998527 0.000014
vn 0.054248 -0.998528 0.000022
vn 0.054367 -0.998521 -0.000149
vn 0.054261 -0.998527 -0.000006
vn 0.054405 -0.998519 -0.000159
vn 0.054259 -0.998527 -0.000000
vn 0.054254 -0.998527 0.000008
vn 0.054256 -0.998527 0.000005
vn 0.054198 -0.998530 0.000051
vn 0.054258 -0.998527 0.000002
vn 0.054277 -0.998526 -0.000014
vn 0.054090 -0.998536 0.000098
vn 0.054261 -0.998527 -0.000004
vn 0.054258 -0.998527 0.000000
vn 0.054421 -0.998518 -0.000077
vn 0.054302 -0.998525 -0.000013
vn 0.054262 -0.998527 -0.000002
vn 0.054297 -0.998525 -0.000011
vn 0.054258 -0.998527 0.000000
vn 0.054260 -0.998527 -0.000002
vn 0.054321 -0.998524 -0.000011
vn 0.054258 -0.998527 0.000000
vn 0.054353 -0.998522 -0.000003
vn 0.054253 -0.998527 -0.000026
vn 0.054257 -0.998527 0.000002
vn 0.054258 -0.998527 0.000002
vn 0.054258 -0.998527 0.000000
vn 0.054253 -0.998527 0.000026
vn 0.054249 -0.998527 0.000012
vn 0.054257 -0.998527 0.000003
vn 0.054259 -0.998527 0.000000
vn 0.054256 -0.998527 0.000003
vn 0.054261 -0.998527 -0.000004
vn 0.054267 -0.998526 -0.000014
vn 0.054250 -0.998527 0.000014
vn 0.054261 -0.998527 -0.000003
vn 0.054266 -0.998527 -0.000013
vn 0.054246 -0.998528 0.000021
vn 0.054261 -0.998527 -0.000004
vn 0.054261 -0.998527 -0.000004
vn 0.054263 -0.998527 -0.000007
vn 0.054253 -0.998527 0.000008
vn 0.054261 -0.998527 -0.000005
vn 0.054255 -0.998527 0.000006
vn 0.054266 -0.998527 -0.000013
vn 0.054249 -0.998527 0.000015
vn 0.054257 -0.998527 0.000004
vn 0.054258 -0.998527 0.000000
vn 0.054271 -0.998526 -0.000021
vn 0.054257 -0.998527 0.000002
vn 0.054243 -0.998528 0.000028
vn 0.054269 -0.998526 -0.000020
vn 0.054251 -0.998527 0.000014
vn 0.054258 -0.998527 -0.000000
vn 0.054276 -0.998526 -0.000032
vn 0.054259 -0.998527 -0.000001
vn 0.054250 -0.998527 0.000016
vn 0.054260 -0.998527 -0.000003
vn 0.054260 -0.998527 -0.000002
vn 0.054275 -0.998526 -0.000022
vn 0.054353 -0.998522 0.000003
vn 0.054193 -0.998531 -0.000005
vn 0.054273 -0.998526 0.000117
vn 0.054254 -0.998527 -0.000080
vn 0.054214 -0.998529 -0.000008
vn 0.054260 -0.998527 0.000007
vn 0.054227 -0.998529 -0.000159
vn 0.054252 -0.998527 -0.000001
vn 0.054270 -0.998526 0.000003
vn 0.054226 -0.998529 -0.000084
vn 0.054254 -0.998527 -0.000007
vn 0.054115 -0.998535 -0.000059
vn 0.054330 -0.998523 0.000143
vn 0.054321 -0.998523 0.000027
vn 0.054090 -0.998536 -0.000098
vn 0.054231 -0.998528 -0.000013
vn 0.054259 -0.998527 -0.000004
vn 0.054261 -0.998527 0.000002
vn 0.054258 -0.998527 0.000000
vn 0.054255 -0.998527 -0.000001
vn 0.054253 -0.998527 -0.000008
vn 0.054214 -0.998529 -0.000063
vn 0.054279 -0.998526 0.000034
vn 0.054329 -0.998523 0.000100
vn 0.054243 -0.998528 -0.000028
vn 0.054198 -0.998530 -0.000051
vn 0.054262 -0.998527 0.000002
vn 0.054258 -0.998527 0.000000
vn 0.054259 -0.998527 0.000002
vn 0.054264 -0.998527 0.000002
vn 0.054265 -0.998527 0.000012
vn 0.054258 -0.998527 -0.000000
vn 0.054258 -0.998527 0.000000
vn 0.998527 0.054258 -0.000000
vn 0.998527 0.054258 -0.000000
vn -0.998527 -0.054255 -0.000000
vn -0.998527 -0.054255 -0.000000
vn 0.024496 0.001331 -0.999699
vn 0.024496 0.001331 -0.999699
vn 0.073452 0.003991 -0.997291
vn 0.073452 0.003991 -0.997291
vn 0.122231 0.006642 -0.992479
vn 0.170713 0.009276 -0.985277
vn 0.122231 0.006642 -0.992479
vn 0.170713 0.009276 -0.985277
vn 0.218787 0.011889 -0.975700
vn 0.218787 0.011889 -0.975700
vn 0.266317 0.014471 -0.963777
vn 0.266317 0.014471 -0.963777
vn 0.313213 0.017020 -0.949530
vn 0.313213 0.017020 -0.949530
vn 0.359368 0.019528 -0.932991
vn 0.404645 0.021988 -0.914210
vn 0.359368 0.019528 -0.932991
vn 0.404645 0.021988 -0.914210
vn 0.448951 0.024395 -0.893223
vn 0.448951 0.024395 -0.893223
vn 0.492168 0.026744 -0.870089
vn 0.492168 0.026744 -0.870089
vn 0.534216 0.029028 -0.844849
vn 0.574955 0.031242 -0.817589
vn 0.534216 0.029028 -0.844849
vn 0.614327 0.033382 -0.788346
vn 0.574955 0.031242 -0.817589
vn 0.614328 0.033382 -0.788345
vn 0.652209 0.035440 -0.757210
vn 0.652208 0.035440 -0.757211
vn 0.688522 0.037413 -0.724250
vn 0.688522 0.037413 -0.724250
vn 0.723186 0.039297 -0.689534
vn 0.723186 0.039297 -0.689534
vn 0.756092 0.041085 -0.653175
vn 0.756092 0.041085 -0.653175
vn 0.787186 0.042774 -0.615230
vn 0.816382 0.044361 -0.575806
vn 0.787186 0.042774 -0.615230
vn 0.816382 0.044361 -0.575806
vn 0.843605 0.045840 -0.535005
vn 0.843605 0.045840 -0.535005
vn 0.868807 0.047210 -0.492896
vn 0.868807 0.047210 -0.492896
vn 0.891910 0.048465 -0.449608
vn 0.912861 0.049603 -0.405246
vn 0.891910 0.048465 -0.449608
vn 0.931620 0.050623 -0.359891
vn 0.912862 0.049604 -0.405244
vn 0.931619 0.050623 -0.359893
vn 0.948129 0.051520 -0.313684
vn 0.948130 0.051520 -0.313682
vn 0.962356 0.052293 -0.266713
vn 0.974265 0.052940 -0.219101
vn 0.962356 0.052293 -0.266713
vn 0.983826 0.053460 -0.170963
vn 0.974264 0.052940 -0.219103
vn 0.983826 0.053460 -0.170963
vn 0.991018 0.053851 -0.122411
vn 0.991018 0.053850 -0.122409
vn 0.995822 0.054111 -0.073563
vn 0.998226 0.054242 -0.024541
vn 0.995821 0.054112 -0.073565
vn 0.998226 0.054242 -0.024541
vn -0.998226 -0.054239 -0.024550
vn -0.998226 -0.054239 -0.024550
vn -0.995823 -0.054108 -0.073546
vn -0.995823 -0.054108 -0.073545
vn -0.991015 -0.053852 -0.122432
vn -0.991019 -0.053847 -0.122397
vn -0.983825 -0.053461 -0.170969
vn -0.983825 -0.053461 -0.170969
vn -0.974261 -0.052942 -0.219116
vn -0.974261 -0.052942 -0.219116
vn -0.962360 -0.052295 -0.266699
vn -0.962360 -0.052295 -0.266699
vn -0.948130 -0.051522 -0.313680
vn -0.948130 -0.051522 -0.313680
vn -0.931612 -0.050624 -0.359912
vn -0.931612 -0.050624 -0.359912
vn -0.912862 -0.049605 -0.405243
vn -0.912862 -0.049605 -0.405242
vn -0.891912 -0.048467 -0.449604
vn -0.868815 -0.047212 -0.492880
vn -0.891912 -0.048467 -0.449604
vn -0.868800 -0.047206 -0.492907
vn -0.843627 -0.045839 -0.534970
vn -0.843611 -0.045842 -0.534995
vn -0.816377 -0.044362 -0.575813
vn -0.816377 -0.044362 -0.575813
vn -0.787182 -0.042772 -0.615236
vn -0.756089 -0.041082 -0.653179
vn -0.787165 -0.042775 -0.615258
vn -0.723193 -0.039298 -0.689527
vn -0.756106 -0.041087 -0.653158
vn -0.723193 -0.039299 -0.689527
vn -0.688520 -0.037414 -0.724252
vn -0.688519 -0.037414 -0.724252
vn -0.652209 -0.035438 -0.757211
vn -0.614335 -0.033380 -0.788339
vn -0.652191 -0.035440 -0.757226
vn -0.614335 -0.033380 -0.788339
vn -0.574958 -0.031240 -0.817586
vn -0.574958 -0.031240 -0.817586
vn -0.534203 -0.029029 -0.844858
vn -0.492160 -0.026744 -0.870094
vn -0.534219 -0.029027 -0.844848
vn -0.492160 -0.026744 -0.870094
vn -0.448958 -0.024394 -0.893220
vn -0.448944 -0.024396 -0.893227
vn -0.404652 -0.021989 -0.914206
vn -0.404665 -0.021988 -0.914201
vn -0.359360 -0.019528 -0.932995
vn -0.359360 -0.019528 -0.932995
vn -0.313218 -0.017019 -0.949529
vn -0.266315 -0.014470 -0.963777
vn -0.313207 -0.017020 -0.949532
vn -0.266315 -0.014470 -0.963777
vn -0.218790 -0.011888 -0.975700
vn -0.218790 -0.011888 -0.975700
vn -0.170715 -0.009276 -0.985277
vn -0.170715 -0.009276 -0.985277
vn -0.122229 -0.006642 -0.992480
vn -0.122233 -0.006642 -0.992479
vn -0.073453 -0.003991 -0.997291
vn -0.073450 -0.003991 -0.997291
vn -0.024495 -0.001331 -0.999699
vn -0.024495 -0.001331 -0.999699
vn 0.000000 0.000000 -1.000000
vn 0.000000 0.000000 -1.000000
vn -0.000000 0.000000 -1.000000
vn 0.000000 0.000000 -1.000000
vn 0.024548 0.001334 -0.999698
vn 0.073458 0.003992 -0.997290
vn 0.024549 0.001334 -0.999698
vn 0.122188 0.006639 -0.992485
vn 0.073453 0.003991 -0.997291
vn 0.170710 0.009276 -0.985278
vn 0.122188 0.006639 -0.992485
vn 0.218814 0.011890 -0.975694
vn 0.170710 0.009276 -0.985278
vn 0.266307 0.014471 -0.963780
vn 0.218813 0.011890 -0.975694
vn 0.313216 0.017019 -0.949529
vn 0.266307 0.014471 -0.963780
vn 0.359381 0.019529 -0.932987
vn 0.313235 0.017021 -0.949523
vn 0.359382 0.019529 -0.932986
vn 0.404643 0.021988 -0.914210
vn 0.404620 0.021986 -0.914221
vn 0.448961 0.024396 -0.893218
vn 0.448961 0.024395 -0.893218
vn 0.492156 0.026743 -0.870096
vn 0.492156 0.026743 -0.870096
vn 0.534197 0.029027 -0.844861
vn 0.534198 0.029027 -0.844861
vn 0.574974 0.031243 -0.817575
vn 0.574974 0.031243 -0.817575
vn 0.614319 0.033381 -0.788351
vn 0.614319 0.033381 -0.788351
vn 0.652232 0.035441 -0.757190
vn 0.652232 0.035441 -0.757190
vn 0.688509 0.037412 -0.724262
vn 0.688509 0.037412 -0.724262
vn 0.723152 0.039294 -0.689571
vn 0.723152 0.039294 -0.689571
vn 0.756151 0.041088 -0.653106
vn 0.756151 0.041088 -0.653106
vn 0.787128 0.042771 -0.615305
vn 0.787127 0.042771 -0.615306
vn 0.816403 0.044362 -0.575776
vn 0.816403 0.044362 -0.575776
vn 0.843598 0.045839 -0.535015
vn 0.868803 0.047211 -0.492903
vn 0.843627 0.045843 -0.534970
vn 0.868776 0.047207 -0.492950
vn 0.891922 0.048465 -0.449584
vn 0.912844 0.049602 -0.405285
vn 0.891922 0.048465 -0.449584
vn 0.912867 0.049605 -0.405233
vn 0.931642 0.050623 -0.359833
vn 0.931621 0.050625 -0.359888
vn 0.948120 0.051521 -0.313710
vn 0.962360 0.052295 -0.266700
vn 0.948138 0.051520 -0.313655
vn 0.962344 0.052292 -0.266757
vn 0.974265 0.052939 -0.219103
vn 0.983825 0.053459 -0.170968
vn 0.974265 0.052939 -0.219103
vn 0.983825 0.053459 -0.170968
vn 0.991017 0.053850 -0.122412
vn 0.991018 0.053850 -0.122411
vn 0.995818 0.054113 -0.073614
vn 0.998227 0.054244 -0.024495
vn 0.995822 0.054111 -0.073554
vn 0.998226 0.054241 -0.024556
vn 0.998527 0.054258 0.000000
vn 0.998527 0.054258 0.000000
vn 0.998227 0.054241 0.024497
vn 0.995818 0.054113 0.073610
vn 0.998226 0.054244 0.024557
vn 0.991017 0.053850 0.122412
vn 0.995822 0.054111 0.073550
vn 0.983823 0.053459 0.170979
vn 0.991018 0.053850 0.122411
vn 0.974268 0.052940 0.219089
vn 0.983823 0.053459 0.170979
vn 0.974268 0.052940 0.219089
vn 0.962355 0.052295 0.266716
vn 0.948126 0.051521 0.313692
vn 0.962340 0.052291 0.266773
vn 0.931634 0.050623 0.359854
vn 0.948144 0.051520 0.313637
vn 0.931613 0.050624 0.359909
vn 0.912877 0.049606 0.405210
vn 0.912854 0.049602 0.405262
vn 0.891922 0.048465 0.449584
vn 0.891922 0.048465 0.449584
vn 0.868803 0.047209 0.492903
vn 0.868776 0.047210 0.492950
vn 0.843609 0.045842 0.534998
vn 0.843580 0.045838 0.535043
vn 0.816424 0.044363 0.575746
vn 0.816424 0.044363 0.575746
vn 0.787128 0.042771 0.615305
vn 0.787127 0.042771 0.615306
vn 0.756124 0.041086 0.653137
vn 0.756124 0.041086 0.653137
vn 0.723181 0.039296 0.689539
vn 0.723181 0.039296 0.689539
vn 0.688509 0.037412 0.724262
vn 0.688509 0.037412 0.724262
vn 0.652232 0.035441 0.757190
vn 0.652232 0.035441 0.757190
vn 0.614319 0.033381 0.788351
vn 0.614319 0.033381 0.788351
vn 0.574974 0.031243 0.817575
vn 0.574974 0.031243 0.817575
vn 0.534153 0.029025 0.844889
vn 0.534153 0.029025 0.844889
vn 0.492203 0.026745 0.870069
vn 0.492203 0.026745 0.870069
vn 0.448961 0.024396 0.893218
vn 0.448961 0.024395 0.893218
vn 0.404643 0.021988 0.914210
vn 0.359381 0.019529 0.932987
vn 0.404620 0.021986 0.914221
vn 0.359382 0.019529 0.932986
vn 0.313216 0.017019 0.949529
vn 0.313235 0.017021 0.949523
vn 0.266307 0.014471 0.963780
vn 0.218754 0.011887 0.975707
vn 0.266307 0.014471 0.963780
vn 0.218754 0.011887 0.975708
vn 0.170710 0.009276 0.985278
vn 0.170710 0.009276 0.985278
vn 0.122249 0.006643 0.992477
vn 0.073458 0.003992 0.997290
vn 0.122249 0.006643 0.992477
vn 0.073453 0.003991 0.997291
vn 0.024485 0.001330 0.999699
vn 0.024487 0.001331 0.999699
vn 0.000000 -0.000000 1.000000
vn 0.000000 0.000000 1.000000
vn -0.024485 -0.001330 0.999699
vn -0.024485 -0.001330 0.999699
vn -0.073458 -0.003992 0.997290
vn -0.073456 -0.003991 0.997290
vn -0.122246 -0.006643 0.992478
vn -0.122246 -0.006643 0.992478
vn -0.170710 -0.009276 0.985278
vn -0.218761 -0.011887 0.975706
vn -0.170716 -0.009277 0.985277
vn -0.218754 -0.011887 0.975708
vn -0.266299 -0.014470 0.963782
vn -0.266299 -0.014470 0.963782
vn -0.313216 -0.017019 0.949529
vn -0.359392 -0.019529 0.932983
vn -0.313226 -0.017020 0.949526
vn -0.359392 -0.019529 0.932982
vn -0.404632 -0.021987 0.914215
vn -0.404643 -0.021988 0.914210
vn -0.448948 -0.024395 0.893225
vn -0.448949 -0.024395 0.893224
vn -0.492190 -0.026745 0.870077
vn -0.492190 -0.026745 0.870077
vn -0.534181 -0.029027 0.844872
vn -0.534167 -0.029025 0.844881
vn -0.574974 -0.031243 0.817575
vn -0.574974 -0.031243 0.817575
vn -0.614319 -0.033381 0.788351
vn -0.614319 -0.033381 0.788351
vn -0.652217 -0.035440 0.757203
vn -0.652232 -0.035442 0.757190
vn -0.688524 -0.037414 0.724247
vn -0.688524 -0.037414 0.724247
vn -0.723197 -0.039298 0.689523
vn -0.723181 -0.039296 0.689539
vn -0.756094 -0.041084 0.653173
vn -0.756078 -0.041085 0.653191
vn -0.787173 -0.042774 0.615248
vn -0.787173 -0.042774 0.615248
vn -0.816395 -0.044362 0.575788
vn -0.816380 -0.044360 0.575809
vn -0.843608 -0.045840 0.534999
vn -0.843608 -0.045840 0.534999
vn -0.868803 -0.047209 0.492903
vn -0.868803 -0.047209 0.492903
vn -0.891910 -0.048464 0.449609
vn -0.912877 -0.049604 0.405210
vn -0.891910 -0.048464 0.449608
vn -0.912865 -0.049604 0.405237
vn -0.931613 -0.050623 0.359908
vn -0.931613 -0.050623 0.359908
vn -0.948126 -0.051519 0.313692
vn -0.948135 -0.051521 0.313664
vn -0.962356 -0.052292 0.266716
vn -0.962356 -0.052292 0.266716
vn -0.974267 -0.052941 0.219089
vn -0.983823 -0.053460 0.170979
vn -0.974261 -0.052939 0.219119
vn -0.983829 -0.053459 0.170949
vn -0.991017 -0.053850 0.122412
vn -0.995823 -0.054111 0.073548
vn -0.991017 -0.053850 0.122412
vn -0.995820 -0.054112 0.073579
vn -0.998226 -0.054243 0.024528
vn -0.998226 -0.054243 0.024528
vn -0.998527 -0.054259 0.000000
vn -0.998527 -0.054259 0.000000
vn -0.998227 -0.054243 -0.024526
vn -0.998227 -0.054243 -0.024526
vn -0.995822 -0.054111 -0.073553
vn -0.995820 -0.054112 -0.073584
vn -0.991017 -0.053850 -0.122412
vn -0.991017 -0.053850 -0.122412
vn -0.983825 -0.053460 -0.170968
vn -0.983831 -0.053459 -0.170938
vn -0.974265 -0.052939 -0.219103
vn -0.974258 -0.052940 -0.219132
vn -0.962360 -0.052292 -0.266700
vn -0.962360 -0.052292 -0.266700
vn -0.948120 -0.051520 -0.313710
vn -0.948129 -0.051519 -0.313682
vn -0.931621 -0.050623 -0.359887
vn -0.931621 -0.050623 -0.359887
vn -0.912855 -0.049604 -0.405260
vn -0.912867 -0.049603 -0.405233
vn -0.891910 -0.048464 -0.449608
vn -0.891910 -0.048464 -0.449609
vn -0.868803 -0.047209 -0.492903
vn -0.868803 -0.047209 -0.492903
vn -0.843626 -0.045841 -0.534971
vn -0.843626 -0.045841 -0.534971
vn -0.816374 -0.044360 -0.575817
vn -0.816360 -0.044360 -0.575838
vn -0.787173 -0.042774 -0.615248
vn -0.787173 -0.042774 -0.615248
vn -0.756120 -0.041087 -0.653142
vn -0.756105 -0.041085 -0.653160
vn -0.723167 -0.039295 -0.689554
vn -0.723152 -0.039295 -0.689571
vn -0.688524 -0.037414 -0.724247
vn -0.688524 -0.037414 -0.724247
vn -0.652217 -0.035441 -0.757203
vn -0.652232 -0.035441 -0.757190
vn -0.614319 -0.033381 -0.788351
vn -0.614319 -0.033381 -0.788351
vn -0.574974 -0.031243 -0.817575
vn -0.574974 -0.031243 -0.817575
vn -0.534211 -0.029029 -0.844853
vn -0.492143 -0.026743 -0.870104
vn -0.534226 -0.029029 -0.844843
vn -0.492143 -0.026743 -0.870104
vn -0.448949 -0.024395 -0.893224
vn -0.448948 -0.024395 -0.893225
vn -0.404643 -0.021987 -0.914210
vn -0.404632 -0.021987 -0.914215
vn -0.359391 -0.019529 -0.932983
vn -0.359392 -0.019529 -0.932982
vn -0.313216 -0.017020 -0.949529
vn -0.313226 -0.017020 -0.949526
vn -0.266299 -0.014470 -0.963782
vn -0.266299 -0.014470 -0.963782
vn -0.218820 -0.011890 -0.975693
vn -0.170710 -0.009276 -0.985278
vn -0.218814 -0.011890 -0.975694
vn -0.170716 -0.009277 -0.985277
vn -0.122184 -0.006639 -0.992485
vn -0.122184 -0.006639 -0.992485
vn -0.073458 -0.003992 -0.997290
vn -0.073456 -0.003992 -0.997290
vn -0.024548 -0.001334 -0.999698
vn -0.024548 -0.001334 -0.999698
f 1//1 2//1 3//1
f 1//2 4//2 2//2
f 5//3 6//3 7//3
f 7//4 6//4 8//4
f 8//5 9//5 10//5
f 6//6 9//6 8//6
f 10//7 11//7 12//7
f 9//8 11//8 10//8
f 12//9 13//9 14//9
f 11//10 13//10 12//10
f 14//11 15//11 16//11
f 13//12 15//12 14//12
f 16//13 17//13 18//13
f 15//14 17//14 16//14
f 18//15 19//15 20//15
f 17//16 19//16 18//16
f 20//17 21//17 22//17
f 19//18 21//18 20//18
f 21//19 23//19 22//19
f 22//20 23//20 24//20
f 24//21 25//21 26//21
f 23//22 25//22 24//22
f 26//23 27//23 28//23
f 25//24 27//24 26//24
f 28//25 29//25 30//25
f 27//26 29//26 28//26
f 30//27 31//27 32//27
f 29//28 31//28 30//28
f 32//29 33//29 34//29
f 34//30 33//30 35//30
f 31//31 33//31 32//31
f 33//32 36//32 35//32
f 35//33 37//33 38//33
f 36//34 37//34 35//34
f 38//35 39//35 40//35
f 37//36 39//36 38//36
f 40//37 41//37 42//37
f 42//38 41//38 43//38
f 39//39 41//39 40//39
f 41//40 44//40 43//40
f 43//41 45//41 46//41
f 44//42 45//42 43//42
f 46//43 47//43 48//43
f 48//44 47//44 49//44
f 45//45 47//45 46//45
f 47//46 50//46 49//46
f 49//47 51//47 52//47
f 50//48 51//48 49//48
f 52//49 53//49 54//49
f 51//50 53//50 52//50
f 54//51 55//51 56//51
f 53//52 55//52 54//52
f 56//53 57//53 58//53
f 55//54 57//54 56//54
f 58//55 59//55 60//55
f 57//56 59//56 58//56
f 60//57 61//57 62//57
f 62//58 61//58 63//58
f 59//59 61//59 60//59
f 61//60 64//60 63//60
f 63//61 65//61 66//61
f 64//62 65//62 63//62
f 66//63 67//63 68//63
f 65//64 67//64 66//64
f 68//65 1//65 3//65
f 67//66 1//66 68//66
f 4//67 69//67 2//67
f 2//68 69//68 70//68
f 70//69 71//69 72//69
f 69//70 71//70 70//70
f 72//71 73//71 74//71
f 71//72 73//72 72//72
f 74//73 75//73 76//73
f 73//74 75//74 74//74
f 76//75 77//75 78//75
f 75//76 77//76 76//76
f 78//77 79//77 80//77
f 77//78 79//78 78//78
f 80//79 81//79 82//79
f 79//80 81//80 80//80
f 82//81 83//81 84//81
f 81//82 83//82 82//82
f 83//83 85//83 84//83
f 84//84 85//84 86//84
f 86//85 87//85 88//85
f 85//86 87//86 86//86
f 88//87 89//87 90//87
f 87//88 89//88 88//88
f 90//89 91//89 92//89
f 89//90 91//90 90//90
f 92//91 93//91 94//91
f 91//92 93//92 92//92
f 94//93 95//93 96//93
f 96//94 95//94 97//94
f 93//95 95//95 94//95
f 95//96 98//96 97//96
f 97//97 99//97 100//97
f 98//98 99//98 97//98
f 100//99 101//99 102//99
f 99//100 101//100 100//100
f 102//101 103//101 104//101
f 104//102 103//102 105//102
f 101//103 103//103 102//103
f 103//104 106//104 105//104
f 105//105 107//105 108//105
f 106//106 107//106 105//106
f 108//107 109//107 110//107
f 110//108 109//108 111//108
f 107//109 109//109 108//109
f 109//110 112//110 111//110
f 111//111 113//111 114//111
f 112//112 113//112 111//112
f 114//113 115//113 116//113
f 113//114 115//114 114//114
f 116//115 117//115 118//115
f 115//116 117//116 116//116
f 118//117 119//117 120//117
f 117//118 119//118 118//118
f 120//119 121//119 122//119
f 119//120 121//120 120//120
f 122//121 123//121 124//121
f 124//122 123//122 125//122
f 121//123 123//123 122//123
f 123//124 126//124 125//124
f 125//125 127//125 128//125
f 126//126 127//126 125//126
f 128//127 129//127 130//127
f 127//128 129//128 128//128
f 130//129 131//129 132//129
f 129//130 131//130 130//130
f 36//131 39//131 37//131
f 33//132 41//132 36//132
f 36//133 41//133 39//133
f 41//134 45//134 44//134
f 41//135 47//135 45//135
f 27//136 25//136 29//136
f 29//137 25//137 31//137
f 31//138 25//138 33//138
f 33//139 25//139 41//139
f 47//140 51//140 50//140
f 47//141 53//141 51//141
f 41//142 53//142 47//142
f 21//143 19//143 23//143
f 23//144 19//144 25//144
f 53//145 57//145 55//145
f 53//146 59//146 57//146
f 41//147 59//147 53//147
f 17//148 15//148 19//148
f 41//149 61//149 59//149
f 13//150 11//150 15//150
f 15//151 11//151 19//151
f 19//152 11//152 25//152
f 41//153 67//153 61//153
f 61//154 67//154 64//154
f 64//155 67//155 65//155
f 9//156 6//156 11//156
f 11//157 6//157 25//157
f 5//158 1//158 6//158
f 41//159 1//159 67//159
f 6//160 1//160 25//160
f 25//161 1//161 41//161
f 133//162 134//162 135//162
f 134//163 136//163 135//163
f 137//164 136//164 138//164
f 138//165 136//165 134//165
f 139//166 140//166 136//166
f 140//167 141//167 136//167
f 136//168 141//168 135//168
f 142//169 141//169 140//169
f 143//170 144//170 141//170
f 144//171 145//171 141//171
f 146//172 145//172 147//172
f 147//173 145//173 144//173
f 148//174 149//174 150//174
f 149//175 151//175 150//175
f 152//176 151//176 149//176
f 145//177 153//177 141//177
f 151//178 153//178 150//178
f 154//179 153//179 151//179
f 150//180 153//180 145//180
f 155//181 156//181 153//181
f 156//182 157//182 153//182
f 158//183 159//183 157//183
f 141//184 160//184 135//184
f 153//185 160//185 141//185
f 157//186 160//186 153//186
f 159//187 160//187 157//187
f 161//188 162//188 163//188
f 163//189 162//189 164//189
f 164//190 162//190 160//190
f 160//191 162//191 135//191
f 135//192 162//192 165//192
f 1//193 166//193 167//193
f 167//194 168//194 1//194
f 168//195 169//195 1//195
f 1//196 170//196 166//196
f 169//197 171//197 1//197
f 1//198 172//198 170//198
f 171//199 173//199 1//199
f 1//200 174//200 172//200
f 173//201 175//201 1//201
f 1//202 176//202 174//202
f 175//203 177//203 1//203
f 1//204 178//204 176//204
f 177//205 179//205 1//205
f 1//206 180//206 178//206
f 179//207 181//207 1//207
f 1//208 182//208 180//208
f 181//209 183//209 1//209
f 1//210 184//210 182//210
f 183//211 185//211 1//211
f 1//212 186//212 184//212
f 185//213 187//213 1//213
f 1//214 188//214 186//214
f 187//215 189//215 1//215
f 1//216 190//216 188//216
f 189//217 191//217 1//217
f 1//218 192//218 190//218
f 191//219 193//219 1//219
f 1//220 194//220 192//220
f 193//221 195//221 1//221
f 5//222 196//222 1//222
f 1//223 196//223 194//223
f 195//224 197//224 1//224
f 5//225 198//225 196//225
f 5//226 199//226 198//226
f 165//227 199//227 5//227
f 165//228 200//228 199//228
f 162//229 200//229 165//229
f 162//230 201//230 200//230
f 162//231 202//231 201//231
f 162//232 203//232 202//232
f 162//233 204//233 203//233
f 162//234 205//234 204//234
f 162//235 206//235 205//235
f 162//236 207//236 206//236
f 162//237 208//237 207//237
f 162//238 209//238 208//238
f 162//239 210//239 209//239
f 162//240 211//240 210//240
f 162//241 212//241 211//241
f 162//242 213//242 212//242
f 162//243 214//243 213//243
f 162//244 215//244 214//244
f 162//245 216//245 215//245
f 162//246 217//246 216//246
f 162//247 218//247 217//247
f 162//248 219//248 218//248
f 162//249 220//249 219//249
f 162//250 221//250 220//250
f 162//251 222//251 221//251
f 162//252 223//252 222//252
f 162//253 224//253 223//253
f 162//254 225//254 224//254
f 162//255 226//255 225//255
f 162//256 227//256 226//256
f 162//257 228//257 227//257
f 162//258 229//258 228//258
f 162//259 230//259 229//259
f 162//260 231//260 230//260
f 232//261 4//261 233//261
f 233//262 4//262 197//262
f 234//263 4//263 232//263
f 235//264 4//264 234//264
f 236//265 4//265 235//265
f 237//266 4//266 236//266
f 238//267 4//267 237//267
f 239//268 4//268 238//268
f 240//269 4//269 239//269
f 241//270 4//270 240//270
f 242//271 4//271 241//271
f 243//272 4//272 242//272
f 244//273 4//273 243//273
f 245//274 4//274 244//274
f 246//275 4//275 245//275
f 247//276 4//276 246//276
f 248//277 4//277 247//277
f 249//278 4//278 248//278
f 250//279 4//279 249//279
f 251//280 4//280 250//280
f 252//281 4//281 251//281
f 253//282 4//282 252//282
f 254//283 4//283 253//283
f 255//284 4//284 254//284
f 256//285 4//285 255//285
f 257//286 4//286 256//286
f 197//287 4//287 1//287
f 258//288 4//288 257//288
f 259//289 4//289 258//289
f 260//290 4//290 259//290
f 261//291 4//291 260//291
f 262//292 4//292 261//292
f 263//293 4//293 262//293
f 4//294 71//294 69//294
f 71//295 75//295 73//295
f 4//296 75//296 71//296
f 4//297 77//297 75//297
f 4//298 79//298 77//298
f 79//299 83//299 81//299
f 83//300 89//300 85//300
f 85//301 89//301 87//301
f 79//302 89//302 83//302
f 79//303 91//303 89//303
f 91//304 95//304 93//304
f 79//305 95//305 91//305
f 95//306 99//306 98//306
f 4//307 99//307 79//307
f 79//308 99//308 95//308
f 4//309 101//309 99//309
f 101//310 106//310 103//310
f 4//311 106//311 101//311
f 106//312 112//312 107//312
f 107//313 112//313 109//313
f 4//314 112//314 106//314
f 4//315 115//315 112//315
f 112//316 115//316 113//316
f 115//317 123//317 117//317
f 117//318 123//318 119//318
f 119//319 123//319 121//319
f 4//320 123//320 115//320
f 4//321 127//321 123//321
f 123//322 127//322 126//322
f 263//323 131//323 4//323
f 127//324 131//324 129//324
f 264//325 131//325 263//325
f 4//326 131//326 127//326
f 265//327 266//327 264//327
f 264//328 266//328 131//328
f 267//329 266//329 265//329
f 268//330 269//330 270//330
f 271//331 269//331 268//331
f 272//332 269//332 271//332
f 273//333 269//333 272//333
f 274//334 269//334 273//334
f 275//335 269//335 274//335
f 276//336 269//336 275//336
f 277//337 269//337 276//337
f 278//338 269//338 277//338
f 279//339 269//339 278//339
f 280//340 269//340 279//340
f 281//341 269//341 280//341
f 282//342 269//342 281//342
f 283//343 269//343 282//343
f 284//344 269//344 283//344
f 285//345 269//345 284//345
f 286//346 269//346 285//346
f 287//347 269//347 286//347
f 288//348 269//348 287//348
f 289//349 269//349 288//349
f 290//350 269//350 289//350
f 291//351 269//351 290//351
f 292//352 269//352 291//352
f 293//353 269//353 292//353
f 294//354 269//354 293//354
f 267//355 269//355 266//355
f 295//356 269//356 294//356
f 296//357 269//357 295//357
f 297//358 269//358 296//358
f 298//359 269//359 297//359
f 299//360 269//360 298//360
f 270//361 269//361 267//361
f 266//362 300//362 301//362
f 266//363 302//363 300//363
f 303//364 304//364 305//364
f 305//365 304//365 269//365
f 302//366 306//366 307//366
f 304//367 308//367 269//367
f 309//368 308//368 304//368
f 266//369 310//369 302//369
f 302//370 310//370 306//370
f 311//371 312//371 313//371
f 313//372 312//372 308//372
f 314//373 315//373 316//373
f 317//374 318//374 312//374
f 314//375 319//375 315//375
f 319//376 320//376 321//376
f 314//377 320//377 319//377
f 322//378 323//378 324//378
f 310//379 325//379 314//379
f 266//380 325//380 310//380
f 314//381 325//381 320//381
f 312//382 326//382 308//382
f 324//383 326//383 318//383
f 318//384 326//384 312//384
f 323//385 326//385 324//385
f 326//386 327//386 308//386
f 325//387 328//387 329//387
f 266//388 328//388 325//388
f 269//389 330//389 266//389
f 308//390 330//390 269//390
f 266//391 330//391 328//391
f 327//392 330//392 308//392
f 162//393 269//393 231//393
f 231//394 269//394 299//394
f 35//395 38//395 40//395
f 42//396 34//396 35//396
f 42//397 35//397 40//397
f 46//398 42//398 43//398
f 48//399 42//399 46//399
f 26//400 28//400 30//400
f 26//401 30//401 32//401
f 26//402 32//402 34//402
f 26//403 34//403 42//403
f 52//404 48//404 49//404
f 54//405 48//405 52//405
f 54//406 42//406 48//406
f 20//407 22//407 24//407
f 20//408 24//408 26//408
f 58//409 54//409 56//409
f 60//410 54//410 58//410
f 60//411 42//411 54//411
f 16//412 18//412 20//412
f 62//413 42//413 60//413
f 12//414 14//414 16//414
f 12//415 16//415 20//415
f 12//416 20//416 26//416
f 68//417 42//417 62//417
f 68//418 62//418 63//418
f 68//419 63//419 66//419
f 8//420 10//420 12//420
f 8//421 12//421 26//421
f 3//422 7//422 8//422
f 3//423 42//423 68//423
f 3//424 8//424 26//424
f 3//425 26//425 42//425
f 331//426 332//426 333//426
f 334//427 331//427 333//427
f 334//428 335//428 336//428
f 334//429 336//429 331//429
f 337//430 338//430 334//430
f 339//431 337//431 334//431
f 339//432 334//432 333//432
f 339//433 340//433 337//433
f 341//434 342//434 339//434
f 343//435 341//435 339//435
f 343//436 344//436 345//436
f 343//437 345//437 341//437
f 346//438 347//438 348//438
f 349//439 346//439 348//439
f 349//440 350//440 346//440
f 351//441 343//441 339//441
f 351//442 349//442 348//442
f 351//443 352//443 349//443
f 351//444 348//444 343//444
f 353//445 354//445 351//445
f 355//446 353//446 351//446
f 356//447 357//447 355//447
f 358//448 339//448 333//448
f 358//449 351//449 339//449
f 358//450 355//450 351//450
f 358//451 356//451 355//451
f 359//452 360//452 361//452
f 359//453 361//453 362//453
f 359//454 362//454 358//454
f 359//455 358//455 333//455
f 359//456 333//456 363//456
f 364//457 3//457 365//457
f 366//458 365//458 3//458
f 367//459 366//459 3//459
f 368//460 3//460 364//460
f 369//461 367//461 3//461
f 370//462 3//462 368//462
f 371//463 369//463 3//463
f 372//464 3//464 370//464
f 373//465 371//465 3//465
f 374//466 3//466 372//466
f 375//467 373//467 3//467
f 376//468 3//468 374//468
f 377//469 375//469 3//469
f 378//470 3//470 376//470
f 379//471 377//471 3//471
f 380//472 3//472 378//472
f 381//473 379//473 3//473
f 382//474 3//474 380//474
f 383//475 381//475 3//475
f 384//476 3//476 382//476
f 385//477 383//477 3//477
f 386//478 3//478 384//478
f 387//479 385//479 3//479
f 388//480 3//480 386//480
f 389//481 387//481 3//481
f 390//482 3//482 388//482
f 391//483 389//483 3//483
f 392//484 3//484 390//484
f 393//485 391//485 3//485
f 394//486 7//486 3//486
f 394//487 3//487 392//487
f 395//488 393//488 3//488
f 396//489 7//489 394//489
f 397//490 7//490 396//490
f 397//491 363//491 7//491
f 398//492 363//492 397//492
f 398//493 359//493 363//493
f 399//494 359//494 398//494
f 400//495 359//495 399//495
f 401//496 359//496 400//496
f 402//497 359//497 401//497
f 403//498 359//498 402//498
f 404//499 359//499 403//499
f 405//500 359//500 404//500
f 406//501 359//501 405//501
f 407//502 359//502 406//502
f 408//503 359//503 407//503
f 409//504 359//504 408//504
f 410//505 359//505 409//505
f 411//506 359//506 410//506
f 412//507 359//507 411//507
f 413//508 359//508 412//508
f 414//509 359//509 413//509
f 415//510 359//510 414//510
f 416//511 359//511 415//511
f 417//512 359//512 416//512
f 418//513 359//513 417//513
f 419//514 359//514 418//514
f 420//515 359//515 419//515
f 421//516 359//516 420//516
f 422//517 359//517 421//517
f 423//518 359//518 422//518
f 424//519 359//519 423//519
f 425//520 359//520 424//520
f 426//521 359//521 425//521
f 427//522 359//522 426//522
f 428//523 359//523 427//523
f 429//524 359//524 428//524
f 2//525 430//525 431//525
f 2//526 431//526 395//526
f 2//527 432//527 430//527
f 2//528 433//528 432//528
f 2//529 434//529 433//529
f 2//530 435//530 434//530
f 2//531 436//531 435//531
f 2//532 437//532 436//532
f 2//533 438//533 437//533
f 2//534 439//534 438//534
f 2//535 440//535 439//535
f 2//536 441//536 440//536
f 2//537 442//537 441//537
f 2//538 443//538 442//538
f 2//539 444//539 443//539
f 2//540 445//540 444//540
f 2//541 446//541 445//541
f 2//542 447//542 446//542
f 2//543 448//543 447//543
f 2//544 449//544 448//544
f 2//545 450//545 449//545
f 2//546 451//546 450//546
f 2//547 452//547 451//547
f 2//548 453//548 452//548
f 2//549 454//549 453//549
f 2//550 455//550 454//550
f 2//551 395//551 3//551
f 2//552 456//552 455//552
f 2//553 457//553 456//553
f 2//554 458//554 457//554
f 2//555 459//555 458//555
f 2//556 460//556 459//556
f 2//557 461//557 460//557
f 72//558 2//558 70//558
f 76//559 72//559 74//559
f 76//560 2//560 72//560
f 78//561 2//561 76//561
f 80//562 2//562 78//562
f 84//563 80//563 82//563
f 90//564 84//564 86//564
f 90//565 86//565 88//565
f 90//566 80//566 84//566
f 92//567 80//567 90//567
f 96//568 92//568 94//568
f 96//569 80//569 92//569
f 100//570 96//570 97//570
f 100//571 2//571 80//571
f 100//572 80//572 96//572
f 102//573 2//573 100//573
f 105//574 102//574 104//574
f 105//575 2//575 102//575
f 111//576 105//576 108//576
f 111//577 108//577 110//577
f 111//578 2//578 105//578
f 116//579 2//579 111//579
f 116//580 111//580 114//580
f 124//581 116//581 118//581
f 124//582 118//582 120//582
f 124//583 120//583 122//583
f 124//584 2//584 116//584
f 128//585 2//585 124//585
f 128//586 124//586 125//586
f 132//587 461//587 2//587
f 132//588 128//588 130//588
f 132//589 462//589 461//589
f 132//590 2//590 128//590
f 463//591 464//591 462//591
f 463//592 462//592 132//592
f 463//593 465//593 464//593
f 466//594 467//594 468//594
f 466//595 469//595 467//595
f 466//596 470//596 469//596
f 466//597 471//597 470//597
f 466//598 472//598 471//598
f 466//599 473//599 472//599
f 466//600 474//600 473//600
f 466//601 475//601 474//601
f 466//602 476//602 475//602
f 466//603 477//603 476//603
f 466//604 478//604 477//604
f 466//605 479//605 478//605
f 466//606 480//606 479//606
f 466//607 481//607 480//607
f 466//608 482//608 481//608
f 466//609 483//609 482//609
f 466//610 484//610 483//610
f 466//611 485//611 484//611
f 466//612 486//612 485//612
f 466//613 487//613 486//613
f 466//614 488//614 487//614
f 466//615 489//615 488//615
f 466//616 490//616 489//616
f 466//617 491//617 490//617
f 466//618 492//618 491//618
f 466//619 465//619 463//619
f 466//620 493//620 492//620
f 466//621 494//621 493//621
f 466//622 495//622 494//622
f 466//623 496//623 495//623
f 466//624 497//624 496//624
f 466//625 468//625 465//625
f 498//626 463//626 499//626
f 500//627 463//627 498//627
f 501//628 502//628 503//628
f 501//629 503//629 466//629
f 504//630 500//630 505//630
f 506//631 501//631 466//631
f 506//632 507//632 501//632
f 508//633 463//633 500//633
f 508//634 500//634 504//634
f 509//635 510//635 511//635
f 509//636 511//636 506//636
f 512//637 513//637 514//637
f 515//638 516//638 509//638
f 517//639 513//639 512//639
f 518//640 517//640 519//640
f 518//641 513//641 517//641
f 520//642 521//642 522//642
f 523//643 508//643 513//643
f 523//644 463//644 508//644
f 523//645 513//645 518//645
f 524//646 509//646 506//646
f 524//647 522//647 515//647
f 524//648 515//648 509//648
f 524//649 520//649 522//649
f 525//650 524//650 506//650
f 526//651 523//651 527//651
f 526//652 463//652 523//652
f 528//653 466//653 463//653
f 528//654 506//654 466//654
f 528//655 463//655 526//655
f 528//656 525//656 506//656
f 466//657 359//657 429//657
f 466//658 429//658 497//658
f 165//659 5//659 363//659
f 363//660 5//660 7//660
f 131//661 266//661 132//661
f 132//662 266//662 463//662
f 162//663 161//663 359//663
f 359//664 161//664 360//664
f 360//665 163//665 361//665
f 161//666 163//666 360//666
f 361//667 164//667 362//667
f 362//668 164//668 358//668
f 163//669 164//669 361//669
f 164//670 160//670 358//670
f 358//671 159//671 356//671
f 160//672 159//672 358//672
f 356//673 158//673 357//673
f 159//674 158//674 356//674
f 357//675 157//675 355//675
f 158//676 157//676 357//676
f 355//677 156//677 353//677
f 353//678 156//678 354//678
f 157//679 156//679 355//679
f 156//680 155//680 354//680
f 354//681 153//681 351//681
f 155//682 153//682 354//682
f 351//683 154//683 352//683
f 153//684 154//684 351//684
f 352//685 151//685 349//685
f 349//686 151//686 350//686
f 154//687 151//687 352//687
f 350//688 152//688 346//688
f 151//689 152//689 350//689
f 152//690 149//690 346//690
f 346//691 148//691 347//691
f 149//692 148//692 346//692
f 347//693 150//693 348//693
f 148//694 150//694 347//694
f 348//695 145//695 343//695
f 150//696 145//696 348//696
f 343//697 146//697 344//697
f 145//698 146//698 343//698
f 344//699 147//699 345//699
f 345//700 147//700 341//700
f 146//701 147//701 344//701
f 147//702 144//702 341//702
f 341//703 143//703 342//703
f 144//704 143//704 341//704
f 342//705 141//705 339//705
f 143//706 141//706 342//706
f 339//707 142//707 340//707
f 340//708 142//708 337//708
f 141//709 142//709 339//709
f 337//710 140//710 338//710
f 142//711 140//711 337//711
f 140//712 139//712 338//712
f 338//713 136//713 334//713
f 139//714 136//714 338//714
f 334//715 137//715 335//715
f 335//716 137//716 336//716
f 136//717 137//717 334//717
f 336//718 138//718 331//718
f 137//719 138//719 336//719
f 138//720 134//720 331//720
f 331//721 133//721 332//721
f 134//722 133//722 331//722
f 332//723 135//723 333//723
f 333//724 135//724 363//724
f 133//725 135//725 332//725
f 135//726 165//726 363//726
f 266//727 301//727 463//727
f 463//728 301//728 499//728
f 499//729 300//729 498//729
f 301//730 300//730 499//730
f 498//731 302//731 500//731
f 300//732 302//732 498//732
f 500//733 307//733 505//733
f 302//734 307//734 500//734
f 505//735 306//735 504//735
f 307//736 306//736 505//736
f 504//737 310//737 508//737
f 306//738 310//738 504//738
f 508//739 314//739 513//739
f 310//740 314//740 508//740
f 513//741 316//741 514//741
f 314//742 316//742 513//742
f 316//743 315//743 514//743
f 514//744 315//744 512//744
f 512//745 315//745 517//745
f 517//746 319//746 519//746
f 315//747 319//747 517//747
f 319//748 321//748 519//748
f 321//749 320//749 519//749
f 519//750 320//750 518//750
f 518//751 325//751 523//751
f 320//752 325//752 518//752
f 523//753 329//753 527//753
f 527//754 329//754 526//754
f 325//755 329//755 523//755
f 526//756 328//756 528//756
f 329//757 328//757 526//757
f 328//758 330//758 528//758
f 528//759 327//759 525//759
f 330//760 327//760 528//760
f 525//761 326//761 524//761
f 524//762 326//762 520//762
f 327//763 326//763 525//763
f 326//764 323//764 520//764
f 520//765 322//765 521//765
f 323//766 322//766 520//766
f 521//767 324//767 522//767
f 522//768 324//768 515//768
f 322//769 324//769 521//769
f 324//770 318//770 515//770
f 515//771 317//771 516//771
f 318//772 317//772 515//772
f 516//773 312//773 509//773
f 317//774 312//774 516//774
f 509//775 311//775 510//775
f 312//776 311//776 509//776
f 510//777 313//777 511//777
f 511//778 313//778 506//778
f 311//779 313//779 510//779
f 313//780 308//780 506//780
f 506//781 309//781 507//781
f 308//782 309//782 506//782
f 507//783 304//783 501//783
f 309//784 304//784 507//784
f 501//785 303//785 502//785
f 304//786 303//786 501//786
f 502//787 305//787 503//787
f 303//788 305//788 502//788
f 503//789 269//789 466//789
f 305//790 269//790 503//790
f 269//791 162//791 466//791
f 466//792 162//792 359//792
f 395//793 431//793 197//793
f 197//794 431//794 233//794
f 233//795 431//795 232//795
f 232//796 430//796 234//796
f 431//797 430//797 232//797
f 234//798 432//798 235//798
f 430//799 432//799 234//799
f 235//800 433//800 236//800
f 432//801 433//801 235//801
f 236//802 434//802 237//802
f 433//803 434//803 236//803
f 237//804 435//804 238//804
f 434//805 435//805 237//805
f 238//806 436//806 239//806
f 435//807 436//807 238//807
f 239//808 437//808 240//808
f 436//809 437//809 239//809
f 437//810 438//810 240//810
f 240//811 438//811 241//811
f 438//812 439//812 241//812
f 241//813 439//813 242//813
f 439//814 440//814 242//814
f 242//815 440//815 243//815
f 440//816 441//816 243//816
f 243//817 441//817 244//817
f 441//818 442//818 244//818
f 244//819 442//819 245//819
f 442//820 443//820 245//820
f 245//821 443//821 246//821
f 443//822 444//822 246//822
f 246//823 444//823 247//823
f 444//824 445//824 247//824
f 445//825 446//825 247//825
f 247//826 446//826 248//826
f 248//827 446//827 249//827
f 446//828 447//828 249//828
f 249//829 447//829 250//829
f 447//830 448//830 250//830
f 250//831 448//831 251//831
f 448//832 449//832 251//832
f 449//833 450//833 251//833
f 251//834 450//834 252//834
f 252//835 450//835 253//835
f 253//836 451//836 254//836
f 450//837 451//837 253//837
f 451//838 452//838 254//838
f 254//839 453//839 255//839
f 255//840 453//840 256//840
f 452//841 453//841 254//841
f 453//842 454//842 256//842
f 256//843 455//843 257//843
f 454//844 455//844 256//844
f 257//845 456//845 258//845
f 258//846 456//846 259//846
f 455//847 456//847 257//847
f 456//848 457//848 259//848
f 259//849 458//849 260//849
f 260//850 458//850 261//850
f 457//851 458//851 259//851
f 458//852 459//852 261//852
f 261//853 460//853 262//853
f 459//854 460//854 261//854
f 262//855 461//855 263//855
f 263//856 461//856 264//856
f 460//857 461//857 262//857
f 461//858 462//858 264//858
f 462//859 464//859 264//859
f 264//860 464//860 265//860
f 265//861 464//861 267//861
f 267//862 465//862 270//862
f 464//863 465//863 267//863
f 270//864 468//864 268//864
f 465//865 468//865 270//865
f 268//866 467//866 271//866
f 468//867 467//867 268//867
f 271//868 469//868 272//868
f 467//869 469//869 271//869
f 469//870 470//870 272//870
f 272//871 471//871 273//871
f 273//872 471//872 274//872
f 470//873 471//873 272//873
f 274//874 472//874 275//874
f 471//875 472//875 274//875
f 472//876 473//876 275//876
f 473//877 474//877 275//877
f 275//878 474//878 276//878
f 276//879 474//879 277//879
f 474//880 475//880 277//880
f 277//881 475//881 278//881
f 475//882 476//882 278//882
f 476//883 477//883 278//883
f 278//884 477//884 279//884
f 279//885 477//885 280//885
f 477//886 478//886 280//886
f 280//887 478//887 281//887
f 478//888 479//888 281//888
f 281//889 479//889 282//889
f 479//890 480//890 282//890
f 480//891 481//891 282//891
f 282//892 481//892 283//892
f 283//893 481//893 284//893
f 481//894 482//894 284//894
f 482//895 483//895 284//895
f 284//896 483//896 285//896
f 285//897 483//897 286//897
f 483//898 484//898 286//898
f 484//899 485//899 286//899
f 286//900 485//900 287//900
f 287//901 486//901 288//901
f 485//902 486//902 287//902
f 288//903 487//903 289//903
f 486//904 487//904 288//904
f 289//905 488//905 290//905
f 487//906 488//906 289//906
f 290//907 489//907 291//907
f 291//908 489//908 292//908
f 488//909 489//909 290//909
f 489//910 490//910 292//910
f 292//911 491//911 293//911
f 490//912 491//912 292//912
f 293//913 492//913 294//913
f 294//914 492//914 295//914
f 491//915 492//915 293//915
f 492//916 493//916 295//916
f 295//917 494//917 296//917
f 493//918 494//918 295//918
f 296//919 495//919 297//919
f 297//920 495//920 298//920
f 494//921 495//921 296//921
f 495//922 496//922 298//922
f 298//923 497//923 299//923
f 496//924 497//924 298//924
f 497//925 429//925 299//925
f 299//926 429//926 231//926
f 429//927 428//927 231//927
f 231//928 428//928 230//928
f 230//929 427//929 229//929
f 428//930 427//930 230//930
f 229//931 426//931 228//931
f 427//932 426//932 229//932
f 228//933 425//933 227//933
f 227//934 425//934 226//934
f 426//935 425//935 228//935
f 425//936 424//936 226//936
f 226//937 423//937 225//937
f 424//938 423//938 226//938
f 225//939 422//939 224//939
f 224//940 422//940 223//940
f 423//941 422//941 225//941
f 422//942 421//942 223//942
f 421//943 420//943 223//943
f 223//944 420//944 222//944
f 420//945 419//945 222//945
f 222//946 419//946 221//946
f 221//947 419//947 220//947
f 419//948 418//948 220//948
f 418//949 417//949 220//949
f 220//950 417//950 219//950
f 417//951 416//951 219//951
f 219//952 416//952 218//952
f 218//953 416//953 217//953
f 416//954 415//954 217//954
f 415//955 414//955 217//955
f 217//956 414//956 216//956
f 216//957 414//957 215//957
f 414//958 413//958 215//958
f 413//959 412//959 215//959
f 215//960 412//960 214//960
f 214//961 412//961 213//961
f 412//962 411//962 213//962
f 411//963 410//963 213//963
f 213//964 410//964 212//964
f 410//965 409//965 212//965
f 212//966 409//966 211//966
f 211//967 408//967 210//967
f 409//968 408//968 211//968
f 408//969 407//969 210//969
f 210//970 407//970 209//970
f 209//971 406//971 208//971
f 208//972 406//972 207//972
f 407//973 406//973 209//973
f 406//974 405//974 207//974
f 207//975 404//975 206//975
f 405//976 404//976 207//976
f 206//977 403//977 205//977
f 404//978 403//978 206//978
f 205//979 402//979 204//979
f 403//980 402//980 205//980
f 204//981 401//981 203//981
f 203//982 401//982 202//982
f 402//983 401//983 204//983
f 401//984 400//984 202//984
f 202//985 399//985 201//985
f 201//986 399//986 200//986
f 400//987 399//987 202//987
f 399//988 398//988 200//988
f 200//989 397//989 199//989
f 398//990 397//990 200//990
f 397//991 396//991 199//991
f 199//992 396//992 198//992
f 396//993 394//993 198//993
f 198//994 394//994 196//994
f 196//995 392//995 194//995
f 394//996 392//996 196//996
f 194//997 390//997 192//997
f 392//998 390//998 194//998
f 192//999 388//999 190//999
f 390//1000 388//1000 192//1000
f 190//1001 386//1001 188//1001
f 388//1002 386//1002 190//1002
f 188//1003 384//1003 186//1003
f 386//1004 384//1004 188//1004
f 186//1005 382//1005 184//1005
f 384//1006 382//1006 186//1006
f 184//1007 380//1007 182//1007
f 382//1008 380//1008 184//1008
f 380//1009 378//1009 182//1009
f 182//1010 378//1010 180//1010
f 378//1011 376//1011 180//1011
f 180//1012 376//1012 178//1012
f 376//1013 374//1013 178//1013
f 178//1014 374//1014 176//1014
f 374//1015 372//1015 176//1015
f 176//1016 372//1016 174//1016
f 372//1017 370//1017 174//1017
f 174//1018 370//1018 172//1018
f 370//1019 368//1019 172//1019
f 172//1020 368//1020 170//1020
f 170//1021 368//1021 166//1021
f 368//1022 364//1022 166//1022
f 364//1023 365//1023 166//1023
f 166//1024 365//1024 167//1024
f 365//1025 366//1025 167//1025
f 167//1026 366//1026 168//1026
f 366//1027 367//1027 168//1027
f 168//1028 367//1028 169//1028
f 169//1029 367//1029 171//1029
f 367//1030 369//1030 171//1030
f 369//1031 371//1031 171//1031
f 171//1032 371//1032 173//1032
f 173//1033 373//1033 175//1033
f 175//1034 373//1034 177//1034
f 371//1035 373//1035 173//1035
f 373//1036 375//1036 177//1036
f 177//1037 377//1037 179//1037
f 375//1038 377//1038 177//1038
f 179//1039 379//1039 181//1039
f 377//1040 379//1040 179//1040
f 181//1041 381//1041 183//1041
f 379//1042 381//1042 181//1042
f 183//1043 383//1043 185//1043
f 381//1044 383//1044 183//1044
f 185//1045 385//1045 187//1045
f 383//1046 385//1046 185//1046
f 187//1047 387//1047 189//1047
f 189//1048 387//1048 191//1048
f 385//1049 387//1049 187//1049
f 387//1050 389//1050 191//1050
f 191//1051 391//1051 193//1051
f 389//1052 391//1052 191//1052
f 193//1053 393//1053 195//1053
f 391//1054 393//1054 193//1054
f 195//1055 395//1055 197//1055
f 393//1056 395//1056 195//1056
