# Created by FreeCAD <https://www.freecad.org>
v 31.000000 47.961525 4.000000
v 29.500000 50.559601 4.000000
v 31.000000 47.961525 54.000000
v 29.500000 50.559601 54.000000
v 26.500000 50.559601 4.000000
v 26.500000 50.559601 54.000000
v 25.000000 47.961525 4.000000
v 25.000000 47.961525 54.000000
v 26.500000 45.363445 4.000000
v 26.500000 45.363445 54.000000
v 29.500000 45.363445 4.000000
v 29.500000 45.363445 54.000000
vn 0.866025 0.500000 -0.000000
vn 0.866025 0.500000 0.000000
vn 0.000000 1.000000 -0.000000
vn 0.000000 1.000000 0.000000
vn -0.866025 0.500000 0.000000
vn -0.866025 0.500000 0.000000
vn -0.866026 -0.499999 0.000000
vn -0.866026 -0.499999 0.000000
vn 0.000000 -1.000000 0.000000
vn 0.000000 -1.000000 0.000000
vn 0.866026 -0.499999 0.000000
vn 0.866026 -0.499999 0.000000
vn 0.000000 -0.000000 -1.000000
vn 0.000000 0.000000 -1.000000
vn 0.000000 0.000000 -1.000000
vn 0.000000 0.000000 -1.000000
vn 0.000000 0.000000 1.000000
vn 0.000000 0.000000 1.000000
vn 0.000000 0.000000 1.000000
vn 0.000000 0.000000 1.000000
f 1//1 2//1 3//1
f 3//2 2//2 4//2
f 2//3 5//3 4//3
f 4//4 5//4 6//4
f 5//5 7//5 6//5
f 6//6 7//6 8//6
f 7//7 9//7 8//7
f 8//8 9//8 10//8
f 9//9 11//9 10//9
f 10//10 11//10 12//10
f 11//11 1//11 12//11
f 12//12 1//12 3//12
f 5//13 2//13 7//13
f 7//14 2//14 9//14
f 9//15 2//15 11//15
f 11//16 2//16 1//16
f 4//17 6//17 8//17
f 4//18 8//18 10//18
f 4//19 10//19 12//19
f 4//20 12//20 3//20
